<svg width="42" height="57" viewBox="0 0 42 57" fill="none" xmlns="http://www.w3.org/2000/svg">
<g filter="url(#filter0_df)">
<path d="M29.7577 27.7981L28.9729 26.9068L28.1189 26.8922C28.0297 27.1805 27.9159 27.7773 28.174 27.8571C28.4321 27.9369 28.3541 28.7443 28.2829 29.138L27.2459 29.7154L26.6864 29.8916L26.9502 30.6716L26.2639 31.2577L26.1513 31.622C26.1496 31.9541 26.1229 32.6609 26.0297 32.8316C25.9365 33.0024 25.7152 33.2499 25.6162 33.3524L24.6483 33.053C24.4161 33.3139 23.9349 33.8901 23.8673 34.1087C23.7829 34.3819 23.1312 34.5296 23.0044 34.9395C22.9031 35.2673 23.0621 35.4063 23.1543 35.4348L24.0173 36.4001L23.4936 36.787L23.1275 37.9709L23.7728 38.1705C23.994 38.2389 24.256 38.7855 24.3592 39.0503L23.9791 40.2798C23.6957 40.3252 23.0531 40.4325 22.75 40.4984C22.4468 40.5643 22.2558 40.8445 22.1982 40.9763L22.083 41.8387L21.2764 42.4873L20.7233 42.3163L20.5262 42.9538L18.7121 44.7377C17.5645 45.5636 14.5952 47.0767 14.2951 47.2633C13.92 47.4965 12.9879 47.4078 12.6653 47.3081C12.4071 47.2283 11.9235 46.7128 11.7139 46.4651L11.6127 45.4859C11.8061 45.2962 12.2096 44.8622 12.2772 44.6437C12.3448 44.4251 12.9634 44.0576 13.2643 43.9012C13.1576 43.7019 12.9178 43.2253 12.8123 42.9133C12.7067 42.6013 12.7008 42.1305 12.7111 41.9341L11.9723 41.057L9.75984 40.3729C9.58826 40.2201 9.20748 39.8728 9.05691 39.7065C8.90634 39.5402 8.65785 39.2006 8.55242 39.0516L8.03254 37.7933L7.42565 37.3063L7.82508 36.8311L7.96589 36.3757L8.72252 35.562C9.19836 35.493 10.2074 35.3327 10.4369 35.244C10.6663 35.1553 10.6733 34.7517 10.6481 34.5609L11.1409 32.9672L11.1357 32.1673L10.5711 31.5437L10.8245 30.7241L10.539 29.6879L9.06402 29.2318L9.24707 28.6398L8.33161 28.0075L7 26.5979L7.82196 26.5527L8.70278 25.8273L8.92808 25.0987L8.85505 24.0284L9.00477 22.7277L8.86133 21.8851C9.07812 21.6195 9.53985 20.9973 9.6525 20.633C9.76515 20.2687 9.62258 19.8588 9.53722 19.6994L8.95848 19.1213L9.49356 17.3909L10.7931 16.9446C11.1601 16.792 11.9679 16.5096 12.2629 16.6009C12.5578 16.6921 12.5547 16.0924 12.5163 15.7812L11.5868 15.1944C11.4246 15.0112 11.1284 14.5538 11.241 14.1895C11.3818 13.7341 11.4484 13.3556 11.5649 13.1422C11.6581 12.9714 12.5289 11.4945 12.9526 10.7774L14.3468 9.86153L14.3442 8.56356L14.9075 6.74212L16.8599 6.79709L18.2119 6.01779L19.3642 6.37412L20.6778 5.88229L22.3883 5.41341L22.9042 4.72482L22.8107 4.04733L23.1346 3L24.1947 3.32782C24.566 3.54242 25.3583 4.00693 25.557 4.1482C25.7557 4.28948 25.8225 4.59616 25.831 4.73184L26.018 6.08682L26.4905 6.68193C26.642 6.84519 26.9345 7.23832 26.8926 7.50473C26.8506 7.77113 27.126 7.89289 27.269 7.92047L28.598 8.03209L30.0332 8.12667C30.1399 8.32597 30.3818 8.76329 30.4955 8.91818C30.6092 9.07308 30.6666 9.45339 30.6812 9.62418L31.3021 10.0657C31.4737 10.2185 31.834 10.5993 31.9026 10.8999C31.9713 11.2005 32.265 11.3612 32.4033 11.404L32.8079 11.7286L33.9307 11.5271C34.276 11.717 35.0346 12.1378 35.3071 12.3019C35.5795 12.466 35.3361 12.6435 35.1804 12.7117L35.151 13.9499L35.6273 14.6959L36.8347 16.0172L36.7836 16.9991L36.0372 17.6165L36.1077 19.1849L35.8772 19.1136L35.4739 19.4379L35.0937 20.6674L34.4958 21.1311L33.9645 21.2162L32.8558 21.3723L32.336 21.91L31.3911 22.5159L31.8572 23.4582L31.9405 24.3321L31.4899 25.7893L31.8395 26.9451L30.9548 27.5197L29.7577 27.7981Z" fill="white"/>
<path d="M29.7577 27.7981L28.9729 26.9068L28.1189 26.8922C28.0297 27.1805 27.9159 27.7773 28.174 27.8571C28.4321 27.9369 28.3541 28.7443 28.2829 29.138L27.2459 29.7154L26.6864 29.8916L26.9502 30.6716L26.2639 31.2577L26.1513 31.622C26.1496 31.9541 26.1229 32.6609 26.0297 32.8316C25.9365 33.0024 25.7152 33.2499 25.6162 33.3524L24.6483 33.053C24.4161 33.3139 23.9349 33.8901 23.8673 34.1087C23.7829 34.3819 23.1312 34.5296 23.0044 34.9395C22.9031 35.2673 23.0621 35.4063 23.1543 35.4348L24.0173 36.4001L23.4936 36.787L23.1275 37.9709L23.7728 38.1705C23.994 38.2389 24.256 38.7855 24.3592 39.0503L23.9791 40.2798C23.6957 40.3252 23.0531 40.4325 22.75 40.4984C22.4468 40.5643 22.2558 40.8445 22.1982 40.9763L22.083 41.8387L21.2764 42.4873L20.7233 42.3163L20.5262 42.9538L18.7121 44.7377C17.5645 45.5636 14.5952 47.0767 14.2951 47.2633C13.92 47.4965 12.9879 47.4078 12.6653 47.3081C12.4071 47.2283 11.9235 46.7128 11.7139 46.4651L11.6127 45.4859C11.8061 45.2962 12.2096 44.8622 12.2772 44.6437C12.3448 44.4251 12.9634 44.0576 13.2643 43.9012C13.1576 43.7019 12.9178 43.2253 12.8123 42.9133C12.7067 42.6013 12.7008 42.1305 12.7111 41.9341L11.9723 41.057L9.75984 40.3729C9.58826 40.2201 9.20748 39.8728 9.05691 39.7065C8.90634 39.5402 8.65785 39.2006 8.55242 39.0516L8.03254 37.7933L7.42565 37.3063L7.82508 36.8311L7.96589 36.3757L8.72252 35.562C9.19836 35.493 10.2074 35.3327 10.4369 35.244C10.6663 35.1553 10.6733 34.7517 10.6481 34.5609L11.1409 32.9672L11.1357 32.1673L10.5711 31.5437L10.8245 30.7241L10.539 29.6879L9.06402 29.2318L9.24707 28.6398L8.33161 28.0075L7 26.5979L7.82196 26.5527L8.70278 25.8273L8.92808 25.0987L8.85505 24.0284L9.00477 22.7277L8.86133 21.8851C9.07812 21.6195 9.53985 20.9973 9.6525 20.633C9.76515 20.2687 9.62258 19.8588 9.53722 19.6994L8.95848 19.1213L9.49356 17.3909L10.7931 16.9446C11.1601 16.792 11.9679 16.5096 12.2629 16.6009C12.5578 16.6921 12.5547 16.0924 12.5163 15.7812L11.5868 15.1944C11.4246 15.0112 11.1284 14.5538 11.241 14.1895C11.3818 13.7341 11.4484 13.3556 11.5649 13.1422C11.6581 12.9714 12.5289 11.4945 12.9526 10.7774L14.3468 9.86153L14.3442 8.56356L14.9075 6.74212L16.8599 6.79709L18.2119 6.01779L19.3642 6.37412L20.6778 5.88229L22.3883 5.41341L22.9042 4.72482L22.8107 4.04733L23.1346 3L24.1947 3.32782C24.566 3.54242 25.3583 4.00693 25.557 4.1482C25.7557 4.28948 25.8225 4.59616 25.831 4.73184L26.018 6.08682L26.4905 6.68193C26.642 6.84519 26.9345 7.23832 26.8926 7.50473C26.8506 7.77113 27.126 7.89289 27.269 7.92047L28.598 8.03209L30.0332 8.12667C30.1399 8.32597 30.3818 8.76329 30.4955 8.91818C30.6092 9.07308 30.6666 9.45339 30.6812 9.62418L31.3021 10.0657C31.4737 10.2185 31.834 10.5993 31.9026 10.8999C31.9713 11.2005 32.265 11.3612 32.4033 11.404L32.8079 11.7286L33.9307 11.5271C34.276 11.717 35.0346 12.1378 35.3071 12.3019C35.5795 12.466 35.3361 12.6435 35.1804 12.7117L35.151 13.9499L35.6273 14.6959L36.8347 16.0172L36.7836 16.9991L36.0372 17.6165L36.1077 19.1849L35.8772 19.1136L35.4739 19.4379L35.0937 20.6674L34.4958 21.1311L33.9645 21.2162L32.8558 21.3723L32.336 21.91L31.3911 22.5159L31.8572 23.4582L31.9405 24.3321L31.4899 25.7893L31.8395 26.9451L30.9548 27.5197L29.7577 27.7981Z" stroke="white" stroke-width="2"/>
</g>
<defs>
<filter id="filter0_df" x="0.792969" y="0.749268" width="41.0623" height="55.6619" filterUnits="userSpaceOnUse" color-interpolation-filters="sRGB">
<feFlood flood-opacity="0" result="BackgroundImageFix"/>
<feColorMatrix in="SourceAlpha" type="matrix" values="0 0 0 0 0 0 0 0 0 0 0 0 0 0 0 0 0 0 127 0"/>
<feOffset dy="4"/>
<feGaussianBlur stdDeviation="2"/>
<feColorMatrix type="matrix" values="0 0 0 0 0 0 0 0 0 0 0 0 0 0 0 0 0 0 0.45 0"/>
<feBlend mode="normal" in2="BackgroundImageFix" result="effect1_dropShadow"/>
<feBlend mode="normal" in="SourceGraphic" in2="effect1_dropShadow" result="shape"/>
<feGaussianBlur stdDeviation="0.5" result="effect2_foregroundBlur"/>
</filter>
</defs>
</svg>
