<svg width="51" height="64" viewBox="0 0 51 64" fill="none" xmlns="http://www.w3.org/2000/svg">
<g filter="url(#filter0_df)">
<path d="M35.4312 30.3922L34.6463 29.5009L33.7923 29.4863C33.7031 29.7747 33.5893 30.3715 33.8474 30.4513C34.1055 30.5311 34.0276 31.3385 33.9563 31.7322L32.9193 32.3096L32.3598 32.4858L32.6236 33.2658L31.9374 33.8519L31.8247 34.2162C31.823 34.5482 31.7964 35.2551 31.7032 35.4258C31.61 35.5966 31.3887 35.8441 31.2897 35.9465L30.3217 35.6472C30.0896 35.908 29.6084 36.4843 29.5408 36.7029C29.4563 36.9761 28.8046 37.1238 28.6779 37.5336C28.5765 37.8615 28.7355 38.0005 28.8277 38.029L29.6907 38.9943L29.1671 39.3812L28.801 40.5651L29.4463 40.7646C29.6675 40.8331 29.9294 41.3797 30.0327 41.6445L29.6525 42.8739C29.3691 42.9193 28.7266 43.0266 28.4234 43.0925C28.1202 43.1584 27.9292 43.4386 27.8716 43.5705L27.7564 44.4329L26.9499 45.0815L26.3968 44.9105L26.1996 45.548L24.3855 47.3318C23.238 48.1577 20.2686 49.6709 19.9685 49.8574C19.5934 50.0907 18.6613 50.002 18.3387 49.9022C18.0806 49.8224 17.5969 49.307 17.3874 49.0593L17.2862 48.0801C17.4795 47.8904 17.883 47.4564 17.9506 47.2378C18.0182 47.0193 18.6368 46.6518 18.9377 46.4954C18.831 46.2961 18.5912 45.8195 18.4857 45.5075C18.3802 45.1954 18.3743 44.7246 18.3845 44.5282L17.6457 43.6512L16.6317 43.3377L15.4333 42.9671C15.2617 42.8142 14.8809 42.467 14.7304 42.3007C14.5798 42.1344 14.3313 41.7948 14.2259 41.6458L13.706 40.3874L13.0991 39.9004L13.4985 39.4253L13.6393 38.9699L14.396 38.1562C14.8718 38.0871 15.8809 37.9269 16.1103 37.8382C16.3397 37.7495 16.3467 37.3458 16.3215 37.1551L16.8143 35.5614L16.8092 34.7615L16.2445 34.1379L16.498 33.3182L16.2124 32.282L15.521 32.0682L14.7375 31.8259L14.9205 31.234L14.0051 30.6016L12.6734 29.1921L13.4954 29.1469L14.3762 28.4215L14.6015 27.6929L14.5285 26.6226L14.6782 25.3219L14.5348 24.4793C14.7516 24.2137 15.2133 23.5915 15.3259 23.2272C15.4386 22.8629 15.296 22.453 15.2107 22.2935L14.6319 21.7154L14.8854 20.8958L15.167 19.9851L16.4665 19.5388C16.8335 19.3862 17.6413 19.1038 17.9363 19.195C18.2313 19.2863 18.2282 18.6866 18.1898 18.3754L17.2602 17.7886C17.098 17.6054 16.8018 17.148 16.9145 16.7837C17.0553 16.3283 17.1218 15.9498 17.2383 15.7363C17.3315 15.5656 18.2023 14.0887 18.6261 13.3716L20.0203 12.4557L20.0177 11.1577L20.5809 9.33629L22.5334 9.39126L23.8854 8.61197L25.0377 8.96829L26.3513 8.47646L28.0617 8.00758L28.5777 7.31899L28.4842 6.6415L28.808 5.59417L29.8682 5.92199C30.2395 6.13659 31.0317 6.6011 31.2305 6.74237C31.4292 6.88365 31.4959 7.19033 31.5045 7.32601L31.6915 8.68099L32.1639 9.2761C32.3155 9.43936 32.608 9.83249 32.566 10.0989C32.524 10.3653 32.7995 10.4871 32.9424 10.5146L34.2714 10.6263L35.7067 10.7208C35.8134 10.9201 36.0552 11.3575 36.1689 11.5124C36.2826 11.6673 36.3401 12.0476 36.3546 12.2183L36.9756 12.6598C37.1471 12.8127 37.5074 13.1935 37.5761 13.4941C37.6447 13.7947 37.9384 13.9554 38.0767 13.9981L38.4813 14.3228L39.6041 14.1212C39.9494 14.3111 40.7081 14.732 40.9805 14.8961C41.253 15.0602 41.0096 15.2377 40.8538 15.3059L40.8244 16.5441L41.3007 17.2901L42.5082 18.6113L42.457 19.5933L41.7106 20.2106L41.7811 21.7791L41.5506 21.7078L41.1474 22.0321L40.7672 23.2616L40.1693 23.7253L39.638 23.8104L38.5292 23.9665L38.0094 24.5042L37.0646 25.11L37.5307 26.0524L37.6139 26.9263L37.4591 27.4272L37.3323 27.837L37.1634 28.3835L37.5129 29.5393L36.6283 30.1138L35.4312 30.3922Z" fill="white"/>
<path d="M35.4312 30.3922L34.6463 29.5009L33.7923 29.4863C33.7031 29.7747 33.5893 30.3715 33.8474 30.4513C34.1055 30.5311 34.0276 31.3385 33.9563 31.7322L32.9193 32.3096L32.3598 32.4858L32.6236 33.2658L31.9374 33.8519L31.8247 34.2162C31.823 34.5482 31.7964 35.2551 31.7032 35.4258C31.61 35.5966 31.3887 35.8441 31.2897 35.9465L30.3217 35.6472C30.0896 35.908 29.6084 36.4843 29.5408 36.7029C29.4563 36.9761 28.8046 37.1238 28.6779 37.5336C28.5765 37.8615 28.7355 38.0005 28.8277 38.029L29.6907 38.9943L29.1671 39.3812L28.801 40.5651L29.4463 40.7646C29.6675 40.8331 29.9294 41.3797 30.0327 41.6445L29.6525 42.8739C29.3691 42.9193 28.7266 43.0266 28.4234 43.0925C28.1202 43.1584 27.9292 43.4386 27.8716 43.5705L27.7564 44.4329L26.9499 45.0815L26.3968 44.9105L26.1996 45.548L24.3855 47.3318C23.238 48.1577 20.2686 49.6709 19.9685 49.8574C19.5934 50.0907 18.6613 50.002 18.3387 49.9022C18.0806 49.8224 17.5969 49.307 17.3874 49.0593L17.2862 48.0801C17.4795 47.8904 17.883 47.4564 17.9506 47.2378C18.0182 47.0193 18.6368 46.6518 18.9377 46.4954C18.831 46.2961 18.5912 45.8195 18.4857 45.5075C18.3802 45.1954 18.3743 44.7246 18.3845 44.5282L17.6457 43.6512L16.6317 43.3377L15.4333 42.9671C15.2617 42.8142 14.8809 42.467 14.7304 42.3007C14.5798 42.1344 14.3313 41.7948 14.2259 41.6458L13.706 40.3874L13.0991 39.9004L13.4985 39.4253L13.6393 38.9699L14.396 38.1562C14.8718 38.0871 15.8809 37.9269 16.1103 37.8382C16.3397 37.7495 16.3467 37.3458 16.3215 37.1551L16.8143 35.5614L16.8092 34.7615L16.2445 34.1379L16.498 33.3182L16.2124 32.282L15.521 32.0682L14.7375 31.8259L14.9205 31.234L14.0051 30.6016L12.6734 29.1921L13.4954 29.1469L14.3762 28.4215L14.6015 27.6929L14.5285 26.6226L14.6782 25.3219L14.5348 24.4793C14.7516 24.2137 15.2133 23.5915 15.3259 23.2272C15.4386 22.8629 15.296 22.453 15.2107 22.2935L14.6319 21.7154L14.8854 20.8958L15.167 19.9851L16.4665 19.5388C16.8335 19.3862 17.6413 19.1038 17.9363 19.195C18.2313 19.2863 18.2282 18.6866 18.1898 18.3754L17.2602 17.7886C17.098 17.6054 16.8018 17.148 16.9145 16.7837C17.0553 16.3283 17.1218 15.9498 17.2383 15.7363C17.3315 15.5656 18.2023 14.0887 18.6261 13.3716L20.0203 12.4557L20.0177 11.1577L20.5809 9.33629L22.5334 9.39126L23.8854 8.61197L25.0377 8.96829L26.3513 8.47646L28.0617 8.00758L28.5777 7.31899L28.4842 6.6415L28.808 5.59417L29.8682 5.92199C30.2395 6.13659 31.0317 6.6011 31.2305 6.74237C31.4292 6.88365 31.4959 7.19033 31.5045 7.32601L31.6915 8.68099L32.1639 9.2761C32.3155 9.43936 32.608 9.83249 32.566 10.0989C32.524 10.3653 32.7995 10.4871 32.9424 10.5146L34.2714 10.6263L35.7067 10.7208C35.8134 10.9201 36.0552 11.3575 36.1689 11.5124C36.2826 11.6673 36.3401 12.0476 36.3546 12.2183L36.9756 12.6598C37.1471 12.8127 37.5074 13.1935 37.5761 13.4941C37.6447 13.7947 37.9384 13.9554 38.0767 13.9981L38.4813 14.3228L39.6041 14.1212C39.9494 14.3111 40.7081 14.732 40.9805 14.8961C41.253 15.0602 41.0096 15.2377 40.8538 15.3059L40.8244 16.5441L41.3007 17.2901L42.5082 18.6113L42.457 19.5933L41.7106 20.2106L41.7811 21.7791L41.5506 21.7078L41.1474 22.0321L40.7672 23.2616L40.1693 23.7253L39.638 23.8104L38.5292 23.9665L38.0094 24.5042L37.0646 25.11L37.5307 26.0524L37.6139 26.9263L37.4591 27.4272L37.3323 27.837L37.1634 28.3835L37.5129 29.5393L36.6283 30.1138L35.4312 30.3922Z" stroke="white" stroke-width="2"/>
</g>
<defs>
<filter id="filter0_df" x="0.76416" y="0.444824" width="50.1063" height="62.9948" filterUnits="userSpaceOnUse" color-interpolation-filters="sRGB">
<feFlood flood-opacity="0" result="BackgroundImageFix"/>
<feColorMatrix in="SourceAlpha" type="matrix" values="0 0 0 0 0 0 0 0 0 0 0 0 0 0 0 0 0 0 127 0"/>
<feOffset dy="4"/>
<feGaussianBlur stdDeviation="2"/>
<feColorMatrix type="matrix" values="0 0 0 0 0 0 0 0 0 0 0 0 0 0 0 0 0 0 0.25 0"/>
<feBlend mode="normal" in2="BackgroundImageFix" result="effect1_dropShadow"/>
<feBlend mode="normal" in="SourceGraphic" in2="effect1_dropShadow" result="shape"/>
<feGaussianBlur stdDeviation="0.5" result="effect2_foregroundBlur"/>
</filter>
</defs>
</svg>
