<svg width="48" height="55" viewBox="0 0 48 55" fill="none" xmlns="http://www.w3.org/2000/svg">
<g filter="url(#filter0_df)">
<path d="M23.0683 45.1596L23.6685 44.1992L23.6685 43.2388L23.6685 43.1787C23.5085 42.9986 23.1763 42.6385 23.1282 42.6385C23.0682 42.6385 22.9482 42.5184 22.7081 42.5784C22.4679 42.6385 22.2278 42.5184 22.1678 42.5184C22.1078 42.5184 21.3875 42.3984 21.1473 42.3383C20.9072 42.2783 20.5471 42.2183 20.307 42.1583C20.0669 42.0982 19.7667 41.678 19.5866 41.4379C19.4066 41.1978 18.9864 40.9577 18.9263 40.8377C18.8663 40.7176 18.5061 40.8377 18.4461 40.8377C18.3861 40.8377 17.9059 41.0778 17.4857 41.1378C17.1495 41.1858 16.7053 41.518 16.5252 41.678C15.945 41.618 14.7484 41.486 14.6044 41.4379C14.4603 41.3899 14.0641 41.3379 13.884 41.3179C13.844 41.2178 13.764 40.9577 13.764 40.7176C13.764 40.4175 13.6439 40.2974 13.5839 40.0573C13.5239 39.8172 13.4638 39.8772 13.1037 39.6971C12.7435 39.5171 12.8035 39.277 12.7435 39.277H11.8431C11.663 39.277 11.4229 39.337 11.0027 39.277C10.5825 39.2169 10.5825 38.9768 10.4025 38.7967C10.2224 38.6166 9.68213 38.1965 9.56207 38.0164L9.56205 38.0163C9.44197 37.8362 9.08184 37.296 8.90177 37.116C8.75771 36.9719 8.72169 36.8959 8.72169 36.8759C8.72169 36.2956 8.7337 35.1111 8.78172 35.015C8.84175 34.895 9.02183 34.6548 9.20191 34.4147C9.38199 34.1746 9.56207 33.9945 9.56207 33.8145C9.56207 33.6344 9.44202 33.3342 9.44202 33.2142C9.44202 33.0941 9.20191 32.3738 9.08186 32.2538C8.98581 32.1577 8.80173 32.0937 8.72169 32.0737C8.44157 31.8536 7.8693 31.4014 7.82128 31.3533C7.77326 31.3053 7.56116 30.8531 7.46112 30.633C7.46112 30.3729 7.48513 29.8166 7.58117 29.6726C7.67722 29.5285 7.62119 29.2924 7.58117 29.1924L7.16098 28.8922L6.80082 28.1119L7.16098 27.5716L6.80082 26.8513L6.3206 25.7108L5.54025 25.0505V23.6098L5.90041 21.869L5.54025 21.2087L5 20.4284V19.648L5.54025 18.2074H6.3206L7.16098 17.6671C7.26103 17.5271 7.49714 17.1989 7.6412 17.0068C7.78527 16.8147 7.58117 16.2865 7.46112 16.0464L6.80082 14.6658V14.1255L7.16098 13.2851V12.0846L7.46112 11.4243L8.18145 10.884C8.46157 10.6439 9.02183 10.1397 9.02183 10.0437V8.84311C9.02183 8.65102 9.22192 8.24284 9.32197 8.06276L9.80218 7.10232H10.5225L11.603 7.52251C11.8231 7.20237 12.3233 6.50205 12.5634 6.26194C12.8035 6.02183 13.2237 5.32151 13.4038 5.00136L14.1842 4.22101L15.3247 3.20055L16.2851 2.72033L18.086 2H18.6863C18.7463 2.2201 18.8303 2.70832 18.6863 2.90041C18.5422 3.0925 18.6263 3.58072 18.6863 3.80082V5.3015L19.2866 6.02183C19.4666 6.04184 19.9348 6.06985 20.367 6.02183C20.7992 5.97381 21.2675 5.68167 21.4475 5.54161L22.468 5.00136L22.7681 5.54161C23.1883 5.90177 24.0647 6.71815 24.2088 7.10232C24.3889 7.58254 24.689 7.10232 24.9891 7.10232H25.7695L26.5499 7.52251C26.85 7.58254 27.5103 7.70259 27.7504 7.70259C28.0505 7.70259 28.0505 8.24284 28.1706 8.48295C28.2666 8.67503 28.3707 9.32333 28.4107 9.62347L28.7709 10.6439C29.071 10.6239 29.7313 10.5959 29.9714 10.6439C30.2716 10.704 30.6917 11.0641 30.9319 11.2442C31.172 11.4243 31.172 11.9645 31.232 12.2647C31.292 12.5648 30.9919 13.2851 30.9319 13.5853C30.8838 13.8254 30.5917 14.2055 30.4516 14.3656C29.9914 14.5057 29.011 14.8578 28.7709 15.146C28.5308 15.4341 28.6708 15.8663 28.7709 16.0464L29.6713 17.0068L30.2716 18.2074L30.6917 19.648L32.0123 20.1282H32.7327L33.453 20.8486L33.2129 21.869V22.3492L33.6331 22.7694V23.91L33.2129 24.6303L32.7327 25.0505L32.0123 25.4106C31.9323 25.6908 31.7722 26.287 31.7722 26.4311C31.7722 26.6112 31.5321 27.0914 31.4721 27.2715C31.4241 27.4156 31.6522 27.8918 31.7722 28.1119L32.0123 30.7531L31.7722 32.1937C31.292 32.4338 30.2716 32.9501 30.0314 33.0941C29.7913 33.2382 29.9314 33.6344 30.0314 33.8145L30.6917 34.5948L31.7722 35.5553L32.2525 36.7558L32.4325 38.6767L32.7327 40.1173L33.2129 41.3779L34.1733 41.9782V43.3588C34.1733 43.839 33.533 43.9191 33.2129 43.899C32.8727 43.9991 32.1084 44.1392 31.7722 43.899C31.352 43.5989 31.0519 43.3588 30.6917 43.1787C30.4036 43.0346 30.1315 42.8386 30.0314 42.7585L29.4912 43.1787C29.3511 43.1787 28.987 43.2147 28.6508 43.3588C28.2306 43.5389 28.0505 43.1787 27.8705 43.1787C27.6904 43.1787 27.5703 42.8186 27.2102 42.7585C26.85 42.6985 26.6699 43.1787 26.6099 43.1787C26.5499 43.1787 26.2497 43.899 26.0696 44.1992C25.8896 44.4993 26.0096 44.7995 25.5894 45.3397C25.2533 45.7719 24.8891 45.96 24.749 46H23.2484L23.0683 45.1596Z" fill="white" stroke="white" stroke-width="2"/>
<path d="M35.2534 24.8706L36.454 23.9702C36.8742 24.3304 37.7146 25.0987 37.7146 25.2908C37.7146 25.4829 37.8747 26.2513 37.9547 26.6114C37.8747 27.0316 37.7146 27.92 37.7146 28.1121C37.7146 28.3522 37.7146 29.1926 37.4145 29.6728C37.1743 30.057 36.8742 30.7133 36.7542 30.9934V31.2935C36.8742 31.4336 37.1743 31.7137 37.4145 31.7137C37.7146 31.7137 37.7746 32.6742 37.7146 33.1544C37.6546 33.6346 36.9943 34.1749 36.7542 34.535C36.5621 34.8232 36.1939 35.2954 36.0338 35.4955C35.8537 35.1353 35.4455 34.3669 35.2534 34.1749C35.0133 33.9347 34.8933 32.8543 34.8333 32.6742C34.7853 32.5301 34.6932 31.9739 34.6532 31.7137L35.0733 30.9934V30.3931C35.0733 30.2131 34.6532 29.8529 34.6532 29.6728C34.6532 29.5287 34.4931 28.9325 34.4131 28.6523L34.6532 28.1121L35.4936 27.2117V26.6114C35.4135 26.3713 35.2174 25.8071 35.0733 25.4709C34.9293 25.1347 35.1334 24.9307 35.2534 24.8706Z" fill="white" stroke="white" stroke-width="2"/>
<path d="M36.9347 12.0843V10.974C37.6587 11.3369 38.8751 11.952 39.0957 12.0843C39.3958 12.2644 39.2757 13.585 39.2757 13.7651C39.2757 13.9452 38.7955 15.2658 38.5554 15.746C38.3153 16.2262 39.0957 16.9465 39.2757 17.1266C39.4558 17.3067 39.6359 17.3067 39.876 17.3667C40.0681 17.4148 40.9165 17.5868 41.3167 17.6669C41.5768 18.007 42.1571 18.7474 42.3972 18.9875C42.6973 19.2876 42.3972 20.0079 42.097 20.248C41.8569 20.4401 41.997 21.3686 42.097 21.8088C42.3371 22.1689 42.8294 22.9253 42.8774 23.0693C42.9374 23.2494 42.3972 25.3504 42.3972 25.5304C42.3972 25.6745 41.6768 26.0707 41.3167 26.2508L40.9565 25.8306L40.1762 24.3899C40.1161 24.0098 39.9721 23.2134 39.876 23.0693C39.78 22.9253 39.3158 22.5691 39.0957 22.409V21.2685C39.0957 21.0284 39.1557 19.8279 39.0957 19.4677C39.0356 19.1075 38.5554 18.2671 38.5554 18.027C38.5554 17.7869 38.0752 16.7665 38.0752 16.5864C38.0752 16.4423 37.5149 15.766 37.2348 15.4459C36.9947 15.1057 36.4905 14.3774 36.3944 14.1853C36.2744 13.9452 36.2144 13.2849 36.2144 12.9847C36.2144 12.7446 36.6946 12.2844 36.9347 12.0843Z" fill="white"/>
<path d="M36.9347 10.8838V12.0843C36.6946 12.2844 36.2144 12.7446 36.2144 12.9847C36.2144 13.2849 36.2744 13.9452 36.3944 14.1853C36.4905 14.3774 36.9947 15.1057 37.2348 15.4459C37.5149 15.766 38.0752 16.4423 38.0752 16.5864C38.0752 16.7665 38.5554 17.7869 38.5554 18.027C38.5554 18.2671 39.0356 19.1075 39.0957 19.4677C39.1557 19.8279 39.0957 21.0284 39.0957 21.2685C39.0957 21.4606 39.0957 22.1089 39.0957 22.409C39.3158 22.5691 39.78 22.9253 39.876 23.0693C39.9721 23.2134 40.1161 24.0098 40.1762 24.3899L40.9565 25.8306L41.3167 26.2508C41.6768 26.0707 42.3972 25.6745 42.3972 25.5304C42.3972 25.3504 42.9374 23.2494 42.8774 23.0693C42.8294 22.9253 42.3371 22.1689 42.097 21.8088C41.997 21.3686 41.8569 20.4401 42.097 20.248C42.3972 20.0079 42.6973 19.2876 42.3972 18.9875C42.1571 18.7474 41.5768 18.007 41.3167 17.6669C40.9165 17.5868 40.0681 17.4148 39.876 17.3667C39.6359 17.3067 39.4558 17.3067 39.2757 17.1266C39.0957 16.9465 38.3153 16.2262 38.5554 15.746C38.7955 15.2658 39.2757 13.9452 39.2757 13.7651C39.2757 13.585 39.3958 12.2644 39.0957 12.0843C38.8556 11.9403 37.4349 11.2239 36.7546 10.8838" stroke="white" stroke-width="2"/>
</g>
<defs>
<filter id="filter0_df" x="0" y="0" width="47.8823" height="55" filterUnits="userSpaceOnUse" color-interpolation-filters="sRGB">
<feFlood flood-opacity="0" result="BackgroundImageFix"/>
<feColorMatrix in="SourceAlpha" type="matrix" values="0 0 0 0 0 0 0 0 0 0 0 0 0 0 0 0 0 0 127 0"/>
<feOffset dy="4"/>
<feGaussianBlur stdDeviation="2"/>
<feColorMatrix type="matrix" values="0 0 0 0 0 0 0 0 0 0 0 0 0 0 0 0 0 0 0.45 0"/>
<feBlend mode="normal" in2="BackgroundImageFix" result="effect1_dropShadow"/>
<feBlend mode="normal" in="SourceGraphic" in2="effect1_dropShadow" result="shape"/>
<feGaussianBlur stdDeviation="0.5" result="effect2_foregroundBlur"/>
</filter>
</defs>
</svg>
