<svg width="49" height="56" viewBox="0 0 49 56" fill="none" xmlns="http://www.w3.org/2000/svg">
<g filter="url(#filter0_df)">
<path d="M23.4789 46.1405L24.0928 45.1583L24.0928 44.176L24.0928 44.1146C23.9291 43.9304 23.5894 43.5621 23.5402 43.5621C23.4789 43.5621 23.3561 43.4393 23.1105 43.5007C22.8649 43.5621 22.6194 43.4393 22.558 43.4393C22.4966 43.4393 21.7599 43.3165 21.5143 43.2551C21.2688 43.1937 20.9004 43.1323 20.6548 43.0709C20.4093 43.0096 20.1023 42.5798 19.9181 42.3342C19.734 42.0887 19.3042 41.8431 19.2428 41.7203C19.1814 41.5975 18.8131 41.7203 18.7517 41.7203C18.6903 41.7203 18.1992 41.9659 17.7694 42.0273C17.4257 42.0764 16.9714 42.4161 16.7872 42.5798C16.1937 42.5184 14.97 42.3834 14.8226 42.3342C14.6753 42.2851 14.2701 42.2319 14.0859 42.2115C14.045 42.1091 13.9632 41.8431 13.9632 41.5975C13.9632 41.2906 13.8404 41.1678 13.779 40.9222C13.7176 40.6767 13.6562 40.7381 13.2879 40.5539C12.9195 40.3697 12.9809 40.1242 12.9195 40.1242H11.9986C11.8145 40.1242 11.5689 40.1855 11.1392 40.1242C10.7094 40.0628 10.7094 39.8172 10.5252 39.633C10.3411 39.4488 9.78854 39.0191 9.66576 38.8349L9.66574 38.8349C9.54294 38.6507 9.17462 38.0982 8.99045 37.9141C8.84311 37.7667 8.80628 37.689 8.80628 37.6685C8.80628 37.075 8.81855 35.8636 8.86767 35.7654C8.92906 35.6426 9.11323 35.397 9.29741 35.1514C9.48158 34.9059 9.66576 34.7217 9.66576 34.5375C9.66576 34.3533 9.54297 34.0464 9.54297 33.9236C9.54297 33.8008 9.29741 33.0641 9.17463 32.9413C9.0764 32.8431 8.88813 32.7776 8.80628 32.7572C8.51978 32.5321 7.93452 32.0696 7.8854 32.0205C7.83629 31.9714 7.61937 31.5089 7.51705 31.2838C7.51705 31.0177 7.54161 30.4488 7.63984 30.3015C7.73806 30.1542 7.68076 29.9127 7.63984 29.8104L7.2101 29.5034L6.84175 28.7053L7.2101 28.1528L6.84175 27.4161L6.35061 26.2497L5.55252 25.5744V24.101L5.92087 22.3206L5.55252 21.6453L5 20.8472V20.0491L5.55252 18.5757H6.35061L7.2101 18.0232C7.31242 17.8799 7.55389 17.5443 7.70123 17.3479C7.84857 17.1514 7.63984 16.6112 7.51705 16.3656L6.84175 14.9536V14.4011L7.2101 13.5416V12.3138L7.51705 11.6385L8.25375 11.0859C8.54025 10.8404 9.11323 10.3247 9.11323 10.2265V8.99864C9.11323 8.80218 9.31787 8.38472 9.42019 8.20055L9.91132 7.21828H10.648L11.7531 7.64802C11.9782 7.3206 12.4898 6.60437 12.7353 6.3588C12.9809 6.11323 13.4106 5.397 13.5948 5.06958L14.3929 4.27149L15.5593 3.22783L16.5416 2.7367L18.3834 2H18.9973C19.0587 2.2251 19.1447 2.72442 18.9973 2.92087C18.85 3.11733 18.9359 3.61664 18.9973 3.84175V5.37654L19.6112 6.11323C19.7954 6.1337 20.2743 6.16235 20.7163 6.11323C21.1583 6.06412 21.6372 5.76535 21.8213 5.6221L22.865 5.06958L23.172 5.6221C23.6017 5.99045 24.498 6.82538 24.6454 7.21828C24.8295 7.70941 25.1365 7.21828 25.4434 7.21828H26.2415L27.0396 7.64802C27.3466 7.70941 28.0219 7.8322 28.2675 7.8322C28.5744 7.8322 28.5744 8.38472 28.6972 8.63029C28.7954 8.82674 28.9018 9.48977 28.9428 9.79673L29.3111 10.8404C29.6181 10.8199 30.2934 10.7913 30.5389 10.8404C30.8459 10.9018 31.2756 11.2701 31.5212 11.4543C31.7668 11.6385 31.7668 12.191 31.8282 12.498C31.8896 12.8049 31.5826 13.5416 31.5212 13.8486C31.4721 14.0941 31.1733 14.4829 31.0301 14.6467C30.5594 14.7899 29.5567 15.1501 29.3111 15.4447C29.0655 15.7394 29.2088 16.1814 29.3111 16.3656L30.232 17.3479L30.8459 18.5757L31.2756 20.0491L32.6263 20.5402H33.363L34.0997 21.2769L33.8541 22.3206V22.8117L34.2838 23.2415V24.4079L33.8541 25.1446L33.363 25.5744L32.6263 25.9427C32.5444 26.2292 32.3807 26.839 32.3807 26.9864C32.3807 27.1705 32.1351 27.6617 32.0737 27.8458C32.0246 27.9932 32.2579 28.4802 32.3807 28.7053L32.6263 31.4065L32.3807 32.8799C31.8896 33.1255 30.8459 33.6535 30.6003 33.8008C30.3548 33.9482 30.498 34.3533 30.6003 34.5375L31.2756 35.3356L32.3807 36.3179L32.8718 37.5457L33.056 39.5102L33.363 40.9836L33.8541 42.2729L34.8364 42.8868V44.2988C34.8364 44.7899 34.1815 44.8718 33.8541 44.8513C33.5062 44.9536 32.7245 45.0969 32.3807 44.8513C31.951 44.5443 31.644 44.2988 31.2756 44.1146C30.981 43.9673 30.7027 43.7667 30.6003 43.6849L30.0478 44.1146C29.9046 44.1146 29.5321 44.1514 29.1883 44.2988C28.7586 44.483 28.5744 44.1146 28.3902 44.1146C28.2061 44.1146 28.0833 43.7462 27.7149 43.6849C27.3466 43.6235 27.1624 44.1146 27.101 44.1146C27.0396 44.1146 26.7327 44.8513 26.5485 45.1583C26.3643 45.4652 26.4871 45.7722 26.0574 46.3247C25.7136 46.7667 25.3411 46.9591 25.1979 47H23.6631L23.4789 46.1405Z" fill="white" stroke="white" stroke-width="2"/>
<path d="M35.9415 25.3904L37.1693 24.4695C37.5991 24.8378 38.4586 25.6236 38.4586 25.8201C38.4586 26.0165 38.6223 26.8024 38.7041 27.1707C38.6223 27.6005 38.4586 28.509 38.4586 28.7055C38.4586 28.9511 38.4586 29.8105 38.1516 30.3017C37.906 30.6946 37.5991 31.3658 37.4763 31.6523V31.9593C37.5991 32.1025 37.906 32.389 38.1516 32.389C38.4586 32.389 38.52 33.3713 38.4586 33.8624C38.3972 34.3535 37.7219 34.906 37.4763 35.2744C37.2798 35.5691 36.9033 36.052 36.7396 36.2567C36.5554 35.8883 36.138 35.1025 35.9415 34.906C35.6959 34.6605 35.5732 33.5554 35.5118 33.3713C35.4627 33.2239 35.3685 32.655 35.3276 32.389L35.7573 31.6523V31.0384C35.7573 30.8542 35.3276 30.4859 35.3276 30.3017C35.3276 30.1543 35.1639 29.5445 35.082 29.258L35.3276 28.7055L36.1871 27.7846V27.1707C36.1052 26.9251 35.9046 26.3481 35.7573 26.0043C35.61 25.6605 35.8187 25.4517 35.9415 25.3904Z" fill="white" stroke="white" stroke-width="2"/>
<path d="M37.6605 12.3135V11.1779C38.401 11.5491 39.6451 12.1782 39.8706 12.3135C40.1776 12.4977 40.0548 13.8483 40.0548 14.0325C40.0548 14.2167 39.5637 15.5673 39.3181 16.0584C39.0725 16.5495 39.8706 17.2862 40.0548 17.4704C40.239 17.6546 40.4231 17.6546 40.6687 17.716C40.8652 17.7651 41.7328 17.9411 42.1421 18.0229C42.4081 18.3708 43.0016 19.128 43.2472 19.3736C43.5541 19.6805 43.2472 20.4172 42.9402 20.6628C42.6946 20.8592 42.8379 21.8088 42.9402 22.259C43.1858 22.6273 43.6892 23.4008 43.7383 23.5482C43.7997 23.7324 43.2472 25.8811 43.2472 26.0652C43.2472 26.2126 42.5105 26.6178 42.1421 26.8019L41.7738 26.3722L40.9757 24.8988C40.9143 24.51 40.7669 23.6955 40.6687 23.5482C40.5705 23.4008 40.0957 23.0366 39.8706 22.8729V21.7064C39.8706 21.4609 39.932 20.233 39.8706 19.8647C39.8092 19.4963 39.3181 18.6369 39.3181 18.3913C39.3181 18.1457 38.827 17.1021 38.827 16.9179C38.827 16.7706 38.254 16.0789 37.9675 15.7515C37.7219 15.4036 37.2062 14.6587 37.108 14.4622C36.9852 14.2167 36.9238 13.5414 36.9238 13.2344C36.9238 12.9888 37.415 12.5182 37.6605 12.3135Z" fill="white"/>
<path d="M37.6605 11.0857V12.3135C37.415 12.5182 36.9238 12.9888 36.9238 13.2344C36.9238 13.5414 36.9852 14.2167 37.108 14.4622C37.2062 14.6587 37.7219 15.4036 37.9675 15.7515C38.254 16.0789 38.827 16.7706 38.827 16.9179C38.827 17.1021 39.3181 18.1457 39.3181 18.3913C39.3181 18.6369 39.8092 19.4963 39.8706 19.8647C39.932 20.233 39.8706 21.4609 39.8706 21.7064C39.8706 21.9029 39.8706 22.5659 39.8706 22.8729C40.0957 23.0366 40.5705 23.4008 40.6687 23.5482C40.7669 23.6955 40.9143 24.51 40.9757 24.8988L41.7738 26.3722L42.1421 26.8019C42.5105 26.6178 43.2472 26.2126 43.2472 26.0652C43.2472 25.8811 43.7997 23.7324 43.7383 23.5482C43.6892 23.4008 43.1858 22.6273 42.9402 22.259C42.8379 21.8088 42.6946 20.8592 42.9402 20.6628C43.2472 20.4172 43.5541 19.6805 43.2472 19.3736C43.0016 19.128 42.4081 18.3708 42.1421 18.0229C41.7328 17.9411 40.8652 17.7651 40.6687 17.716C40.4231 17.6546 40.239 17.6546 40.0548 17.4704C39.8706 17.2862 39.0725 16.5495 39.3181 16.0584C39.5637 15.5673 40.0548 14.2167 40.0548 14.0325C40.0548 13.8483 40.1776 12.4977 39.8706 12.3135C39.6251 12.1662 38.1721 11.4336 37.4764 11.0857" stroke="white" stroke-width="2"/>
</g>
<defs>
<filter id="filter0_df" x="0" y="0" width="48.7433" height="56" filterUnits="userSpaceOnUse" color-interpolation-filters="sRGB">
<feFlood flood-opacity="0" result="BackgroundImageFix"/>
<feColorMatrix in="SourceAlpha" type="matrix" values="0 0 0 0 0 0 0 0 0 0 0 0 0 0 0 0 0 0 127 0"/>
<feOffset dy="4"/>
<feGaussianBlur stdDeviation="2"/>
<feColorMatrix type="matrix" values="0 0 0 0 0 0 0 0 0 0 0 0 0 0 0 0 0 0 0.25 0"/>
<feBlend mode="normal" in2="BackgroundImageFix" result="effect1_dropShadow"/>
<feBlend mode="normal" in="SourceGraphic" in2="effect1_dropShadow" result="shape"/>
<feGaussianBlur stdDeviation="0.5" result="effect2_foregroundBlur"/>
</filter>
</defs>
</svg>
