<svg width="49" height="57" viewBox="0 0 49 57" fill="none" xmlns="http://www.w3.org/2000/svg">
<g filter="url(#filter0_df)">
<path d="M34.4036 23.6818L33.1113 23.2244L32.7148 22.4029L32.8414 21.9454L33.2339 21.8377L33.6184 21.8845C33.806 21.7485 34.2254 21.4169 34.4027 21.1789C34.58 20.9408 34.3732 20.7472 34.2476 20.6802L33.7839 20.1647C33.6472 20.0127 33.3584 19.9093 33.231 19.8765L32.7172 20.3388C32.609 20.4361 32.2331 20.7253 32.2575 20.7524C32.277 20.7741 31.9877 20.8152 31.8406 20.8329C31.6572 20.7198 31.2302 20.4591 30.9896 20.3222C30.7489 20.1852 30.2754 20.1629 30.0687 20.1688C29.8009 20.3606 29.2555 20.7335 29.2164 20.6901C29.1774 20.6466 28.8356 20.7381 28.6696 20.7893L26.8389 18.7544C26.688 18.6774 26.357 18.4908 26.2399 18.3605C26.1227 18.2303 25.8172 18.2171 25.6791 18.2268L25.0808 18.3232L24.7563 18.6152C24.6049 18.7514 24.1501 18.866 23.9417 18.9063L23.6487 18.5807L23.8373 17.9201L23.9092 17.0209L23.2257 16.2612L23.7501 15.5931L24.2368 15.1551L24.4202 14.5975L24.6741 14.1726L25.3495 13.0741L25.7353 12.0888L26.1034 11.954L26.8639 11.7116L27.5941 11.0547L27.2768 10.7019L27.0188 10.1976L27.2213 9.77002L27.4647 9.55105L28.3446 9.49575L28.8889 9.44798L29.3216 9.05869C29.4977 9.14569 29.8803 9.33167 30.0017 9.37956C30.1231 9.42745 30.536 9.35705 30.7273 9.31586L31.7985 8.54849L32.2853 8.11055L33.2273 7.85221L33.8842 7.11389L33.9455 6.42055L33.6519 5.60467C33.5281 5.50332 33.2452 5.28322 33.1043 5.21362C32.9282 5.12662 32.221 4.83008 32.0719 4.71876C31.9526 4.62969 31.5217 4.37916 31.3212 4.26503L30.8231 4.41853L29.7704 4.82566L29.74 4.41116L29.1805 3.24537C29.027 3.21981 28.6799 3.14586 28.5195 3.05456C28.319 2.94043 27.6962 3.00973 27.561 3.13138C27.4258 3.25303 26.8143 3.60678 26.4812 3.56284C26.1481 3.5189 25.9265 3.81647 25.2523 3.88297C24.5781 3.94947 24.6078 3.87368 23.7515 3.46581C23.4507 3.29462 23.2799 3.10469 22.6974 2.89235C22.1149 2.68002 22.1881 2.76141 21.8873 2.59021C21.6466 2.45325 21.5253 2.60491 21.4948 2.69786L21.0621 3.08714C20.8728 3.25745 20.7376 3.37911 20.6162 3.73374C20.4949 4.08837 19.8083 4.90248 19.4428 4.98579C19.0774 5.0691 18.7845 4.74352 18.7033 4.81651C18.6222 4.8895 18.1479 4.57984 17.8471 4.40864C17.5462 4.23745 17.4189 4.20471 17.3107 4.30203C17.2026 4.39935 16.5291 4.95615 16.4453 5.0806C16.3783 5.18017 15.9276 5.95551 15.7106 6.33074L14.6018 7.32828C14.4844 7.27028 14.2046 7.12603 14.0246 7.01302C13.8446 6.90001 13.5595 6.85868 13.4395 6.85214L12.2192 7.50818L11.1005 9.20186L11.3118 11.1228L11.1582 11.6047L10.9478 12.1867L11.0461 12.7855L11.2692 13.4685L10.8635 13.8335L9.87869 14.4249L9.90715 15.3812L10.2331 16.0698L9.94685 16.6219L10.3381 17.5463L10.16 18.001L9.82235 18.5503L9.63112 19.2624L10.1681 19.8593L11.2025 19.8124L11.8443 19.8731C11.8538 20.1919 11.8609 20.8597 11.8134 20.981C11.7659 21.1022 11.6732 21.369 11.6327 21.4872L11.2634 22.654L10.937 23.4877L10.947 24.8042L10.0026 27.1267L10.0832 28.576C9.94448 28.7663 9.64538 29.1663 9.55884 29.2441L9.15319 29.6091C9.01797 29.7308 8.80355 29.3836 8.53241 29.1366C8.3155 28.9391 7.99785 28.9957 7.86615 29.0488L6.94667 29.876L7.01797 30.4991L6.72119 31.2571L6.12553 31.302L5.63874 31.74C5.55147 31.9331 5.36993 32.3549 5.34197 32.4979C5.31402 32.6409 5.34706 32.9024 5.36708 33.0153L5.83087 33.5309L6.12713 34.2953L5.89498 34.7987L5.38115 35.261C5.16481 35.4556 5.08215 35.7263 5.06787 35.8374L5.39644 36.4745C5.63504 36.6853 6.10576 37.1324 6.07991 37.2342C6.0476 37.3615 5.88342 38.0492 5.8511 38.1765C5.81879 38.3037 5.92311 39.2899 5.88817 39.4686C5.85322 39.6473 6.2306 40.3388 6.16335 40.6448C6.09609 40.9507 6.70036 41.2417 6.77359 41.3231L7.31061 41.92C7.38671 42.1133 7.54063 42.5672 7.54752 42.8359C7.55441 43.1047 7.72939 43.1469 7.81603 43.1344L8.79961 43.575C8.93067 43.7026 9.20692 43.9842 9.26339 44.0905C9.31987 44.1968 9.80369 44.4554 10.0385 44.5714L11.8492 43.9733L13.2167 43.9703L14.0242 44.3239L14.6825 44.5662C14.7452 44.8535 14.8327 45.462 14.6813 45.5983C14.5299 45.7345 14.846 45.9083 15.023 45.9781L16.1471 46.1941L16.7421 45.6589L17.0633 44.9281L17.7427 44.7586L18.4994 45.5997L19.415 45.856L19.5595 46.5606L20.3268 47.1958L23.3097 46.3777L24.0939 45.6721L25.1039 45.5981L25.3387 45.0432L26.4745 44.0214L26.541 43.2251L26.8273 42.673L27.568 41.8103C27.5341 41.4644 27.4771 40.7629 27.5204 40.7239C27.5637 40.685 27.5903 40.3665 27.5982 40.2121L27.8957 39.9445L28.2908 39.7854L29.0408 39.7488L29.2241 39.1911L30.0823 39.0572L30.4741 38.4593L30.8467 37.7313L31.5288 37.5104L32.0843 37.7471L32.3422 38.2514L32.7572 38.7126L33.4941 38.9334L34.157 38.5824L34.4545 38.3148L35.0066 38.1126L35.4208 38.0836L35.9928 38.5018L36.5997 38.7413L37.4223 38.2958L37.4723 37.318L37.5527 36.7547L38.0665 36.2924L39.0336 36.5515L39.8622 36.4934L40.4782 35.5465L41.3323 34.4834L41.2314 33.9361L41.2577 33.4215L41.9886 33.2548L43.0466 32.7448L42.943 32.2489L42.3083 31.5435L42.3644 30.953L42.4659 29.9781L42.8167 29.1715L43.5199 28.5389L43.4756 27.8914L42.9874 27.3488L41.9069 27.2899L41.445 26.2327L40.0292 24.659L39.3682 24.4682L38.5694 24.4505L37.452 25.1121L36.2363 25.175L35.5509 24.957L35.504 24.361L34.9914 23.7912L34.4036 23.6818Z" fill="white"/>
<path d="M34.4036 23.6818L33.1113 23.2244L32.7148 22.4029L32.8414 21.9454L33.2339 21.8377L33.6184 21.8845C33.806 21.7485 34.2254 21.4169 34.4027 21.1789C34.58 20.9408 34.3732 20.7472 34.2476 20.6802L33.7839 20.1647C33.6472 20.0127 33.3584 19.9093 33.231 19.8765L32.7172 20.3388C32.609 20.4361 32.2331 20.7253 32.2575 20.7524C32.277 20.7741 31.9877 20.8152 31.8406 20.8329C31.6572 20.7198 31.2302 20.4591 30.9896 20.3222C30.7489 20.1852 30.2754 20.1629 30.0687 20.1688C29.8009 20.3606 29.2555 20.7335 29.2164 20.6901C29.1774 20.6466 28.8356 20.7381 28.6696 20.7893L26.8389 18.7544C26.688 18.6774 26.357 18.4908 26.2399 18.3605C26.1227 18.2303 25.8172 18.2171 25.6791 18.2268L25.0808 18.3232L24.7563 18.6152C24.6049 18.7514 24.1501 18.866 23.9417 18.9063L23.6487 18.5807L23.8373 17.9201L23.9092 17.0209L23.2257 16.2612L23.7501 15.5931L24.2368 15.1551L24.4202 14.5975L24.6741 14.1726L25.3495 13.0741L25.7353 12.0888L26.1034 11.954L26.8639 11.7116L27.5941 11.0547L27.2768 10.7019L27.0188 10.1976L27.2213 9.77002L27.4647 9.55105L28.3446 9.49575L28.8889 9.44798L29.3216 9.05869C29.4977 9.14569 29.8803 9.33167 30.0017 9.37956C30.1231 9.42745 30.536 9.35705 30.7273 9.31586L31.7985 8.54849L32.2853 8.11055L33.2273 7.85221L33.8842 7.11389L33.9455 6.42055L33.6519 5.60467C33.5281 5.50332 33.2452 5.28322 33.1043 5.21362C32.9282 5.12662 32.221 4.83008 32.0719 4.71876C31.9526 4.62969 31.5217 4.37916 31.3212 4.26503L30.8231 4.41853L29.7704 4.82566L29.74 4.41116L29.1805 3.24537C29.027 3.21981 28.6799 3.14586 28.5195 3.05456C28.319 2.94043 27.6962 3.00973 27.561 3.13138C27.4258 3.25303 26.8143 3.60678 26.4812 3.56284C26.1481 3.5189 25.9265 3.81647 25.2523 3.88297C24.5781 3.94947 24.6078 3.87368 23.7515 3.46581C23.4507 3.29462 23.2799 3.10469 22.6974 2.89235C22.1149 2.68002 22.1881 2.76141 21.8873 2.59021C21.6466 2.45325 21.5253 2.60491 21.4948 2.69786L21.0621 3.08714C20.8728 3.25745 20.7376 3.37911 20.6162 3.73374C20.4949 4.08837 19.8083 4.90248 19.4428 4.98579C19.0774 5.0691 18.7845 4.74352 18.7033 4.81651C18.6222 4.8895 18.1479 4.57984 17.8471 4.40864C17.5462 4.23745 17.4189 4.20471 17.3107 4.30203C17.2026 4.39935 16.5291 4.95615 16.4453 5.0806C16.3783 5.18017 15.9276 5.95551 15.7106 6.33074L14.6018 7.32828C14.4844 7.27028 14.2046 7.12603 14.0246 7.01302C13.8446 6.90001 13.5595 6.85868 13.4395 6.85214L12.2192 7.50818L11.1005 9.20186L11.3118 11.1228L11.1582 11.6047L10.9478 12.1867L11.0461 12.7855L11.2692 13.4685L10.8635 13.8335L9.87869 14.4249L9.90715 15.3812L10.2331 16.0698L9.94685 16.6219L10.3381 17.5463L10.16 18.001L9.82235 18.5503L9.63112 19.2624L10.1681 19.8593L11.2025 19.8124L11.8443 19.8731C11.8538 20.1919 11.8609 20.8597 11.8134 20.981C11.7659 21.1022 11.6732 21.369 11.6327 21.4872L11.2634 22.654L10.937 23.4877L10.947 24.8042L10.0026 27.1267L10.0832 28.576C9.94448 28.7663 9.64538 29.1663 9.55884 29.2441L9.15319 29.6091C9.01797 29.7308 8.80355 29.3836 8.53241 29.1366C8.3155 28.9391 7.99785 28.9957 7.86615 29.0488L6.94667 29.876L7.01797 30.4991L6.72119 31.2571L6.12553 31.302L5.63874 31.74C5.55147 31.9331 5.36993 32.3549 5.34197 32.4979C5.31402 32.6409 5.34706 32.9024 5.36708 33.0153L5.83087 33.5309L6.12713 34.2953L5.89498 34.7987L5.38115 35.261C5.16481 35.4556 5.08215 35.7263 5.06787 35.8374L5.39644 36.4745C5.63504 36.6853 6.10576 37.1324 6.07991 37.2342C6.0476 37.3615 5.88342 38.0492 5.8511 38.1765C5.81879 38.3037 5.92311 39.2899 5.88817 39.4686C5.85322 39.6473 6.2306 40.3388 6.16335 40.6448C6.09609 40.9507 6.70036 41.2417 6.77359 41.3231L7.31061 41.92C7.38671 42.1133 7.54063 42.5672 7.54752 42.8359C7.55441 43.1047 7.72939 43.1469 7.81603 43.1344L8.79961 43.575C8.93067 43.7026 9.20692 43.9842 9.26339 44.0905C9.31987 44.1968 9.80369 44.4554 10.0385 44.5714L11.8492 43.9733L13.2167 43.9703L14.0242 44.3239L14.6825 44.5662C14.7452 44.8535 14.8327 45.462 14.6813 45.5983C14.5299 45.7345 14.846 45.9083 15.023 45.9781L16.1471 46.1941L16.7421 45.6589L17.0633 44.9281L17.7427 44.7586L18.4994 45.5997L19.415 45.856L19.5595 46.5606L20.3268 47.1958L23.3097 46.3777L24.0939 45.6721L25.1039 45.5981L25.3387 45.0432L26.4745 44.0214L26.541 43.2251L26.8273 42.673L27.568 41.8103C27.5341 41.4644 27.4771 40.7629 27.5204 40.7239C27.5637 40.685 27.5903 40.3665 27.5982 40.2121L27.8957 39.9445L28.2908 39.7854L29.0408 39.7488L29.2241 39.1911L30.0823 39.0572L30.4741 38.4593L30.8467 37.7313L31.5288 37.5104L32.0843 37.7471L32.3422 38.2514L32.7572 38.7126L33.4941 38.9334L34.157 38.5824L34.4545 38.3148L35.0066 38.1126L35.4208 38.0836L35.9928 38.5018L36.5997 38.7413L37.4223 38.2958L37.4723 37.318L37.5527 36.7547L38.0665 36.2924L39.0336 36.5515L39.8622 36.4934L40.4782 35.5465L41.3323 34.4834L41.2314 33.9361L41.2577 33.4215L41.9886 33.2548L43.0466 32.7448L42.943 32.2489L42.3083 31.5435L42.3644 30.953L42.4659 29.9781L42.8167 29.1715L43.5199 28.5389L43.4756 27.8914L42.9874 27.3488L41.9069 27.2899L41.445 26.2327L40.0292 24.659L39.3682 24.4682L38.5694 24.4505L37.452 25.1121L36.2363 25.175L35.5509 24.957L35.504 24.361L34.9914 23.7912L34.4036 23.6818Z" stroke="white" stroke-width="2"/>
</g>
<defs>
<filter id="filter0_df" x="0.036377" y="0.534912" width="48.5144" height="55.7627" filterUnits="userSpaceOnUse" color-interpolation-filters="sRGB">
<feFlood flood-opacity="0" result="BackgroundImageFix"/>
<feColorMatrix in="SourceAlpha" type="matrix" values="0 0 0 0 0 0 0 0 0 0 0 0 0 0 0 0 0 0 127 0"/>
<feOffset dy="4"/>
<feGaussianBlur stdDeviation="2"/>
<feColorMatrix type="matrix" values="0 0 0 0 0 0 0 0 0 0 0 0 0 0 0 0 0 0 0.45 0"/>
<feBlend mode="normal" in2="BackgroundImageFix" result="effect1_dropShadow"/>
<feBlend mode="normal" in="SourceGraphic" in2="effect1_dropShadow" result="shape"/>
<feGaussianBlur stdDeviation="0.5" result="effect2_foregroundBlur"/>
</filter>
</defs>
</svg>
