<svg width="72" height="72" viewBox="0 0 72 72" fill="none" xmlns="http://www.w3.org/2000/svg">
<g filter="url(#filter0_df)">
<path d="M48.741 30.6818L47.4487 30.2244L47.0522 29.4029L47.1788 28.9454L47.5713 28.8377L47.9558 28.8845C48.1434 28.7485 48.5628 28.4169 48.7401 28.1789C48.9174 27.9408 48.7106 27.7472 48.585 27.6802L48.1213 27.1647C47.9846 27.0127 47.6958 26.9093 47.5684 26.8765L47.0546 27.3388C46.9464 27.4361 46.5705 27.7253 46.5949 27.7524C46.6144 27.7741 46.3251 27.8152 46.178 27.8329C45.9946 27.7197 45.5676 27.4591 45.327 27.3222C45.0863 27.1852 44.6128 27.1628 44.4061 27.1688C44.1383 27.3606 43.5929 27.7335 43.5538 27.6901C43.5148 27.6466 43.173 27.7381 43.007 27.7893L42.3723 27.0839L41.5668 26.1885L41.1763 25.7544C41.0254 25.6774 40.6944 25.4908 40.5773 25.3605C40.4601 25.2303 40.1546 25.2171 40.0165 25.2268L39.4182 25.3232L39.0937 25.6152C38.9423 25.7514 38.4875 25.866 38.2791 25.9063L37.9861 25.5807L38.1747 24.9201L38.2466 24.0209L37.856 23.5868L37.5631 23.2612L38.0875 22.5931L38.5742 22.1551L38.7576 21.5974L39.0115 21.1726L39.6869 20.0741L40.0727 19.0888L40.4408 18.954L41.2013 18.7116L41.7692 18.2006L41.9315 18.0547L41.6142 17.7019L41.3562 17.1976L41.5587 16.77L41.8021 16.551L42.682 16.4957L43.2262 16.448L43.6589 16.0587C43.8351 16.1457 44.2177 16.3317 44.3391 16.3796C44.4605 16.4274 44.8734 16.357 45.0647 16.3159L46.1359 15.5485L46.6227 15.1105L47.5647 14.8522L48.2216 14.1139L48.2829 13.4205L47.9893 12.6047C47.8655 12.5033 47.5826 12.2832 47.4417 12.2136C47.2656 12.1266 46.5584 11.8301 46.4093 11.7188C46.29 11.6297 45.8591 11.3792 45.6586 11.265L45.1605 11.4185L44.1078 11.8257L44.0774 11.4112L43.5179 10.2454C43.3644 10.2198 43.0173 10.1459 42.8569 10.0546C42.6564 9.94042 42.0336 10.0097 41.8984 10.1314C41.7632 10.253 41.1517 10.6068 40.8186 10.5628C40.4855 10.5189 40.2639 10.8165 39.5897 10.883C38.9155 10.9495 38.9452 10.8737 38.0889 10.4658C37.7881 10.2946 37.6173 10.1047 37.0348 9.89235C36.4523 9.68001 36.5255 9.7614 36.2247 9.59021C35.984 9.45325 35.8627 9.60491 35.8322 9.69785L35.3995 10.0871C35.2102 10.2574 35.075 10.3791 34.9536 10.7337C34.8323 11.0884 34.1457 11.9025 33.7802 11.9858C33.4148 12.0691 33.1219 11.7435 33.0407 11.8165C32.9596 11.8895 32.4853 11.5798 32.1845 11.4086C31.8836 11.2374 31.7563 11.2047 31.6481 11.302C31.54 11.3993 30.8665 11.9561 30.7827 12.0806C30.7157 12.1802 30.265 12.9555 30.048 13.3307L28.9392 14.3283C28.8218 14.2703 28.542 14.126 28.362 14.013C28.182 13.9 27.8969 13.8587 27.7769 13.8521L26.5566 14.5082L25.4379 16.2019L25.6492 18.1228L25.4956 18.6047L25.2852 19.1867L25.3835 19.7855L25.6066 20.4685L25.2009 20.8335L24.2161 21.4249L24.2445 22.3812L24.5705 23.0698L24.2842 23.6219L24.6755 24.5463L24.4974 25.001L24.1598 25.5503L23.9685 26.2624L24.5055 26.8593L25.5399 26.8124L26.1817 26.8731C26.1912 27.1919 26.1983 27.8597 26.1508 27.981C26.1033 28.1022 26.0106 28.369 25.9701 28.4872L25.6008 29.654L25.2744 30.4877L25.2844 31.8042L24.34 34.1267L24.4206 35.576C24.2819 35.7663 23.9828 36.1663 23.8962 36.2441L23.4906 36.6091C23.3554 36.7307 23.141 36.3836 22.8698 36.1366C22.6529 35.9391 22.3353 35.9957 22.2035 36.0488L21.7979 36.4137L21.2841 36.876L21.3554 37.4991L21.0586 38.2571L20.4629 38.302L19.9761 38.74C19.8889 38.9331 19.7073 39.3549 19.6794 39.4979C19.6514 39.6409 19.6845 39.9024 19.7045 40.0153L20.1683 40.5308L20.4645 41.2953L20.2324 41.7987L19.7185 42.261C19.5022 42.4556 19.4196 42.7263 19.4053 42.8374L19.7338 43.4745C19.9724 43.6853 20.4432 44.1324 20.4173 44.2342C20.385 44.3615 20.2208 45.0492 20.1885 45.1765C20.1562 45.3037 20.2605 46.2899 20.2256 46.4686C20.1906 46.6473 20.568 47.3388 20.5007 47.6447C20.4335 47.9507 21.0378 48.2416 21.111 48.323L21.648 48.9199C21.7241 49.1133 21.878 49.5672 21.8849 49.8359C21.8918 50.1047 22.0668 50.1469 22.1534 50.1344L23.137 50.575C23.2681 50.7026 23.5443 50.9842 23.6008 51.0905C23.6573 51.1968 24.1411 51.4554 24.3759 51.5714L26.1866 50.9733L27.5541 50.9703L28.3616 51.3239L29.0199 51.5662C29.0826 51.8534 29.1701 52.462 29.0187 52.5983C28.8673 52.7345 29.1834 52.9083 29.3604 52.9781L30.4845 53.1941L31.0795 52.6589L31.4007 51.9281L32.0801 51.7586L32.4706 52.1927L32.8368 52.5997L33.7524 52.856L33.8969 53.5606L34.6642 54.1958L37.6471 53.3777L38.4313 52.6721L39.4413 52.5981L39.6761 52.0432L40.2169 51.5566L40.8119 51.0214L40.8784 50.2251L41.1647 49.673L41.9054 48.8103C41.8715 48.4644 41.8145 47.7629 41.8578 47.7239C41.9011 47.685 41.9277 47.3665 41.9356 47.2121L42.2331 46.9445L42.6282 46.7854L43.3782 46.7488L43.5615 46.1911L44.4197 46.0572L44.8115 45.4593L45.1841 44.7313L45.8662 44.5104L46.4217 44.7471L46.6796 45.2514L47.0946 45.7126L47.8315 45.9334L48.4944 45.5824L48.7919 45.3148L49.344 45.1126L49.7582 45.0836L50.3302 45.5018L50.9371 45.7412L51.7597 45.2958L51.8097 44.318L51.8901 43.7547L52.4039 43.2924L53.371 43.5515L54.1996 43.4934L54.8156 42.5465L55.6697 41.4834L55.5688 40.9361L55.5951 40.4215L56.326 40.2548L57.384 39.7448L57.2804 39.2489L56.6457 38.5435L56.7018 37.953L56.8033 36.9781L57.1541 36.1715L57.8572 35.5389L57.813 34.8914L57.3248 34.3488L56.2443 34.2899L55.7824 33.2327L54.3666 31.659L53.7056 31.4682L52.9068 31.4505L51.7894 32.1121L50.5737 32.175L49.8883 31.957L49.8414 31.361L49.3288 30.7912L48.741 30.6818Z" fill="white"/>
<path d="M48.741 30.6818L47.4487 30.2244L47.0522 29.4029L47.1788 28.9454L47.5713 28.8377L47.9558 28.8845C48.1434 28.7485 48.5628 28.4169 48.7401 28.1789C48.9174 27.9408 48.7106 27.7472 48.585 27.6802L48.1213 27.1647C47.9846 27.0127 47.6958 26.9093 47.5684 26.8765L47.0546 27.3388C46.9464 27.4361 46.5705 27.7253 46.5949 27.7524C46.6144 27.7741 46.3251 27.8152 46.178 27.8329C45.9946 27.7197 45.5676 27.4591 45.327 27.3222C45.0863 27.1852 44.6128 27.1628 44.4061 27.1688C44.1383 27.3606 43.5929 27.7335 43.5538 27.6901C43.5148 27.6466 43.173 27.7381 43.007 27.7893L42.3723 27.0839L41.5668 26.1885L41.1763 25.7544C41.0254 25.6774 40.6944 25.4908 40.5773 25.3605C40.4601 25.2303 40.1546 25.2171 40.0165 25.2268L39.4182 25.3232L39.0937 25.6152C38.9423 25.7514 38.4875 25.866 38.2791 25.9063L37.9861 25.5807L38.1747 24.9201L38.2466 24.0209L37.856 23.5868L37.5631 23.2612L38.0875 22.5931L38.5742 22.1551L38.7576 21.5974L39.0115 21.1726L39.6869 20.0741L40.0727 19.0888L40.4408 18.954L41.2013 18.7116L41.7692 18.2006L41.9315 18.0547L41.6142 17.7019L41.3562 17.1976L41.5587 16.77L41.8021 16.551L42.682 16.4957L43.2262 16.448L43.6589 16.0587C43.8351 16.1457 44.2177 16.3317 44.3391 16.3796C44.4605 16.4274 44.8734 16.357 45.0647 16.3159L46.1359 15.5485L46.6227 15.1105L47.5647 14.8522L48.2216 14.1139L48.2829 13.4205L47.9893 12.6047C47.8655 12.5033 47.5826 12.2832 47.4417 12.2136C47.2656 12.1266 46.5584 11.8301 46.4093 11.7188C46.29 11.6297 45.8591 11.3792 45.6586 11.265L45.1605 11.4185L44.1078 11.8257L44.0774 11.4112L43.5179 10.2454C43.3644 10.2198 43.0173 10.1459 42.8569 10.0546C42.6564 9.94042 42.0336 10.0097 41.8984 10.1314C41.7632 10.253 41.1517 10.6068 40.8186 10.5628C40.4855 10.5189 40.2639 10.8165 39.5897 10.883C38.9155 10.9495 38.9452 10.8737 38.0889 10.4658C37.7881 10.2946 37.6173 10.1047 37.0348 9.89235C36.4523 9.68001 36.5255 9.7614 36.2247 9.59021C35.984 9.45325 35.8627 9.60491 35.8322 9.69785L35.3995 10.0871C35.2102 10.2574 35.075 10.3791 34.9536 10.7337C34.8323 11.0884 34.1457 11.9025 33.7802 11.9858C33.4148 12.0691 33.1219 11.7435 33.0407 11.8165C32.9596 11.8895 32.4853 11.5798 32.1845 11.4086C31.8836 11.2374 31.7563 11.2047 31.6481 11.302C31.54 11.3993 30.8665 11.9561 30.7827 12.0806C30.7157 12.1802 30.265 12.9555 30.048 13.3307L28.9392 14.3283C28.8218 14.2703 28.542 14.126 28.362 14.013C28.182 13.9 27.8969 13.8587 27.7769 13.8521L26.5566 14.5082L25.4379 16.2019L25.6492 18.1228L25.4956 18.6047L25.2852 19.1867L25.3835 19.7855L25.6066 20.4685L25.2009 20.8335L24.2161 21.4249L24.2445 22.3812L24.5705 23.0698L24.2842 23.6219L24.6755 24.5463L24.4974 25.001L24.1598 25.5503L23.9685 26.2624L24.5055 26.8593L25.5399 26.8124L26.1817 26.8731C26.1912 27.1919 26.1983 27.8597 26.1508 27.981C26.1033 28.1022 26.0106 28.369 25.9701 28.4872L25.6008 29.654L25.2744 30.4877L25.2844 31.8042L24.34 34.1267L24.4206 35.576C24.2819 35.7663 23.9828 36.1663 23.8962 36.2441L23.4906 36.6091C23.3554 36.7307 23.141 36.3836 22.8698 36.1366C22.6529 35.9391 22.3353 35.9957 22.2035 36.0488L21.7979 36.4137L21.2841 36.876L21.3554 37.4991L21.0586 38.2571L20.4629 38.302L19.9761 38.74C19.8889 38.9331 19.7073 39.3549 19.6794 39.4979C19.6514 39.6409 19.6845 39.9024 19.7045 40.0153L20.1683 40.5308L20.4645 41.2953L20.2324 41.7987L19.7185 42.261C19.5022 42.4556 19.4196 42.7263 19.4053 42.8374L19.7338 43.4745C19.9724 43.6853 20.4432 44.1324 20.4173 44.2342C20.385 44.3615 20.2208 45.0492 20.1885 45.1765C20.1562 45.3037 20.2605 46.2899 20.2256 46.4686C20.1906 46.6473 20.568 47.3388 20.5007 47.6447C20.4335 47.9507 21.0378 48.2416 21.111 48.323L21.648 48.9199C21.7241 49.1133 21.878 49.5672 21.8849 49.8359C21.8918 50.1047 22.0668 50.1469 22.1534 50.1344L23.137 50.575C23.2681 50.7026 23.5443 50.9842 23.6008 51.0905C23.6573 51.1968 24.1411 51.4554 24.3759 51.5714L26.1866 50.9733L27.5541 50.9703L28.3616 51.3239L29.0199 51.5662C29.0826 51.8534 29.1701 52.462 29.0187 52.5983C28.8673 52.7345 29.1834 52.9083 29.3604 52.9781L30.4845 53.1941L31.0795 52.6589L31.4007 51.9281L32.0801 51.7586L32.4706 52.1927L32.8368 52.5997L33.7524 52.856L33.8969 53.5606L34.6642 54.1958L37.6471 53.3777L38.4313 52.6721L39.4413 52.5981L39.6761 52.0432L40.2169 51.5566L40.8119 51.0214L40.8784 50.2251L41.1647 49.673L41.9054 48.8103C41.8715 48.4644 41.8145 47.7629 41.8578 47.7239C41.9011 47.685 41.9277 47.3665 41.9356 47.2121L42.2331 46.9445L42.6282 46.7854L43.3782 46.7488L43.5615 46.1911L44.4197 46.0572L44.8115 45.4593L45.1841 44.7313L45.8662 44.5104L46.4217 44.7471L46.6796 45.2514L47.0946 45.7126L47.8315 45.9334L48.4944 45.5824L48.7919 45.3148L49.344 45.1126L49.7582 45.0836L50.3302 45.5018L50.9371 45.7412L51.7597 45.2958L51.8097 44.318L51.8901 43.7547L52.4039 43.2924L53.371 43.5515L54.1996 43.4934L54.8156 42.5465L55.6697 41.4834L55.5688 40.9361L55.5951 40.4215L56.326 40.2548L57.384 39.7448L57.2804 39.2489L56.6457 38.5435L56.7018 37.953L56.8033 36.9781L57.1541 36.1715L57.8572 35.5389L57.813 34.8914L57.3248 34.3488L56.2443 34.2899L55.7824 33.2327L54.3666 31.659L53.7056 31.4682L52.9068 31.4505L51.7894 32.1121L50.5737 32.175L49.8883 31.957L49.8414 31.361L49.3288 30.7912L48.741 30.6818Z" stroke="white" stroke-width="2"/>
</g>
<defs>
<filter id="filter0_df" x="0.903809" y="0.544189" width="70.72" height="71.4013" filterUnits="userSpaceOnUse" color-interpolation-filters="sRGB">
<feFlood flood-opacity="0" result="BackgroundImageFix"/>
<feColorMatrix in="SourceAlpha" type="matrix" values="0 0 0 0 0 0 0 0 0 0 0 0 0 0 0 0 0 0 127 0"/>
<feOffset dy="4"/>
<feGaussianBlur stdDeviation="2"/>
<feColorMatrix type="matrix" values="0 0 0 0 0 0 0 0 0 0 0 0 0 0 0 0 0 0 0.25 0"/>
<feBlend mode="normal" in2="BackgroundImageFix" result="effect1_dropShadow"/>
<feBlend mode="normal" in="SourceGraphic" in2="effect1_dropShadow" result="shape"/>
<feGaussianBlur stdDeviation="0.5" result="effect2_foregroundBlur"/>
</filter>
</defs>
</svg>
