<svg width="40" height="56" viewBox="0 0 40 56" fill="none" xmlns="http://www.w3.org/2000/svg">
<g filter="url(#filter0_df)">
<path d="M11.2447 9.10441L11.3415 8.92901C11.4451 8.74134 11.5864 8.57714 11.7566 8.44674C12.1401 8.15275 12.3561 7.69608 12.3977 7.21459C12.4285 6.8586 12.4847 6.51876 12.5817 6.41069C13.1654 5.75995 13.8912 5.23343 14.7654 5.23343H14.8717H15.3977H16.0859C16.4185 5.23343 16.7379 5.10344 16.976 4.8712L17.6877 4.26748C17.8837 4.08636 18.3314 3.72413 18.5542 3.72413H20.1324C20.8132 3.72413 20.7823 3.72413 21.7725 3.42227C22.7628 3.1204 22.9175 2.90911 23.2579 2.42613C23.3421 2.30671 23.5191 2.21881 23.7409 2.15496C24.7842 1.85456 25.8917 2.14531 26.9405 2.42613C27.4459 2.52675 28.5249 2.76422 28.7972 2.90911C29.1376 3.09023 29.7256 3.39209 30.2207 3.72413C30.7158 4.05618 32.1084 4.41841 32.5107 4.59953C32.913 4.78064 33.3462 5.02213 33.47 5.23343C33.4774 5.24602 33.486 5.26124 33.4958 5.27877C33.8771 5.96024 33.9592 6.7677 33.7795 7.52757L33.4436 8.3935C33.3788 8.56052 33.3277 8.73257 33.291 8.90791L33.1558 9.55249C33.0986 9.82532 33.1308 10.1093 33.2475 10.3625C33.3128 10.5039 33.352 10.6559 33.3634 10.8113L33.3792 11.0266C33.3982 11.286 33.3534 11.5461 33.2488 11.7842L33.1371 12.0384C33.0149 12.3166 33.2391 12.68 33.0677 12.9309C32.9761 13.065 33.0464 13.2575 33.0042 13.4143C32.98 13.5043 32.9564 13.5886 32.9439 13.6252C32.913 13.7157 32.882 13.927 32.882 14.0779C32.882 14.2289 32.882 14.1987 32.8201 14.2289C32.7582 14.2591 32.6035 14.4402 32.5107 14.6515C32.4364 14.8205 32.4797 14.9433 32.5107 14.9835L32.882 15.4665C33.0161 15.6275 33.2967 15.9616 33.3462 16.0099C33.4081 16.0702 33.5319 16.3419 33.6557 16.523C33.7795 16.7041 33.7176 16.8853 33.6557 17.0664C33.5938 17.2475 33.47 17.3984 33.4081 17.5192C33.3462 17.6399 33.0677 17.8512 32.882 18.0021C32.7617 18.0999 32.8988 18.2865 32.9231 18.4397C32.9495 18.6065 32.9749 18.7715 32.9749 18.787C32.9749 19.1467 33.3015 19.4241 33.5279 19.7037C33.574 19.7607 33.6179 19.8184 33.6557 19.8737C33.8413 20.1453 33.7795 20.1755 33.7795 20.2963C33.7795 20.417 33.7176 20.5679 33.6557 20.7189C33.5938 20.8698 33.5628 20.8698 33.47 21.0207C33.3772 21.1717 33.439 21.1113 33.3462 21.3226C33.2534 21.5339 33.3462 21.5339 33.3462 21.6848C33.3462 21.8358 33.2224 21.8961 33.0677 22.0169C32.913 22.1376 32.8201 22.198 32.5726 22.2886C32.325 22.3791 32.2631 22.4093 32.1084 22.4395C31.9529 22.4698 32.1324 22.7002 32.1781 22.8518L32.1848 22.8741C32.2361 23.0443 32.2496 23.228 32.181 23.392C32.1594 23.4438 32.1348 23.4918 32.1084 23.5262C32.0341 23.6228 32.0774 23.828 32.1084 23.9186C32.1683 24.055 32.2747 24.1658 32.4087 24.2311L32.6345 24.3412C32.6964 24.3714 32.8511 24.5223 32.913 24.6129C32.9749 24.7034 33.0368 24.9147 33.1605 25.0355C33.272 25.1442 33.4302 25.1625 33.5852 25.1766C33.6087 25.1787 33.6323 25.1819 33.6557 25.1864C33.8104 25.2166 33.9961 25.4279 33.9961 25.5486C33.9961 25.7636 34.1449 25.9755 34.0604 26.1731C34.0436 26.2124 34.0225 26.2473 33.9961 26.2731C33.9618 26.3065 33.9463 26.3385 33.9424 26.3673C33.9305 26.4556 34.0193 26.5241 34.0643 26.601C34.1011 26.6637 34.1481 26.7198 34.2034 26.767L34.3674 26.907L34.634 27.0928C34.7437 27.1692 34.8346 27.2695 34.8998 27.3862C34.9569 27.4883 34.9954 27.6007 34.9992 27.7177C35.0015 27.7918 34.9994 27.865 34.9863 27.9032C34.9554 27.9937 34.9244 28.0541 34.8626 28.1748L34.8625 28.1748C34.8007 28.2956 34.7388 28.2956 34.584 28.4163C34.4293 28.5371 34.5221 28.5371 34.5221 28.6578C34.5221 28.8177 34.5464 28.9774 34.6077 29.1251C34.65 29.2271 34.6984 29.3297 34.7388 29.3823C34.8316 29.503 34.8625 29.7143 34.8625 29.7747C34.8625 29.8351 34.8316 30.0162 34.8007 30.1067C34.7253 30.3274 34.5151 30.4674 34.2944 30.5426C34.2098 30.5714 34.1407 30.5996 34.1199 30.6199C34.088 30.651 33.986 30.6504 33.8898 30.6406C33.8008 30.6316 33.7103 30.6572 33.6462 30.7197C33.6119 30.7532 33.587 30.7952 33.574 30.8414L33.5009 31.1029L33.4856 31.1521C33.3516 31.5816 33.306 32.0355 33.1605 32.4612C33.1296 32.5518 33.0986 32.7329 33.0368 32.8235C32.9749 32.914 32.7582 33.0046 32.6654 33.065C32.5726 33.1253 32.4798 33.2159 32.4179 33.2763L32.4178 33.2763L32.416 33.2781C32.3107 33.3851 32.3574 33.5614 32.4178 33.6989C32.4488 33.7794 32.5231 33.9524 32.5726 34.0007C32.6345 34.0611 32.6654 34.1819 32.6654 34.2422C32.6654 34.4711 32.7887 34.6702 32.7589 34.8971C32.7585 34.9006 32.7582 34.9037 32.7582 34.9063C32.7582 35.0583 32.6654 35.1981 32.6654 35.3501V35.4287C32.6654 35.5028 32.6729 35.5768 32.6878 35.6495L32.7582 35.993C32.7995 36.1439 32.882 36.4518 32.882 36.476V36.7052C32.882 36.9879 32.8576 37.3482 32.6035 37.4721C32.5416 37.5023 32.4178 37.6532 32.325 37.7438C32.2322 37.8344 32.0465 37.8947 31.9227 37.9853C31.7139 38.1381 31.8342 38.5074 31.6775 38.7134C31.6349 38.7694 31.5996 38.8137 31.5823 38.8305C31.5328 38.8788 31.2522 38.8909 31.1181 38.8909H31.0754C30.8272 38.8909 30.5774 38.9878 30.4373 39.1927C30.2834 39.4179 30.0488 39.6136 29.7777 39.6442C29.7702 39.6451 29.7631 39.6455 29.7565 39.6455H29.7453C29.5905 39.6455 29.4471 39.7361 29.2923 39.7361C29.2304 39.7361 28.9829 39.9474 28.8281 40.0379C28.6734 40.1285 28.6115 40.1587 28.5496 40.1587C28.4877 40.1587 28.1783 40.1889 28.0545 40.1587C27.9307 40.1285 27.9617 40.0983 27.8688 40.0379C27.776 39.9776 27.7141 39.8266 27.5903 39.7361C27.4665 39.6455 27.3737 39.6455 27.219 39.6455C27.0642 39.6455 26.8786 39.4946 26.7548 39.4946C26.6979 39.4946 26.618 39.5278 26.5465 39.5655C26.4609 39.6108 26.4144 39.7032 26.4144 39.8001C26.4144 39.8178 26.416 39.8354 26.4191 39.8528L26.5072 40.3398L26.6083 40.9809C26.6231 41.0743 26.6078 41.17 26.5646 41.2541C26.5271 41.3274 26.47 41.3888 26.3997 41.4317L26.3476 41.4634C26.2893 41.499 26.226 41.5257 26.1592 41.54C26.0732 41.5584 25.9703 41.5774 25.9193 41.5774C25.8264 41.5774 25.7336 41.4567 25.6407 41.3661C25.5479 41.2756 25.4551 41.3661 25.4241 41.2454C25.3932 41.1246 25.2385 41.185 25.1147 41.1246C25.1039 41.1194 25.0927 41.1155 25.0814 41.1128C24.911 41.0726 24.7303 41.2104 24.6505 41.3661C24.5886 41.4869 24.4648 41.5472 24.4648 41.6378C24.4648 41.7284 24.341 41.7586 24.1863 41.7586C24.0316 41.7586 24.0625 41.8189 23.8768 41.8189C23.6912 41.8189 23.6602 41.6982 23.5364 41.6982H23.0723C22.8453 41.6982 22.7865 41.9998 22.701 42.21C22.6907 42.2353 22.6802 42.2567 22.67 42.2717C22.6081 42.3623 22.67 42.5132 22.67 42.5736C22.67 42.5815 22.6672 42.5951 22.6622 42.6127C22.5891 42.8747 22.4314 43.1081 22.2367 43.298C22.1748 43.3584 22.0201 43.298 21.9273 43.298H21.4321C21.2465 43.298 21.1846 43.4188 21.1536 43.449C21.1227 43.4792 20.8751 43.6603 20.8751 43.781C20.8751 43.9321 20.8794 44.098 20.9895 44.2014C21.0607 44.2682 21.1343 44.33 21.1846 44.3545L21.1991 44.3616C21.3524 44.4364 21.5576 44.5341 21.6797 44.4149C21.7959 44.3016 21.989 44.2769 22.0494 44.1263C22.0636 44.0911 22.0752 44.0557 22.082 44.0225C22.087 43.9979 22.0965 43.9745 22.1088 43.9526C22.192 43.8053 22.3449 43.7037 22.4317 43.5585L22.4798 43.478C22.5032 43.4389 22.5337 43.4044 22.5697 43.3763C22.6347 43.3256 22.7147 43.298 22.7972 43.298H22.9794H23.0358C23.2212 43.298 23.4519 43.2819 23.5364 43.1169C23.6211 42.9519 23.878 42.9962 24.0635 42.9962H24.341C24.5703 42.9962 24.7817 42.8722 24.8936 42.6721L24.8981 42.6641C24.9496 42.5333 25.0652 42.2536 25.1147 42.1812C25.1391 42.1453 25.21 42.0785 25.2891 42.0092C25.4276 41.8879 25.6225 41.8585 25.7949 41.9232C25.8765 41.9538 25.9492 42.0043 26.0063 42.0702L26.2597 42.3623C26.3731 42.4629 26.6063 42.6822 26.631 42.7547C26.662 42.8452 26.8786 42.6641 26.934 42.5736C26.9893 42.483 26.9405 42.3623 26.9714 42.2717C27.0024 42.1812 26.9095 41.9095 26.8786 41.6982C26.8476 41.4869 26.8786 41.5472 27.0642 41.3661C27.2499 41.185 27.1571 41.2454 27.2809 41.185C27.4046 41.1246 27.4975 41.1548 27.7141 41.185C27.9307 41.2152 28.0545 41.2152 28.0545 41.2454C28.0545 41.4588 28.3342 41.5676 28.439 41.7536C28.4745 41.8165 28.5126 41.8734 28.5496 41.9095C28.6734 42.0302 28.5496 42.0906 28.6115 42.1812C28.661 42.2536 28.7766 42.2717 28.8281 42.2717H29.1685C29.3233 42.2717 29.4161 42.2717 29.6018 42.3623C29.7875 42.4528 29.7256 42.3623 29.8803 42.483C30.035 42.6038 30.066 42.6038 30.2516 42.5736C30.4373 42.5434 30.4064 42.5132 30.4992 42.483C30.5921 42.4528 30.7777 42.4226 30.9943 42.3623C31.1549 42.3175 31.2789 42.4897 31.1695 42.6156C31.1505 42.6375 31.1329 42.6545 31.1181 42.6641C31.0253 42.7245 30.8706 42.9056 30.623 42.9962C30.3754 43.0867 30.3754 43.2075 30.2516 43.4188C30.1279 43.6301 30.035 43.5999 29.9422 43.781C29.8494 43.9621 29.6637 43.9018 29.6018 43.9018C29.5399 43.9018 29.1067 44.0225 29.0138 44.0225H28.5496C28.3813 44.0225 28.3102 43.7868 28.3969 43.6426C28.4059 43.6277 28.4155 43.6133 28.4259 43.5999C28.5187 43.4792 28.4259 43.2075 28.4259 43.1169C28.4259 43.0264 28.1783 42.9056 28.0545 42.8452C27.9555 42.797 27.7038 42.8654 27.5903 42.9056L27.57 42.9099C27.2954 42.9673 27.0353 43.1169 26.7548 43.1169H26.074C25.8264 43.1169 25.6407 43.3584 25.5789 43.4188C25.517 43.4791 25.3932 43.7206 25.3623 43.781L25.3622 43.781C25.3313 43.8414 25.1766 43.9319 25.1147 44.0225C25.0528 44.1131 24.8981 44.264 24.8362 44.3545C24.7743 44.4451 24.6195 44.596 24.4648 44.7168C24.3101 44.8375 24.341 44.7168 24.1863 44.7168L24.1735 44.7165C23.9921 44.7086 23.7901 44.7108 23.6602 44.8375C23.5983 44.8979 23.4746 45.0488 23.4436 45.0488C23.4127 45.0488 22.9485 45.3507 22.8866 45.3507C22.8412 45.3507 22.5849 45.182 22.4311 45.0763C22.4046 45.0581 22.3799 45.0375 22.3569 45.0151L22.1942 44.8564C22.0478 44.7136 21.8125 44.7192 21.673 44.8689C21.6367 44.9079 21.6093 44.9544 21.5929 45.0051L21.5266 45.2097C21.4651 45.4 21.3522 45.5737 21.1846 45.6827C20.9943 45.8065 20.7877 45.9156 20.667 46.1079C20.6228 46.1784 20.5847 46.2516 20.5657 46.3166C20.5161 46.4857 20.1324 46.4877 19.9467 46.4676H19.7661C19.5211 46.4676 19.2943 46.3166 19.0493 46.3166C18.8482 46.3166 18.6524 46.3806 18.4901 46.4994L18.3685 46.5883C18.2447 46.699 17.9786 46.9204 17.9043 46.9204C17.8615 46.9204 17.7203 46.8936 17.5749 46.8631C17.3818 46.8227 17.1935 46.7627 17.0104 46.6892L16.8375 46.6197C16.7855 46.5988 16.732 46.5816 16.6775 46.5684L16.6458 46.5606C16.3992 46.5005 16.1467 46.5883 15.8929 46.5883C15.7691 46.5883 15.6762 46.7996 15.5834 46.9204C15.4906 47.0411 15.3977 47.0109 15.3049 46.9204C15.2121 46.8298 15.0883 46.7392 14.9645 46.5883C14.919 46.5328 14.8542 46.4496 14.7896 46.3652C14.6607 46.197 14.4849 46.0701 14.2834 46.0046L14.2137 45.982C14.1576 45.9637 14.0989 45.9544 14.0398 45.9544C13.8622 45.9544 13.6952 45.8705 13.5886 45.7284C13.5216 45.6392 13.4552 45.551 13.4172 45.5016C13.3429 45.405 13.1387 45.079 13.0459 44.9281C12.9085 44.7175 12.6854 44.5779 12.4359 44.5465L12.0921 44.5033C11.9474 44.485 11.8117 44.4232 11.703 44.3261L11.6415 44.2711C11.5495 44.1888 11.4303 44.1432 11.3068 44.1432C11.2697 44.1432 11.2328 44.1474 11.1966 44.1555L11.0406 44.1906C10.9145 44.219 10.7835 44.2165 10.6587 44.1833C10.5594 44.1568 10.4649 44.1107 10.3827 44.049C10.2072 43.9173 10.0889 43.7192 10.0586 43.5019L10.0132 43.1773L9.9316 42.6798C9.9039 42.511 9.91836 42.3379 9.97369 42.176L9.99681 42.1084C10.067 41.903 10.0566 41.6786 9.96781 41.4805C9.91618 41.3654 9.83996 41.2631 9.74374 41.1815C9.46688 40.9468 9.07485 40.6217 8.99199 40.5813C8.90372 40.5382 8.75972 40.2202 8.67834 40.0162C8.66014 39.9706 8.63758 39.9269 8.60987 39.8863C8.51768 39.7515 8.47725 39.5833 8.53441 39.4302C8.56519 39.3478 8.60468 39.2687 8.65159 39.2229C8.77537 39.1022 8.80631 38.8607 8.80631 38.7701V38.4381V38.4194C8.80631 38.2522 8.83709 38.0864 8.8971 37.9302C8.95978 37.7672 9.05248 37.6171 9.17538 37.493C9.28031 37.387 9.40003 37.2713 9.48712 37.2005C9.5547 37.1455 9.72906 36.9474 9.78563 36.8812L10.0587 36.5616C10.0898 36.5252 10.1116 36.4818 10.1222 36.4351L10.2298 35.9628L10.2959 35.7837C10.4236 35.4379 10.7531 35.2082 11.1218 35.2082H11.1975C11.233 35.2082 11.2683 35.203 11.3023 35.1928L11.624 35.0962C11.7944 35.0451 11.8269 34.818 11.6778 34.721C11.5795 34.6571 11.553 34.5248 11.6192 34.428L11.947 33.9483C12.0178 33.8448 12.0556 33.7224 12.0556 33.597C12.0556 33.3476 12.2045 33.1222 12.4339 33.0243L12.9877 32.7879C13.0261 32.7716 13.0674 32.7631 13.1091 32.7631C13.3373 32.7631 13.4869 32.5242 13.3872 32.3189L13.2027 31.939C13.1068 31.7415 12.9064 31.616 12.6868 31.616H12.6149C12.4535 31.616 12.2972 31.5593 12.1734 31.4558L11.5871 30.9656C11.5299 30.9178 11.4577 30.8916 11.3832 30.8916H11.3735C11.2033 30.8916 11.0653 30.7536 11.0653 30.5834C11.0653 30.5096 11.0918 30.4382 11.14 30.3823L12.0741 29.2975C12.2618 29.0796 12.3651 28.8015 12.3651 28.5138C12.3651 28.2178 12.2557 27.9322 12.0581 27.7119L11.4986 27.0881L11.2754 26.8393C11.1417 26.6903 10.951 26.6052 10.7508 26.6052C10.5937 26.6052 10.4411 26.5527 10.3172 26.456L10.2525 26.4055C10.0233 26.2267 9.88941 25.9523 9.88941 25.6617V25.4864C9.88941 25.3895 9.92025 25.2952 9.97745 25.2171L10.1427 24.9915C10.2945 24.7841 10.1464 24.4921 9.88941 24.4921H9.84651C9.31567 24.4921 8.80295 24.299 8.40402 23.9488L7.66133 23.4054L7.50243 23.2726C7.32856 23.1272 7.22809 22.9122 7.22809 22.6856C7.22809 22.5256 7.27827 22.3695 7.37158 22.2395L7.38461 22.2214C7.55451 21.9846 7.57776 21.6727 7.44483 21.4134L7.35941 21.2467C7.27879 21.0895 7.11693 20.9906 6.94019 20.9906C6.88499 20.9906 6.83021 20.9808 6.77836 20.9619L6.34732 20.8042C6.0316 20.6887 5.74908 20.4974 5.5246 20.2472L5.23951 19.9294C5.08529 19.7575 5 19.5346 5 19.3037C5 19.1817 5.0238 19.061 5.07006 18.9482L5.32667 18.3224C5.35569 18.2516 5.40657 18.192 5.47189 18.1521C5.67189 18.0302 5.70334 17.7524 5.53566 17.5889L5.49344 17.5477C5.41537 17.4715 5.37135 17.3671 5.37135 17.258V17.006V16.8721C5.37135 16.4591 5.55229 16.0667 5.86648 15.7986L6.05565 15.6602C6.25911 15.5113 6.44715 15.3425 6.61694 15.1561L6.66451 15.1039C6.79238 14.9636 6.93317 14.8356 7.08502 14.7217L7.43958 14.4556C7.58537 14.3462 7.70344 14.2041 7.78429 14.0408C7.97523 13.655 7.93771 13.1953 7.68673 12.8455L7.66133 12.8101L7.04241 12.0857L7.08365 12.0454C7.17601 11.9554 7.22809 11.8318 7.22809 11.7028C7.22809 11.5292 7.32208 11.3692 7.47371 11.2847L8.09456 10.9386L8.76769 10.676C8.93637 10.6101 9.11585 10.5764 9.29691 10.5764C9.67679 10.5764 10.0416 10.4279 10.3135 10.1626L10.5083 9.97264L10.7997 9.68842C10.9758 9.5166 11.1258 9.31983 11.2447 9.10441Z" fill="white"/>
<path d="M6.85674 12.2668L7.04241 12.0857M7.04241 12.0857L7.08365 12.0454C7.17601 11.9554 7.22809 11.8318 7.22809 11.7028V11.7028C7.22809 11.5292 7.32208 11.3692 7.47371 11.2847L8.09456 10.9386L8.76769 10.676C8.93637 10.6101 9.11585 10.5764 9.29691 10.5764V10.5764C9.67679 10.5764 10.0416 10.4279 10.3135 10.1626L10.5083 9.97264L10.7997 9.68842C10.9758 9.5166 11.1258 9.31983 11.2447 9.10441L11.3415 8.92901C11.4451 8.74134 11.5864 8.57714 11.7566 8.44674V8.44674C12.1401 8.15275 12.3561 7.69608 12.3977 7.21459C12.4285 6.8586 12.4847 6.51876 12.5817 6.41069V6.41069C13.1654 5.75995 13.8912 5.23343 14.7654 5.23343C14.8057 5.23343 14.8415 5.23343 14.8717 5.23343C15.1687 5.23343 15.3462 5.23343 15.3977 5.23343H16.0859C16.4185 5.23343 16.7379 5.10344 16.976 4.8712V4.8712L17.6877 4.26748C17.8837 4.08636 18.3314 3.72413 18.5542 3.72413C18.8327 3.72413 19.4516 3.72413 20.1324 3.72413C20.8132 3.72413 20.7823 3.72413 21.7725 3.42227C22.7628 3.1204 22.9175 2.90911 23.2579 2.42613C23.3421 2.30671 23.5191 2.21881 23.7409 2.15496C24.7842 1.85456 25.8917 2.14531 26.9405 2.42613V2.42613C27.4459 2.52675 28.5249 2.76422 28.7972 2.90911C29.1376 3.09023 29.7256 3.39209 30.2207 3.72413C30.7158 4.05618 32.1084 4.41841 32.5107 4.59953C32.913 4.78064 33.3462 5.02213 33.47 5.23343C33.4774 5.24602 33.486 5.26124 33.4958 5.27877C33.8771 5.96024 33.9592 6.7677 33.7795 7.52757V7.52757L33.4436 8.3935C33.3788 8.56052 33.3277 8.73257 33.291 8.90791L33.1558 9.55249C33.0986 9.82532 33.1308 10.1093 33.2475 10.3625V10.3625C33.3128 10.5039 33.352 10.6559 33.3634 10.8113L33.3792 11.0266C33.3982 11.286 33.3534 11.5461 33.2488 11.7842L33.1371 12.0384C33.0149 12.3166 33.2391 12.68 33.0677 12.9309V12.9309V12.9309C32.9761 13.065 33.0464 13.2575 33.0042 13.4143C32.98 13.5043 32.9564 13.5886 32.9439 13.6252C32.913 13.7157 32.882 13.927 32.882 14.0779C32.882 14.2289 32.882 14.1987 32.8201 14.2289C32.7582 14.2591 32.6035 14.4402 32.5107 14.6515C32.4364 14.8205 32.4797 14.9433 32.5107 14.9835L32.882 15.4665C33.0161 15.6275 33.2967 15.9616 33.3462 16.0099C33.4081 16.0702 33.5319 16.3419 33.6557 16.523C33.7795 16.7041 33.7176 16.8853 33.6557 17.0664C33.5938 17.2475 33.47 17.3984 33.4081 17.5192C33.3462 17.6399 33.0677 17.8512 32.882 18.0021V18.0021C32.7617 18.0999 32.8988 18.2865 32.9231 18.4397C32.9495 18.6065 32.9749 18.7715 32.9749 18.787V18.787C32.9749 19.1467 33.3015 19.4241 33.5279 19.7037C33.574 19.7607 33.6179 19.8184 33.6557 19.8737C33.8413 20.1453 33.7795 20.1755 33.7795 20.2963C33.7795 20.417 33.7176 20.5679 33.6557 20.7189C33.5938 20.8698 33.5628 20.8698 33.47 21.0207C33.3772 21.1717 33.439 21.1113 33.3462 21.3226C33.2534 21.5339 33.3462 21.5339 33.3462 21.6848C33.3462 21.8358 33.2224 21.8961 33.0677 22.0169C32.913 22.1376 32.8201 22.198 32.5726 22.2886C32.325 22.3791 32.2631 22.4093 32.1084 22.4395V22.4395C31.9529 22.4698 32.1324 22.7002 32.1781 22.8518L32.1848 22.8741C32.2361 23.0443 32.2496 23.228 32.181 23.392C32.1594 23.4438 32.1348 23.4918 32.1084 23.5262C32.0341 23.6228 32.0774 23.828 32.1084 23.9186V23.9186C32.1683 24.055 32.2747 24.1658 32.4087 24.2311C32.5095 24.2803 32.6062 24.3274 32.6345 24.3412C32.6964 24.3714 32.8511 24.5223 32.913 24.6129C32.9749 24.7034 33.0368 24.9147 33.1605 25.0355V25.0355C33.272 25.1442 33.4302 25.1625 33.5852 25.1766C33.6087 25.1787 33.6323 25.1819 33.6557 25.1864C33.8104 25.2166 33.9961 25.4279 33.9961 25.5486V25.5486C33.9961 25.7636 34.1449 25.9755 34.0604 26.1731C34.0436 26.2124 34.0225 26.2473 33.9961 26.2731C33.9618 26.3065 33.9463 26.3385 33.9424 26.3673C33.9305 26.4556 34.0193 26.5241 34.0643 26.601V26.601C34.1011 26.6637 34.1481 26.7198 34.2034 26.767L34.3674 26.907L34.634 27.0928C34.7437 27.1692 34.8346 27.2695 34.8998 27.3862V27.3862C34.9569 27.4883 34.9954 27.6007 34.9992 27.7177C35.0015 27.7918 34.9994 27.865 34.9863 27.9032C34.9554 27.9937 34.9244 28.0541 34.8625 28.1748C34.8007 28.2956 34.7388 28.2956 34.584 28.4163C34.4293 28.5371 34.5221 28.5371 34.5221 28.6578V28.6578C34.5221 28.8177 34.5464 28.9774 34.6077 29.1251C34.65 29.2271 34.6984 29.3297 34.7388 29.3823C34.8316 29.503 34.8625 29.7143 34.8625 29.7747C34.8625 29.8351 34.8316 30.0162 34.8007 30.1067V30.1067C34.7253 30.3274 34.5151 30.4674 34.2944 30.5426C34.2098 30.5714 34.1407 30.5996 34.1199 30.6199C34.088 30.651 33.986 30.6504 33.8898 30.6406C33.8008 30.6316 33.7103 30.6572 33.6462 30.7197V30.7197C33.6119 30.7532 33.587 30.7952 33.574 30.8414L33.5009 31.1029L33.4856 31.1521C33.3516 31.5816 33.306 32.0355 33.1605 32.4612V32.4612C33.1296 32.5518 33.0986 32.7329 33.0368 32.8235C32.9749 32.914 32.7582 33.0046 32.6654 33.065C32.5726 33.1253 32.4797 33.2159 32.4178 33.2763C32.4172 33.2769 32.4166 33.2775 32.416 33.2781C32.3107 33.3851 32.3574 33.5614 32.4178 33.6989V33.6989C32.4488 33.7794 32.5231 33.9524 32.5726 34.0007C32.6345 34.0611 32.6654 34.1819 32.6654 34.2422V34.2422C32.6654 34.4711 32.7887 34.6702 32.7589 34.8971C32.7585 34.9006 32.7582 34.9037 32.7582 34.9063V34.9063C32.7582 35.0583 32.6654 35.1981 32.6654 35.3501V35.4287C32.6654 35.5029 32.6729 35.5768 32.6878 35.6495L32.7582 35.993C32.7995 36.1439 32.882 36.4518 32.882 36.476C32.882 36.4871 32.882 36.5836 32.882 36.7052C32.882 36.9879 32.8576 37.3482 32.6035 37.4721V37.4721C32.5416 37.5023 32.4178 37.6532 32.325 37.7438C32.2322 37.8344 32.0465 37.8947 31.9227 37.9853V37.9853C31.7139 38.1381 31.8342 38.5074 31.6775 38.7134C31.6349 38.7694 31.5996 38.8137 31.5823 38.8305C31.5328 38.8788 31.2522 38.8909 31.1181 38.8909H31.0754C30.8272 38.8909 30.5774 38.9878 30.4373 39.1927V39.1927V39.1927C30.2834 39.4179 30.0488 39.6136 29.7777 39.6442C29.7702 39.6451 29.7631 39.6455 29.7565 39.6455C29.7528 39.6455 29.749 39.6455 29.7453 39.6455C29.5905 39.6455 29.4471 39.7361 29.2923 39.7361V39.7361C29.2304 39.7361 28.9829 39.9474 28.8281 40.0379C28.6734 40.1285 28.6115 40.1587 28.5496 40.1587C28.4877 40.1587 28.1783 40.1889 28.0545 40.1587C27.9307 40.1285 27.9617 40.0983 27.8688 40.0379C27.776 39.9776 27.7141 39.8266 27.5903 39.7361C27.4665 39.6455 27.3737 39.6455 27.219 39.6455C27.0642 39.6455 26.8786 39.4946 26.7548 39.4946C26.6979 39.4946 26.618 39.5278 26.5465 39.5655C26.4609 39.6108 26.4144 39.7032 26.4144 39.8001V39.8001C26.4144 39.8178 26.416 39.8354 26.4191 39.8528L26.5072 40.3398L26.6083 40.9809C26.6231 41.0743 26.6078 41.17 26.5646 41.2541V41.2541C26.5271 41.3274 26.47 41.3888 26.3997 41.4317L26.3476 41.4634C26.2893 41.499 26.226 41.5257 26.1592 41.54C26.0732 41.5584 25.9703 41.5774 25.9193 41.5774C25.8264 41.5774 25.7336 41.4567 25.6407 41.3661C25.5479 41.2756 25.4551 41.3661 25.4241 41.2454C25.3932 41.1246 25.2385 41.185 25.1147 41.1246C25.1039 41.1194 25.0927 41.1155 25.0814 41.1128C24.911 41.0726 24.7303 41.2104 24.6505 41.3661V41.3661C24.5886 41.4869 24.4648 41.5472 24.4648 41.6378C24.4648 41.7284 24.341 41.7586 24.1863 41.7586C24.0316 41.7586 24.0625 41.8189 23.8768 41.8189C23.6912 41.8189 23.6602 41.6982 23.5364 41.6982C23.4127 41.6982 23.227 41.6982 23.0723 41.6982V41.6982C22.8453 41.6982 22.7865 41.9998 22.701 42.21C22.6907 42.2353 22.6802 42.2567 22.67 42.2717C22.6081 42.3623 22.67 42.5132 22.67 42.5736C22.67 42.5815 22.6672 42.5951 22.6622 42.6127C22.5891 42.8747 22.4314 43.1081 22.2367 43.298V43.298C22.1748 43.3584 22.0201 43.298 21.9273 43.298C21.8344 43.298 21.6178 43.298 21.4321 43.298C21.2465 43.298 21.1846 43.4188 21.1536 43.449C21.1227 43.4792 20.8751 43.6603 20.8751 43.781V43.781C20.8751 43.9321 20.8794 44.098 20.9895 44.2014C21.0607 44.2682 21.1343 44.33 21.1846 44.3546C21.1894 44.3569 21.1942 44.3593 21.1991 44.3616C21.3524 44.4364 21.5576 44.5341 21.6797 44.4149V44.4149V44.4149C21.7959 44.3016 21.989 44.2769 22.0494 44.1263C22.0636 44.0911 22.0752 44.0557 22.082 44.0225C22.087 43.9979 22.0965 43.9745 22.1088 43.9526C22.192 43.8053 22.3448 43.7037 22.4317 43.5585L22.4798 43.478C22.5032 43.4389 22.5337 43.4044 22.5697 43.3763V43.3763C22.6347 43.3256 22.7147 43.298 22.7972 43.298H22.9794H23.0358C23.2212 43.298 23.4519 43.2819 23.5364 43.1169V43.1169V43.1169C23.6211 42.9519 23.878 42.9962 24.0635 42.9962H24.341V42.9962C24.5703 42.9962 24.7817 42.8722 24.8936 42.6721L24.8981 42.6641C24.9496 42.5333 25.0652 42.2536 25.1147 42.1812C25.1391 42.1453 25.21 42.0785 25.2891 42.0092C25.4276 41.8879 25.6225 41.8585 25.7949 41.9232V41.9232C25.8765 41.9538 25.9492 42.0043 26.0063 42.0702L26.2597 42.3623C26.3731 42.4629 26.6063 42.6822 26.631 42.7547C26.662 42.8452 26.8786 42.6641 26.934 42.5736C26.9893 42.483 26.9405 42.3623 26.9714 42.2717C27.0024 42.1812 26.9095 41.9095 26.8786 41.6982C26.8476 41.4869 26.8786 41.5472 27.0642 41.3661C27.2499 41.185 27.1571 41.2454 27.2809 41.185C27.4046 41.1246 27.4975 41.1548 27.7141 41.185C27.9307 41.2152 28.0545 41.2152 28.0545 41.2454V41.2454C28.0545 41.4588 28.3342 41.5676 28.439 41.7536C28.4745 41.8165 28.5126 41.8734 28.5496 41.9095C28.6734 42.0302 28.5496 42.0906 28.6115 42.1812C28.661 42.2536 28.7766 42.2717 28.8281 42.2717C28.89 42.2717 29.0448 42.2717 29.1685 42.2717C29.3233 42.2717 29.4161 42.2717 29.6018 42.3623C29.7875 42.4528 29.7256 42.3623 29.8803 42.483C30.035 42.6038 30.066 42.6038 30.2516 42.5736C30.4373 42.5434 30.4064 42.5132 30.4992 42.483C30.5921 42.4528 30.7777 42.4226 30.9943 42.3623V42.3623C31.1549 42.3175 31.2789 42.4897 31.1695 42.6155C31.1505 42.6375 31.1329 42.6545 31.1181 42.6641C31.0253 42.7245 30.8706 42.9056 30.623 42.9962C30.3754 43.0867 30.3754 43.2075 30.2516 43.4188C30.1279 43.6301 30.035 43.5999 29.9422 43.781C29.8494 43.9621 29.6637 43.9018 29.6018 43.9018C29.5399 43.9018 29.1067 44.0225 29.0138 44.0225C28.921 44.0225 28.6115 44.0225 28.5496 44.0225V44.0225C28.3813 44.0225 28.3102 43.7868 28.3969 43.6426C28.4059 43.6277 28.4155 43.6133 28.4259 43.5999C28.5187 43.4792 28.4259 43.2075 28.4259 43.1169C28.4259 43.0264 28.1783 42.9056 28.0545 42.8452C27.9555 42.797 27.7038 42.8654 27.5903 42.9056L27.57 42.9099C27.2954 42.9673 27.0353 43.1169 26.7548 43.1169V43.1169C26.631 43.1169 26.3216 43.1169 26.074 43.1169C25.8264 43.1169 25.6407 43.3584 25.5789 43.4188C25.517 43.4792 25.3932 43.7206 25.3622 43.781C25.3313 43.8414 25.1766 43.9319 25.1147 44.0225C25.0528 44.1131 24.8981 44.264 24.8362 44.3546C24.7743 44.4451 24.6195 44.596 24.4648 44.7168C24.3101 44.8375 24.341 44.7168 24.1863 44.7168C24.182 44.7168 24.1777 44.7167 24.1735 44.7165C23.9921 44.7086 23.7901 44.7108 23.6602 44.8375V44.8375C23.5983 44.8979 23.4746 45.0488 23.4436 45.0488C23.4127 45.0488 22.9485 45.3507 22.8866 45.3507C22.8413 45.3507 22.5849 45.182 22.4311 45.0763C22.4046 45.0581 22.3799 45.0375 22.3569 45.0151L22.1942 44.8564C22.0478 44.7136 21.8125 44.7192 21.673 44.8689V44.8689C21.6367 44.9079 21.6093 44.9544 21.5929 45.0051L21.5266 45.2097C21.4651 45.4 21.3522 45.5737 21.1846 45.6827V45.6827V45.6827C20.9943 45.8065 20.7877 45.9156 20.667 46.1079C20.6228 46.1784 20.5847 46.2516 20.5657 46.3166C20.5161 46.4857 20.1324 46.4877 19.9467 46.4676H19.7661C19.5211 46.4676 19.2943 46.3166 19.0493 46.3166V46.3166V46.3166C18.8482 46.3166 18.6524 46.3806 18.4901 46.4994L18.3685 46.5883C18.2447 46.699 17.9786 46.9204 17.9043 46.9204C17.8615 46.9204 17.7203 46.8936 17.5749 46.8631C17.3818 46.8227 17.1935 46.7627 17.0104 46.6892L16.8375 46.6197C16.7855 46.5988 16.732 46.5816 16.6775 46.5684L16.6458 46.5606C16.3992 46.5005 16.1467 46.5883 15.8929 46.5883V46.5883C15.7691 46.5883 15.6762 46.7996 15.5834 46.9204C15.4906 47.0411 15.3977 47.0109 15.3049 46.9204C15.2121 46.8298 15.0883 46.7392 14.9645 46.5883C14.919 46.5328 14.8542 46.4496 14.7896 46.3652C14.6607 46.197 14.4849 46.0702 14.2834 46.0046L14.2137 45.982C14.1576 45.9637 14.0989 45.9544 14.0398 45.9544V45.9544C13.8622 45.9544 13.6952 45.8705 13.5886 45.7284C13.5216 45.6392 13.4552 45.551 13.4172 45.5016C13.3429 45.405 13.1387 45.079 13.0459 44.9281V44.9281C12.9085 44.7175 12.6854 44.5779 12.4359 44.5465L12.0921 44.5033C11.9474 44.485 11.8117 44.4232 11.703 44.3261L11.6415 44.2711C11.5495 44.1888 11.4303 44.1432 11.3068 44.1432V44.1432C11.2697 44.1432 11.2328 44.1474 11.1966 44.1555L11.0406 44.1906C10.9145 44.219 10.7835 44.2165 10.6587 44.1833V44.1833C10.5594 44.1568 10.4649 44.1107 10.3827 44.049V44.049C10.2072 43.9173 10.0889 43.7192 10.0586 43.5019L10.0132 43.1773L9.9316 42.6798C9.9039 42.511 9.91836 42.3379 9.97369 42.176L9.99681 42.1084C10.067 41.903 10.0566 41.6786 9.96781 41.4805V41.4805C9.91618 41.3654 9.83996 41.2631 9.74374 41.1815C9.46688 40.9468 9.07485 40.6217 8.99199 40.5813C8.90372 40.5382 8.75972 40.2202 8.67834 40.0162C8.66014 39.9706 8.63758 39.9269 8.60987 39.8863V39.8863C8.51768 39.7515 8.47725 39.5833 8.53441 39.4302C8.56519 39.3478 8.60468 39.2687 8.65159 39.2229C8.77537 39.1022 8.80631 38.8607 8.80631 38.7701C8.80631 38.6977 8.80631 38.5186 8.80631 38.4381V38.4194C8.80631 38.2522 8.83709 38.0864 8.8971 37.9302V37.9302C8.95978 37.7672 9.05248 37.6171 9.17538 37.493C9.28031 37.387 9.40003 37.2713 9.48712 37.2005V37.2005C9.5547 37.1455 9.72906 36.9474 9.78563 36.8812L10.0587 36.5616C10.0898 36.5252 10.1116 36.4818 10.1222 36.4351L10.2298 35.9628L10.2959 35.7837C10.4236 35.4379 10.7531 35.2082 11.1218 35.2082H11.1975C11.233 35.2082 11.2683 35.203 11.3023 35.1928L11.624 35.0962C11.7944 35.0451 11.8269 34.818 11.6778 34.721V34.721C11.5795 34.6571 11.553 34.5248 11.6192 34.428L11.947 33.9483C12.0178 33.8448 12.0556 33.7224 12.0556 33.597V33.597C12.0556 33.3476 12.2045 33.1222 12.4339 33.0243L12.9877 32.7879C13.0261 32.7716 13.0674 32.7631 13.1091 32.7631V32.7631C13.3373 32.7631 13.4869 32.5242 13.3872 32.3189L13.2027 31.939C13.1068 31.7415 12.9064 31.616 12.6868 31.616H12.6149C12.4535 31.616 12.2972 31.5593 12.1734 31.4558L11.5871 30.9656C11.5299 30.9178 11.4577 30.8916 11.3832 30.8916H11.3735C11.2033 30.8916 11.0653 30.7536 11.0653 30.5834V30.5834C11.0653 30.5096 11.0918 30.4382 11.14 30.3823L12.0741 29.2975C12.2618 29.0796 12.3651 28.8015 12.3651 28.5138V28.5138C12.3651 28.2178 12.2557 27.9322 12.0581 27.7119L11.4986 27.0881L11.2754 26.8393C11.1417 26.6903 10.951 26.6052 10.7508 26.6052V26.6052C10.5937 26.6052 10.4411 26.5527 10.3172 26.456L10.2525 26.4055C10.0233 26.2267 9.88941 25.9523 9.88941 25.6617V25.4864C9.88941 25.3895 9.92025 25.2952 9.97745 25.2171L10.1427 24.9915C10.2945 24.7841 10.1464 24.4921 9.88941 24.4921V24.4921H9.84651C9.31567 24.4921 8.80295 24.299 8.40402 23.9488V23.9488L7.66133 23.4054L7.50243 23.2726C7.32856 23.1272 7.22809 22.9122 7.22809 22.6856V22.6856C7.22809 22.5256 7.27827 22.3695 7.37158 22.2395L7.38461 22.2214C7.55451 21.9846 7.57776 21.6727 7.44483 21.4134L7.35941 21.2467C7.27879 21.0895 7.11693 20.9906 6.94019 20.9906V20.9906C6.88499 20.9906 6.83021 20.9808 6.77836 20.9619L6.34732 20.8042C6.0316 20.6887 5.74908 20.4974 5.5246 20.2472L5.23951 19.9294C5.08529 19.7575 5 19.5346 5 19.3037V19.3037C5 19.1817 5.0238 19.061 5.07006 18.9482L5.32667 18.3224C5.35569 18.2516 5.40657 18.192 5.47189 18.1521V18.1521C5.67189 18.0302 5.70334 17.7524 5.53566 17.5889L5.49344 17.5477C5.41537 17.4715 5.37135 17.3671 5.37135 17.258V17.006V16.8721C5.37135 16.4591 5.55229 16.0667 5.86648 15.7986V15.7986L6.05565 15.6602C6.25911 15.5113 6.44715 15.3425 6.61694 15.1561L6.66451 15.1039C6.79238 14.9636 6.93317 14.8356 7.08502 14.7217L7.43958 14.4556C7.58537 14.3462 7.70344 14.2041 7.78429 14.0408V14.0408C7.97523 13.655 7.93771 13.1953 7.68673 12.8455L7.66133 12.8101L7.04241 12.0857Z" stroke="white" stroke-width="2" stroke-linecap="square"/>
</g>
<defs>
<filter id="filter0_df" x="0" y="0.0288086" width="40" height="55.9712" filterUnits="userSpaceOnUse" color-interpolation-filters="sRGB">
<feFlood flood-opacity="0" result="BackgroundImageFix"/>
<feColorMatrix in="SourceAlpha" type="matrix" values="0 0 0 0 0 0 0 0 0 0 0 0 0 0 0 0 0 0 127 0"/>
<feOffset dy="4"/>
<feGaussianBlur stdDeviation="2"/>
<feColorMatrix type="matrix" values="0 0 0 0 0 0 0 0 0 0 0 0 0 0 0 0 0 0 0.45 0"/>
<feBlend mode="normal" in2="BackgroundImageFix" result="effect1_dropShadow"/>
<feBlend mode="normal" in="SourceGraphic" in2="effect1_dropShadow" result="shape"/>
<feGaussianBlur stdDeviation="0.5" result="effect2_foregroundBlur"/>
</filter>
</defs>
</svg>
