<svg width="607" height="55" viewBox="0 0 607 55" fill="none" xmlns="http://www.w3.org/2000/svg">
<g filter="url(#filter0_d)">
<path d="M5.03231 1.7294C4.56153 1.06732 5.03489 0.149902 5.84728 0.149902H601.952C602.768 0.149902 603.24 1.07473 602.762 1.73598L587.635 22.649C587.382 22.9988 587.382 23.4714 587.635 23.8211L602.762 44.7342C603.24 45.3954 602.768 46.3202 601.952 46.3202H5.84731C5.03491 46.3202 4.56153 45.4028 5.03231 44.7407L19.9122 23.8146C20.1589 23.4676 20.1589 23.0025 19.9122 22.6556L5.03231 1.7294Z" fill="#3A5358"/>
<path d="M21.1347 21.7863L6.81633 1.6499H600.973L586.42 21.7699C585.787 22.6443 585.787 23.8259 586.42 24.7003L600.973 44.8202H6.81633L21.1347 24.6838C21.7514 23.8165 21.7514 22.6537 21.1347 21.7863Z" stroke="#D8A85C" stroke-width="3" stroke-linejoin="bevel"/>
</g>
<path d="M207.897 16.3843C207.926 15.979 208.146 15.6274 208.556 15.3296C208.766 15.1782 208.971 15.0684 209.171 15H204.872C205.072 15.0684 205.275 15.1782 205.48 15.3296C205.895 15.6274 206.117 15.979 206.146 16.3843V28.6157C206.117 29.021 205.895 29.3726 205.48 29.6704C205.275 29.8218 205.072 29.9316 204.872 30H209.171C208.971 29.9316 208.766 29.8218 208.556 29.6704C208.146 29.3726 207.926 29.021 207.897 28.6157V16.3843ZM221.278 15C221.478 15.0684 221.681 15.1782 221.886 15.3296C222.301 15.6274 222.523 15.979 222.552 16.3843V26.4551L211.639 15V28.6157C211.61 29.021 211.388 29.3726 210.973 29.6704C210.768 29.8218 210.565 29.9316 210.365 30H214.664C214.464 29.9316 214.261 29.8218 214.056 29.6704C213.641 29.3726 213.419 29.021 213.39 28.6157V18.6841L224.296 30V29.9854L224.303 30V16.3843C224.332 15.979 224.554 15.6274 224.969 15.3296C225.175 15.1782 225.377 15.0684 225.577 15H221.278ZM229.76 21.7163V16.106H232.609C233.214 16.106 233.656 16.3794 233.934 16.9263C234.076 17.1948 234.156 17.4658 234.176 17.7393L234.74 15L234.176 15.2637H226.478C227.274 15.4932 227.782 15.8325 228.002 16.2817C228.007 19.1187 228.011 21.7065 228.016 24.0454H228.009V28.6157C227.975 29.021 227.753 29.3726 227.343 29.6704C227.137 29.8218 226.935 29.9316 226.735 30H231.027C230.826 29.9316 230.624 29.8218 230.419 29.6704C230.004 29.3726 229.781 29.021 229.752 28.6157V28.374L229.76 28.1323V22.5659H232.155C232.906 22.5659 233.444 22.8296 233.766 23.3569C233.927 23.6206 234.012 23.8867 234.022 24.1553L234.388 21.2183C233.998 21.5356 233.5 21.7017 232.894 21.7163H229.76ZM244.261 16.0474C245.389 16.394 246.312 16.9971 247.03 17.8564C248.046 19.0723 248.553 20.7202 248.553 22.8003C248.553 24.8755 248.046 26.4722 247.03 27.5903C246.312 28.3813 245.389 28.8965 244.261 29.1357V16.0474ZM237.303 22.5C237.303 20.4834 237.802 18.894 238.798 17.7319C239.506 16.9116 240.421 16.3403 241.544 16.0181V29.0186C240.421 28.6914 239.506 28.1128 238.798 27.2827C237.802 26.1108 237.303 24.5166 237.303 22.5ZM243.221 15.8203C243.417 15.8447 243.615 15.8789 243.815 15.9229V29.2163C243.605 29.2407 243.407 29.2554 243.221 29.2603V15.8203ZM242.482 29.2236C242.325 29.1992 242.162 29.1699 241.991 29.1357V15.9082C242.152 15.874 242.316 15.8472 242.482 15.8276V29.2236ZM243.17 15.0073C241.881 14.9292 240.592 15.1953 239.303 15.8057C236.72 17.0215 235.428 19.3359 235.428 22.749C235.428 25.1904 236.349 27.0776 238.19 28.4106C239.655 29.4702 241.315 30 243.17 30C244.879 30 246.459 29.3921 247.909 28.1763C249.584 26.77 250.421 24.978 250.421 22.8003C250.421 20.5737 249.608 18.6816 247.982 17.124C246.503 15.7129 244.899 15.0073 243.17 15.0073ZM259.283 23.3936L261.151 18.3398L262.96 23.4082L259.283 23.3936ZM268.702 30C268.507 29.9561 268.29 29.8706 268.051 29.7437C267.572 29.4897 267.225 29.1528 267.01 28.7329C266.664 28.064 264.747 23.4863 261.261 15L256.119 28.623C256.056 28.8184 255.929 29.0234 255.739 29.2383C255.363 29.6631 254.857 29.917 254.222 30H258.617C258.427 29.9561 258.236 29.8853 258.046 29.7876C257.66 29.5825 257.467 29.3359 257.467 29.0479L259.049 24.3091H263.187L265.114 29.2822C264.576 29.4336 264.193 29.6729 263.964 30H268.702ZM274.672 29.3188C273.925 29.3188 273.497 29.2993 273.39 29.2603C273.112 29.1577 272.972 28.8452 272.972 28.3228C272.972 27.5464 272.953 25.5884 272.914 22.4487H275.594C275.931 22.4634 276.271 22.5952 276.613 22.8442C277.296 23.3423 277.638 24.1846 277.638 25.3711C277.638 26.665 277.289 27.6807 276.591 28.418C276.019 29.0186 275.38 29.3188 274.672 29.3188ZM272.972 16.6772C272.972 16.1548 273.112 15.8423 273.39 15.7397C273.497 15.7007 273.925 15.6812 274.672 15.6812C275.394 15.6812 275.975 15.8936 276.415 16.3184C277.001 16.8896 277.294 17.8174 277.294 19.1016C277.294 19.8047 277.01 20.3906 276.444 20.8594C276.161 21.0938 275.878 21.2598 275.594 21.3574H272.914C272.953 19.0137 272.972 17.4536 272.972 16.6772ZM276.73 21.9507C276.72 21.936 276.7 21.9189 276.671 21.8994C276.7 21.8848 276.72 21.8701 276.73 21.8555C277.682 21.1279 278.265 19.9023 278.48 18.1787C278.48 16.8213 277.828 15.9009 276.525 15.4175C275.822 15.1587 274.769 15.0195 273.368 15H269.867C269.93 15.0195 270.006 15.0513 270.094 15.0952L269.867 15C270.067 15.083 270.27 15.2075 270.475 15.3735C270.885 15.7056 271.105 16.0718 271.134 16.4722V28.5278C271.105 28.9282 270.885 29.2944 270.475 29.6265C270.27 29.7925 270.067 29.917 269.867 30L270.094 29.9048C270.006 29.9487 269.93 29.9805 269.867 30H273.954C275.258 30.0195 276.329 29.8193 277.169 29.3994C278.39 28.7842 279 27.749 279 26.2939C279.034 25.9424 278.966 25.4956 278.795 24.9536C278.448 23.8745 277.76 22.8735 276.73 21.9507ZM288.573 16.0474C289.701 16.394 290.624 16.9971 291.342 17.8564C292.357 19.0723 292.865 20.7202 292.865 22.8003C292.865 24.8755 292.357 26.4722 291.342 27.5903C290.624 28.3813 289.701 28.8965 288.573 29.1357V16.0474ZM281.615 22.5C281.615 20.4834 282.113 18.894 283.109 17.7319C283.817 16.9116 284.733 16.3403 285.856 16.0181V29.0186C284.733 28.6914 283.817 28.1128 283.109 27.2827C282.113 26.1108 281.615 24.5166 281.615 22.5ZM287.533 15.8203C287.728 15.8447 287.926 15.8789 288.126 15.9229V29.2163C287.916 29.2407 287.719 29.2554 287.533 29.2603V15.8203ZM286.793 29.2236C286.637 29.1992 286.473 29.1699 286.302 29.1357V15.9082C286.464 15.874 286.627 15.8472 286.793 15.8276V29.2236ZM287.482 15.0073C286.193 14.9292 284.904 15.1953 283.615 15.8057C281.031 17.0215 279.74 19.3359 279.74 22.749C279.74 25.1904 280.66 27.0776 282.501 28.4106C283.966 29.4702 285.626 30 287.482 30C289.191 30 290.77 29.3921 292.22 28.1763C293.895 26.77 294.733 24.978 294.733 22.8003C294.733 20.5737 293.92 18.6816 292.294 17.124C290.814 15.7129 289.21 15.0073 287.482 15.0073ZM305.36 15C305.555 15.0439 305.751 15.144 305.946 15.3003C306.332 15.6226 306.525 16.0693 306.525 16.6406V22.9907C306.525 25.0757 306.205 26.6309 305.565 27.6562C305.062 28.457 304.335 28.9575 303.383 29.1577L302.95 29.231C302.794 29.2554 302.601 29.2725 302.372 29.2822L301.654 29.2383C301.498 29.2188 301.337 29.1919 301.171 29.1577L300.746 29.0479C298.68 28.4424 297.648 26.3257 297.648 22.6978L297.655 20.8887L297.67 16.3696C297.704 15.9692 297.924 15.6201 298.329 15.3223C298.534 15.1758 298.737 15.0684 298.937 15H294.681C294.843 15.0342 295.011 15.1147 295.187 15.2417C295.533 15.4956 295.743 15.8447 295.817 16.2891V22.9395C295.817 25.3516 296.542 27.1899 297.992 28.4546C299.178 29.4849 300.624 30 302.328 30C303.9 30 305.265 29.4067 306.422 28.2202C307.711 26.9019 308.356 25.1587 308.356 22.9907V16.3477C308.39 15.9521 308.61 15.6079 309.015 15.3149C309.22 15.1733 309.418 15.0684 309.608 15H305.36ZM321.92 15.2637H311.344L310.78 15L311.344 17.7393C311.364 17.4658 311.442 17.1948 311.578 16.9263C311.862 16.3794 312.306 16.106 312.911 16.106H315.739L315.746 16.2817C315.751 19.1187 315.756 21.7065 315.76 24.0454V28.6157C315.726 29.021 315.504 29.3726 315.094 29.6704C314.884 29.8218 314.679 29.9316 314.479 30H318.778C318.578 29.9316 318.375 29.8218 318.17 29.6704C317.755 29.3726 317.533 29.021 317.504 28.6157V24.0454C317.509 21.7065 317.513 19.1187 317.518 16.2817V16.106H320.353C320.958 16.106 321.4 16.3794 321.678 16.9263C321.82 17.1948 321.901 17.4658 321.92 17.7393L322.484 15L321.92 15.2637ZM341.161 26.5137L345.555 16.3843C345.521 15.979 345.297 15.6274 344.882 15.3296C344.672 15.1782 344.467 15.0684 344.266 15H348.602C348.441 15.0391 348.273 15.1221 348.097 15.249C347.74 15.5029 347.526 15.8545 347.452 16.3037L341.219 30V29.8682L341.161 30L337.44 21.9653L333.719 30L333.661 29.8682V30L327.428 16.3037C327.355 15.8545 327.14 15.5029 326.783 15.249C326.608 15.1221 326.439 15.0391 326.278 15H330.621C330.416 15.0684 330.211 15.1782 330.006 15.3296C329.586 15.6274 329.362 15.979 329.332 16.3843L333.719 26.5137L336.539 20.0171L337.44 17.7539L338.348 20.0171L341.161 26.5137ZM355.59 16.0474C356.718 16.394 357.64 16.9971 358.358 17.8564C359.374 19.0723 359.882 20.7202 359.882 22.8003C359.882 24.8755 359.374 26.4722 358.358 27.5903C357.64 28.3813 356.718 28.8965 355.59 29.1357V16.0474ZM348.632 22.5C348.632 20.4834 349.13 18.894 350.126 17.7319C350.834 16.9116 351.749 16.3403 352.872 16.0181V29.0186C351.749 28.6914 350.834 28.1128 350.126 27.2827C349.13 26.1108 348.632 24.5166 348.632 22.5ZM354.55 15.8203C354.745 15.8447 354.943 15.8789 355.143 15.9229V29.2163C354.933 29.2407 354.735 29.2554 354.55 29.2603V15.8203ZM353.81 29.2236C353.654 29.1992 353.49 29.1699 353.319 29.1357V15.9082C353.48 15.874 353.644 15.8472 353.81 15.8276V29.2236ZM354.498 15.0073C353.209 14.9292 351.92 15.1953 350.631 15.8057C348.048 17.0215 346.757 19.3359 346.757 22.749C346.757 25.1904 347.677 27.0776 349.518 28.4106C350.983 29.4702 352.643 30 354.498 30C356.207 30 357.787 29.3921 359.237 28.1763C360.912 26.77 361.749 24.978 361.749 22.8003C361.749 20.5737 360.936 18.6816 359.31 17.124C357.831 15.7129 356.227 15.0073 354.498 15.0073ZM364.467 22.5513C364.506 19.4116 364.525 17.4536 364.525 16.6772C364.525 16.145 364.635 15.8325 364.855 15.7397C364.943 15.7007 365.341 15.6812 366.049 15.6812C366.757 15.6812 367.396 15.9814 367.968 16.582C368.666 17.3193 369.015 18.335 369.015 19.6289C369.015 20.8154 368.676 21.6577 367.997 22.1558C367.655 22.4048 367.313 22.5366 366.971 22.5513H364.467ZM370.223 25.1807C369.574 24.2236 368.998 23.5132 368.495 23.0493C369.53 22.1265 370.219 21.1255 370.56 20.0464C370.736 19.5044 370.807 19.0576 370.773 18.7061C370.773 16.7725 369.72 15.5908 367.616 15.1611C366.566 14.9463 365.516 14.9243 364.467 15.0952H361.464C361.664 15.1636 361.866 15.2734 362.072 15.4248C362.482 15.7227 362.701 16.0718 362.731 16.4722V28.623C362.701 29.0283 362.482 29.3799 362.072 29.6777C361.866 29.8242 361.664 29.9316 361.464 30H365.734C365.533 29.9316 365.331 29.8242 365.126 29.6777C364.716 29.3799 364.496 29.0283 364.467 28.623V23.5986C365.751 23.5986 366.842 23.9453 367.74 24.6387C368.19 24.9805 368.51 25.3247 368.7 25.6714C369.13 26.394 369.645 27.1167 370.245 27.8394C371.447 29.2798 372.467 30 373.307 30C374.147 30 374.777 29.8926 375.197 29.6777C375.411 29.5703 375.541 29.4653 375.585 29.3628C374.637 29.5581 373.593 29.0991 372.45 27.9858C371.81 27.3608 371.068 26.4258 370.223 25.1807ZM378.969 16.04C378.978 16.0303 378.988 16.0156 378.998 15.9961L378.947 28.4985C378.947 27.7905 378.954 23.6377 378.969 16.04ZM381.678 29.3774C380.966 29.3774 380.306 29.165 379.701 28.7402C379.393 28.5254 379.159 28.3105 378.998 28.0957V15.9961C379.276 15.5469 379.784 15.2148 380.521 15H375.658C376.469 15.2344 376.984 15.5811 377.203 16.04C377.218 23.6377 377.225 27.7905 377.225 28.4985C377.225 28.938 377.008 29.3213 376.573 29.6484C376.359 29.8096 376.141 29.9268 375.922 30H384.066L384.374 27.3706C384.208 27.7026 383.971 28.0371 383.663 28.374C383.048 29.043 382.386 29.3774 381.678 29.3774ZM390.76 29.1357C389.794 29.1748 389.042 28.9478 388.505 28.4546V16.7358C389.305 16.0815 390.326 15.7544 391.566 15.7544C393.51 15.7544 395.04 16.3208 396.158 17.4536C397.296 18.5962 397.865 20.1709 397.865 22.1777C397.865 24.1064 397.086 25.7715 395.529 27.1729C394.078 28.4814 392.489 29.1357 390.76 29.1357ZM385.297 15C386.005 15.1807 386.464 15.415 386.674 15.7031C386.781 15.8447 386.815 15.9717 386.776 16.084V29.0698C386.727 29.3237 386.483 29.5508 386.044 29.751L385.297 30H391.259C393.641 30 395.563 29.3823 397.023 28.147C398.654 26.7603 399.469 24.7607 399.469 22.1484C399.528 20.957 399.249 19.7656 398.634 18.5742C397.399 16.1914 395.096 15 391.727 15H385.297Z" fill="#E8E8E8"/>
<defs>
<filter id="filter0_d" x="0.845459" y="0.149902" width="606.108" height="54.1703" filterUnits="userSpaceOnUse" color-interpolation-filters="sRGB">
<feFlood flood-opacity="0" result="BackgroundImageFix"/>
<feColorMatrix in="SourceAlpha" type="matrix" values="0 0 0 0 0 0 0 0 0 0 0 0 0 0 0 0 0 0 127 0"/>
<feOffset dy="4"/>
<feGaussianBlur stdDeviation="2"/>
<feColorMatrix type="matrix" values="0 0 0 0 0 0 0 0 0 0 0 0 0 0 0 0 0 0 0.25 0"/>
<feBlend mode="normal" in2="BackgroundImageFix" result="effect1_dropShadow"/>
<feBlend mode="normal" in="SourceGraphic" in2="effect1_dropShadow" result="shape"/>
</filter>
</defs>
</svg>
