<svg width="808" height="55" viewBox="0 0 808 55" fill="none" xmlns="http://www.w3.org/2000/svg">
<g filter="url(#filter0_d)">
<path d="M4.51517 2.09141C3.90962 1.45453 4.36107 0.402344 5.23988 0.402344H802.855C803.738 0.402344 804.188 1.46295 803.574 2.09757L783.558 22.7923C783.183 23.1799 783.183 23.7951 783.558 24.1827L803.574 44.8775C804.188 45.5121 803.738 46.5727 802.855 46.5727H5.23988C4.36108 46.5727 3.90962 45.5205 4.51517 44.8836L24.2038 24.1766C24.5709 23.7905 24.5709 23.1845 24.2038 22.7985L4.51517 2.09141Z" fill="#3A5358"/>
<path d="M25.2909 21.7649L6.40522 1.90234H801.676L782.479 21.7495C781.542 22.7186 781.542 24.2564 782.479 25.2256L801.676 45.0727H6.40522L25.2909 25.2102C26.2086 24.245 26.2086 22.73 25.2909 21.7649Z" stroke="#D8A85C" stroke-width="3" stroke-linejoin="bevel"/>
</g>
<path d="M327.227 24.5645C327.268 24.4297 327.224 24.2744 327.095 24.0986C326.837 23.7412 326.274 23.4541 325.407 23.2373H331.164C330.297 23.4541 329.734 23.7412 329.477 24.0986C329.342 24.2744 329.298 24.4297 329.345 24.5645V30.7783C329.087 30.9834 328.665 31.1914 328.079 31.4023C326.901 31.8184 325.492 32.0264 323.852 32.0264C320.893 32.0264 318.534 31.3145 316.776 29.8906C314.772 28.2676 313.771 25.8594 313.771 22.666C313.7 21.2246 314.043 19.7861 314.799 18.3506C316.316 15.4678 319.144 14.0264 323.28 14.0264C326.614 14.2783 328.7 14.5303 329.538 14.7822L328.932 18.7637C328.809 18.1074 328.489 17.4512 327.974 16.7949C326.948 15.4766 325.448 14.8174 323.474 14.8174C321.089 14.8174 319.208 15.5117 317.831 16.9004C316.437 18.3066 315.739 20.2402 315.739 22.7012C315.739 25.0566 316.694 27.0547 318.604 28.6953C320.368 30.207 322.319 30.9629 324.458 30.9629C325.642 31.0156 326.564 30.7373 327.227 30.1279V24.5645ZM334.627 24.0986L336.868 18.0342L339.039 24.1162L334.627 24.0986ZM345.93 32.0264C345.695 31.9736 345.435 31.8711 345.147 31.7188C344.573 31.4141 344.157 31.0098 343.899 30.5059C343.483 29.7031 341.184 24.21 337 14.0264L330.83 30.374C330.754 30.6084 330.602 30.8545 330.373 31.1123C329.922 31.6221 329.315 31.9268 328.554 32.0264H333.827C333.599 31.9736 333.37 31.8887 333.142 31.7715C332.679 31.5254 332.447 31.2295 332.447 30.8838L334.346 25.1973H339.312L341.623 31.165C340.979 31.3467 340.519 31.6338 340.243 32.0264H345.93ZM357.61 31.666L363.587 20.873L365.652 29.8027V30.3828C365.617 30.8633 365.354 31.2822 364.861 31.6396C364.615 31.8154 364.375 31.9443 364.141 32.0264H369.238C369.004 31.9443 368.764 31.8154 368.518 31.6396C368.025 31.2822 367.762 30.8633 367.727 30.3828L365.046 14.2373L357.584 28.6602L350.342 14.0264L348.276 30.1719C348.241 30.6582 347.978 31.0771 347.485 31.4287C347.245 31.6104 347.005 31.7422 346.765 31.8242H351.871C351.631 31.7422 351.388 31.6104 351.142 31.4287C350.655 31.0771 350.392 30.6582 350.351 30.1719V29.6006L351.59 20.46L357.522 31.6133L357.584 31.6748H357.593V31.6836L357.61 31.666ZM379.486 14.3428L380.163 14.0264L379.486 17.3135C379.463 16.9854 379.366 16.6602 379.196 16.3379C378.862 15.6816 378.332 15.3535 377.605 15.3535H374.187V22.0859H377.948C378.675 22.0684 379.272 21.8691 379.741 21.4883L379.302 25.0127C379.29 24.6904 379.188 24.3711 378.994 24.0547C378.607 23.4219 377.963 23.1055 377.061 23.1055H374.187V29.7852C374.38 30.0371 374.655 30.2891 375.013 30.541C375.733 31.0449 376.51 31.2969 377.342 31.2969C378.18 31.2969 378.962 30.9014 379.688 30.1104C380.052 29.7119 380.33 29.3164 380.523 28.9238L380.163 32.0264H370.565C370.817 31.9385 371.072 31.8008 371.33 31.6133C371.846 31.2266 372.104 30.7725 372.104 30.251C372.104 29.4189 372.095 24.5234 372.077 15.5645C371.813 15.0254 371.204 14.6182 370.249 14.3428H379.486ZM395.685 15.2832C397.038 15.6992 398.146 16.4229 399.007 17.4541C400.226 18.9131 400.835 20.8906 400.835 23.3867C400.835 25.877 400.226 27.793 399.007 29.1348C398.146 30.084 397.038 30.7021 395.685 30.9893V15.2832ZM387.335 23.0264C387.335 20.6064 387.933 18.6992 389.128 17.3047C389.978 16.3203 391.076 15.6348 392.424 15.248V30.8486C391.076 30.4561 389.978 29.7617 389.128 28.7656C387.933 27.3594 387.335 25.4463 387.335 23.0264ZM394.437 15.0107C394.671 15.04 394.908 15.0811 395.148 15.1338V31.0859C394.896 31.1152 394.659 31.1328 394.437 31.1387V15.0107ZM393.549 31.0947C393.361 31.0654 393.165 31.0303 392.96 30.9893V15.1162C393.153 15.0752 393.35 15.043 393.549 15.0195V31.0947ZM394.375 14.0352C392.828 13.9414 391.281 14.2607 389.734 14.9932C386.635 16.4521 385.085 19.2295 385.085 23.3252C385.085 26.2549 386.189 28.5195 388.398 30.1191C390.156 31.3906 392.148 32.0264 394.375 32.0264C396.426 32.0264 398.321 31.2969 400.062 29.8379C402.071 28.1504 403.076 26 403.076 23.3867C403.076 20.7148 402.101 18.4443 400.149 16.5752C398.374 14.8818 396.449 14.0352 394.375 14.0352ZM406.39 22.0859V15.3535H409.809C410.535 15.3535 411.065 15.6816 411.399 16.3379C411.569 16.6602 411.666 16.9854 411.689 17.3135L412.366 14.0264L411.689 14.3428H402.452C403.407 14.6182 404.017 15.0254 404.28 15.5645C404.286 18.9688 404.292 22.0742 404.298 24.8809H404.289V30.3652C404.248 30.8516 403.981 31.2734 403.489 31.6309C403.243 31.8125 403 31.9443 402.76 32.0264H407.91C407.67 31.9443 407.427 31.8125 407.181 31.6309C406.683 31.2734 406.416 30.8516 406.381 30.3652V30.0752L406.39 29.7852V23.1055H409.264C410.166 23.1055 410.811 23.4219 411.197 24.0547C411.391 24.3711 411.493 24.6904 411.505 25.0127L411.944 21.4883C411.476 21.8691 410.878 22.0684 410.151 22.0859H406.39ZM430.48 24.5645C430.521 24.4297 430.478 24.2744 430.349 24.0986C430.091 23.7412 429.528 23.4541 428.661 23.2373H434.418C433.551 23.4541 432.988 23.7412 432.73 24.0986C432.596 24.2744 432.552 24.4297 432.599 24.5645V30.7783C432.341 30.9834 431.919 31.1914 431.333 31.4023C430.155 31.8184 428.746 32.0264 427.105 32.0264C424.146 32.0264 421.788 31.3145 420.03 29.8906C418.026 28.2676 417.024 25.8594 417.024 22.666C416.954 21.2246 417.297 19.7861 418.053 18.3506C419.57 15.4678 422.397 14.0264 426.534 14.0264C429.868 14.2783 431.954 14.5303 432.792 14.7822L432.186 18.7637C432.062 18.1074 431.743 17.4512 431.228 16.7949C430.202 15.4766 428.702 14.8174 426.728 14.8174C424.343 14.8174 422.462 15.5117 421.085 16.9004C419.69 18.3066 418.993 20.2402 418.993 22.7012C418.993 25.0566 419.948 27.0547 421.858 28.6953C423.622 30.207 425.573 30.9629 427.712 30.9629C428.896 31.0156 429.818 30.7373 430.48 30.1279V24.5645ZM437.714 15.2744C437.726 15.2627 437.737 15.2451 437.749 15.2217L437.688 30.2246C437.688 29.375 437.696 24.3916 437.714 15.2744ZM440.966 31.2793C440.11 31.2793 439.319 31.0244 438.593 30.5146C438.224 30.2568 437.942 29.999 437.749 29.7412V15.2217C438.083 14.6826 438.692 14.2842 439.577 14.0264H433.741C434.714 14.3076 435.332 14.7236 435.596 15.2744C435.613 24.3916 435.622 29.375 435.622 30.2246C435.622 30.752 435.361 31.2119 434.84 31.6045C434.582 31.7979 434.321 31.9385 434.058 32.0264H443.831L444.2 28.8711C444.001 29.2695 443.717 29.6709 443.348 30.0752C442.609 30.8779 441.815 31.2793 440.966 31.2793ZM454.264 14.3428L454.94 14.0264L454.264 17.3135C454.24 16.9854 454.144 16.6602 453.974 16.3379C453.64 15.6816 453.109 15.3535 452.383 15.3535H448.964V22.0859H452.726C453.452 22.0684 454.05 21.8691 454.519 21.4883L454.079 25.0127C454.067 24.6904 453.965 24.3711 453.771 24.0547C453.385 23.4219 452.74 23.1055 451.838 23.1055H448.964V29.7852C449.157 30.0371 449.433 30.2891 449.79 30.541C450.511 31.0449 451.287 31.2969 452.119 31.2969C452.957 31.2969 453.739 30.9014 454.466 30.1104C454.829 29.7119 455.107 29.3164 455.301 28.9238L454.94 32.0264H445.343C445.595 31.9385 445.85 31.8008 446.107 31.6133C446.623 31.2266 446.881 30.7725 446.881 30.251C446.881 29.4189 446.872 24.5234 446.854 15.5645C446.591 15.0254 445.981 14.6182 445.026 14.3428H454.264ZM469.425 14.0264C469.665 14.1084 469.908 14.2402 470.154 14.4219C470.652 14.7793 470.919 15.2012 470.954 15.6875V27.7725L457.858 14.0264V30.3652C457.823 30.8516 457.557 31.2734 457.059 31.6309C456.812 31.8125 456.569 31.9443 456.329 32.0264H461.488C461.248 31.9443 461.005 31.8125 460.759 31.6309C460.261 31.2734 459.994 30.8516 459.959 30.3652V18.4473L473.046 32.0264V32.0088L473.055 32.0264V15.6875C473.09 15.2012 473.356 14.7793 473.854 14.4219C474.101 14.2402 474.344 14.1084 474.584 14.0264H469.425ZM487.636 14.0264C487.876 14.1084 488.119 14.2402 488.365 14.4219C488.863 14.7793 489.13 15.2012 489.165 15.6875V27.7725L476.069 14.0264V30.3652C476.034 30.8516 475.768 31.2734 475.27 31.6309C475.023 31.8125 474.78 31.9443 474.54 32.0264H479.699C479.459 31.9443 479.216 31.8125 478.97 31.6309C478.472 31.2734 478.205 30.8516 478.17 30.3652V18.4473L491.257 32.0264V32.0088L491.266 32.0264V15.6875C491.301 15.2012 491.567 14.7793 492.065 14.4219C492.312 14.2402 492.555 14.1084 492.795 14.0264H487.636Z" fill="#E8E8E8"/>
<defs>
<filter id="filter0_d" x="0.237793" y="0.402344" width="807.619" height="54.1703" filterUnits="userSpaceOnUse" color-interpolation-filters="sRGB">
<feFlood flood-opacity="0" result="BackgroundImageFix"/>
<feColorMatrix in="SourceAlpha" type="matrix" values="0 0 0 0 0 0 0 0 0 0 0 0 0 0 0 0 0 0 127 0"/>
<feOffset dy="4"/>
<feGaussianBlur stdDeviation="2"/>
<feColorMatrix type="matrix" values="0 0 0 0 0 0 0 0 0 0 0 0 0 0 0 0 0 0 0.25 0"/>
<feBlend mode="normal" in2="BackgroundImageFix" result="effect1_dropShadow"/>
<feBlend mode="normal" in="SourceGraphic" in2="effect1_dropShadow" result="shape"/>
</filter>
</defs>
</svg>
