<svg width="26" height="27" viewBox="0 0 26 27" fill="none" xmlns="http://www.w3.org/2000/svg">
<path d="M18.8275 10.1622V26.9628H2.68964C1.20419 26.9628 0 25.714 0 24.1735V2.78926C0 1.24879 1.20419 0 2.68964 0H18.8275V10.1622Z" fill="#D39933"/>
<path d="M11.9687 5.57851H2.68945C4.1749 5.57851 5.37909 4.32972 5.37909 2.78926C5.37909 1.24879 4.1749 2.32438e-08 2.68945 0H18.8273C20.3127 0 21.5169 1.24879 21.5169 2.78926C21.517 2.87004 21.5126 2.95076 21.5035 3.03099L11.9687 5.57851Z" fill="#ECAE59"/>
<path d="M18.8273 26.9628C20.3127 26.9628 21.5169 25.714 21.5169 24.1735C21.5169 22.6331 20.3127 21.3843 18.8273 21.3843H2.68945C4.1749 21.3843 5.37909 22.6331 5.37909 24.1735C5.37909 25.714 4.1749 26.9628 2.68945 26.9628H18.8273Z" fill="#ECAE59"/>
<path d="M26 2.10596C26 2.10596 25.6907 7.22889 22.8262 8.18189C21.8996 8.45225 20.9969 8.80372 20.1276 9.23251C19.7722 9.41594 19.437 9.63883 19.128 9.89728C18.5646 10.36 18.1043 10.9436 17.7787 11.608C17.6213 11.9325 17.4368 12.242 17.2273 12.5331C17.0173 12.8361 16.7802 13.1179 16.519 13.3746C14.6363 15.2155 12.117 15.1039 10.9694 14.1091L10.4942 13.4536C10.0639 12.5238 9.03736 9.59511 11.4177 6.28519C11.4132 6.28054 11.4132 6.28054 11.4177 6.27589C11.7034 5.8765 12.0165 5.49897 12.3546 5.14625C12.3683 5.12807 12.3833 5.11098 12.3994 5.09511C13.2756 4.14173 14.3899 3.45936 15.618 3.12404C15.9843 3.02364 16.3575 2.95215 16.7342 2.91019H16.7387C17.56 2.83192 18.3863 2.8257 19.2087 2.8916C19.63 2.91484 20.0559 2.94738 20.4773 2.97528C20.4818 2.97992 20.4818 2.97992 20.4818 2.97528C22.3421 3.10079 24.2024 3.14263 26 2.10596V2.10596Z" fill="#67B9CC"/>
<path d="M12.2557 7.87482C12.2068 7.89306 12.1552 7.9025 12.1033 7.90271C11.9145 7.90263 11.7461 7.77996 11.6819 7.59589C11.5378 7.1731 11.4488 6.7322 11.4174 6.28494C11.4129 6.28029 11.4129 6.28029 11.4174 6.27564C11.7032 5.87625 12.0163 5.49872 12.3543 5.146C12.2344 5.86067 12.293 6.59529 12.5247 7.27978C12.6087 7.52111 12.4883 7.78744 12.2557 7.87482V7.87482Z" fill="#2FA8CC"/>
<path d="M16.7339 2.91064C16.3359 3.57086 16.129 4.33562 16.1377 5.11416C16.1377 5.3709 15.937 5.57903 15.6894 5.57903C15.4418 5.57903 15.2411 5.3709 15.2411 5.11416C15.2356 4.43134 15.3637 3.75446 15.6177 3.12449C15.984 3.02409 16.3572 2.9526 16.7339 2.91064V2.91064Z" fill="#2FA8CC"/>
<path d="M20.4768 2.97528C19.9649 3.35249 19.5369 3.83915 19.2217 4.40245C19.0967 4.6096 18.8383 4.68102 18.6305 4.5659C18.4226 4.45077 18.3362 4.18841 18.4327 3.96546C18.6388 3.56987 18.9001 3.20801 19.2082 2.8916C19.6296 2.91485 20.0555 2.94739 20.4768 2.97528Z" fill="#2FA8CC"/>
<path d="M20.1275 9.23284C19.7721 9.41627 19.4369 9.63916 19.1279 9.89761C18.7242 9.73071 18.3591 9.47724 18.0565 9.15381C17.9315 9.03724 17.8799 8.85794 17.9228 8.68939C17.9658 8.52085 18.0961 8.39138 18.2603 8.35406C18.4245 8.31673 18.595 8.37782 18.702 8.51228C19.0908 8.90419 19.5903 9.15671 20.1275 9.23284Z" fill="#2FA8CC"/>
<path d="M17.227 12.5326C17.017 12.8356 16.7799 13.1173 16.5187 13.374C15.6649 13.2488 14.8444 12.9451 14.107 12.4815C13.8966 12.3454 13.8324 12.0582 13.9636 11.8399C14.0948 11.6217 14.3717 11.5551 14.5822 11.6912C15.3864 12.1865 16.2933 12.475 17.227 12.5326Z" fill="#2FA8CC"/>
<path d="M7.17264 18.1304H3.58646C3.33888 18.1304 3.13818 18.3385 3.13818 18.5952C3.13818 18.852 3.33888 19.0601 3.58646 19.0601H8.56991V18.1304H7.17264Z" fill="#35495E"/>
<path d="M3.58646 16.7354H7.17264C7.42022 16.7354 7.62092 16.5273 7.62092 16.2705C7.62092 16.0138 7.42022 15.8057 7.17264 15.8057H3.58646C3.33888 15.8057 3.13818 16.0138 3.13818 16.2705C3.13818 16.5273 3.33888 16.7354 3.58646 16.7354Z" fill="#35495E"/>
<path d="M3.58646 14.4112H8.06919C8.31676 14.4112 8.51746 14.2031 8.51746 13.9463C8.51746 13.6896 8.31676 13.4814 8.06919 13.4814H3.58646C3.33888 13.4814 3.13818 13.6896 3.13818 13.9463C3.13818 14.2031 3.33888 14.4112 3.58646 14.4112Z" fill="#35495E"/>
<path d="M3.58646 12.087H8.06919C8.31676 12.087 8.51746 11.8788 8.51746 11.6221C8.51746 11.3654 8.31676 11.1572 8.06919 11.1572H3.58646C3.33888 11.1572 3.13818 11.3654 3.13818 11.6221C3.13818 11.8788 3.33888 12.087 3.58646 12.087Z" fill="#35495E"/>
<path d="M3.58646 9.76227H8.06919C8.31676 9.76227 8.51746 9.55414 8.51746 9.2974C8.51746 9.04065 8.31676 8.83252 8.06919 8.83252H3.58646C3.33888 8.83252 3.13818 9.04065 3.13818 9.2974C3.13818 9.55414 3.33888 9.76227 3.58646 9.76227Z" fill="#35495E"/>
<path d="M8.56951 19.0597C8.43866 19.0597 8.31436 19.0004 8.22922 18.8973C8.14408 18.7943 8.1066 18.6578 8.12662 18.5237C8.63636 15.8739 9.75783 13.3918 11.395 11.2898C11.399 11.2842 11.4026 11.2791 11.4071 11.274C15.0484 6.59548 17.8174 5.4663 22.2885 4.82291C22.4471 4.79974 22.6056 4.8661 22.7043 4.99698C22.8029 5.12786 22.8268 5.30339 22.7668 5.45744C22.7068 5.61149 22.5722 5.72066 22.4135 5.74383C18.1047 6.36351 15.5926 7.39135 12.1346 11.8188C11.486 13.4834 11.1237 15.253 11.0642 17.0473C11.0631 17.1944 10.9949 17.3324 10.8804 17.4192L8.83444 18.9723C8.7573 19.0299 8.66452 19.0605 8.56951 19.0597Z" fill="#3F5C6C"/>
</svg>
