<svg width="608" height="55" viewBox="0 0 608 55" fill="none" xmlns="http://www.w3.org/2000/svg">
<g filter="url(#filter0_d)">
<path d="M5.12313 1.5795C4.65235 0.917421 5.12571 0 5.9381 0H602.042C602.859 0 603.331 0.924829 602.853 1.58608L587.726 22.4991C587.473 22.8489 587.473 23.3215 587.726 23.6712L602.853 44.5843C603.331 45.2455 602.859 46.1703 602.042 46.1703H5.93813C5.12573 46.1703 4.65235 45.2529 5.12313 44.5908L20.003 23.6647C20.2497 23.3177 20.2497 22.8526 20.003 22.5057L5.12313 1.5795Z" fill="#3A5358"/>
<path d="M21.2255 21.6364L6.90715 1.5H601.064L586.51 21.62C585.878 22.4944 585.878 23.676 586.51 24.5504L601.064 44.6703H6.90715L21.2255 24.5339C21.8422 23.6665 21.8423 22.5038 21.2255 21.6364Z" stroke="#D8A85C" stroke-width="3" stroke-linejoin="bevel"/>
</g>
<path d="M336.136 21.5513C336.175 18.4116 336.194 16.4536 336.194 15.6772C336.194 15.145 336.304 14.8325 336.524 14.7397C336.612 14.7007 337.01 14.6812 337.718 14.6812C338.426 14.6812 339.065 14.9814 339.637 15.582C340.335 16.3193 340.684 17.335 340.684 18.6289C340.684 19.8154 340.345 20.6577 339.666 21.1558C339.324 21.4048 338.982 21.5366 338.641 21.5513H336.136ZM341.893 24.1807C341.243 23.2236 340.667 22.5132 340.164 22.0493C341.199 21.1265 341.888 20.1255 342.229 19.0464C342.405 18.5044 342.476 18.0576 342.442 17.7061C342.442 15.7725 341.39 14.5908 339.285 14.1611C338.235 13.9463 337.186 13.9243 336.136 14.0952H333.133C333.333 14.1636 333.536 14.2734 333.741 14.4248C334.151 14.7227 334.371 15.0718 334.4 15.4722V27.623C334.371 28.0283 334.151 28.3799 333.741 28.6777C333.536 28.8242 333.333 28.9316 333.133 29H337.403C337.203 28.9316 337 28.8242 336.795 28.6777C336.385 28.3799 336.165 28.0283 336.136 27.623V22.5986C337.42 22.5986 338.511 22.9453 339.41 23.6387C339.859 23.9805 340.179 24.3247 340.369 24.6714C340.799 25.394 341.314 26.1167 341.915 26.8394C343.116 28.2798 344.136 29 344.976 29C345.816 29 346.446 28.8926 346.866 28.6777C347.081 28.5703 347.21 28.4653 347.254 28.3628C346.307 28.5581 345.262 28.0991 344.119 26.9858C343.479 26.3608 342.737 25.4258 341.893 24.1807ZM355.025 14.2637L355.589 14L355.025 16.7393C355.005 16.4658 354.925 16.1948 354.783 15.9263C354.505 15.3794 354.063 15.106 353.458 15.106H350.608V20.7163H353.743C354.349 20.7017 354.847 20.5356 355.237 20.2183L354.871 23.1553C354.861 22.8867 354.776 22.6206 354.615 22.3569C354.292 21.8296 353.755 21.5659 353.003 21.5659H350.608V27.1323C350.77 27.3423 350.999 27.5522 351.297 27.7622C351.897 28.1821 352.544 28.3921 353.238 28.3921C353.936 28.3921 354.588 28.0625 355.193 27.4033C355.496 27.0713 355.728 26.7417 355.889 26.4146L355.589 29H347.591C347.801 28.9268 348.013 28.812 348.228 28.6558C348.658 28.3335 348.873 27.9551 348.873 27.5205C348.873 26.8271 348.865 22.7476 348.851 15.2817C348.631 14.8325 348.123 14.4932 347.327 14.2637H355.025ZM359.749 21.5513C359.788 18.4116 359.808 16.4536 359.808 15.6772C359.808 15.145 359.917 14.8325 360.137 14.7397C360.225 14.7007 360.623 14.6812 361.331 14.6812C362.039 14.6812 362.679 14.9814 363.25 15.582C363.948 16.3193 364.297 17.335 364.297 18.6289C364.297 19.8154 363.958 20.6577 363.279 21.1558C362.938 21.4048 362.596 21.5366 362.254 21.5513H359.749ZM365.506 24.1807C364.856 23.2236 364.28 22.5132 363.777 22.0493C364.812 21.1265 365.501 20.1255 365.843 19.0464C366.019 18.5044 366.089 18.0576 366.055 17.7061C366.055 15.7725 365.003 14.5908 362.898 14.1611C361.849 13.9463 360.799 13.9243 359.749 14.0952H356.746C356.946 14.1636 357.149 14.2734 357.354 14.4248C357.764 14.7227 357.984 15.0718 358.013 15.4722V27.623C357.984 28.0283 357.764 28.3799 357.354 28.6777C357.149 28.8242 356.946 28.9316 356.746 29H361.016C360.816 28.9316 360.613 28.8242 360.408 28.6777C359.998 28.3799 359.778 28.0283 359.749 27.623V22.5986C361.033 22.5986 362.125 22.9453 363.023 23.6387C363.472 23.9805 363.792 24.3247 363.982 24.6714C364.412 25.394 364.927 26.1167 365.528 26.8394C366.729 28.2798 367.75 29 368.589 29C369.429 29 370.059 28.8926 370.479 28.6777C370.694 28.5703 370.823 28.4653 370.867 28.3628C369.92 28.5581 368.875 28.0991 367.732 26.9858C367.093 26.3608 366.351 25.4258 365.506 24.1807Z" fill="#E8E8E8"/>
<path d="M239.017 20.5112L243.433 16.1826C244.488 14.9668 245.484 14.2393 246.421 14H242.261C242.413 14 242.54 14.0317 242.642 14.0952C242.842 14.2222 242.815 14.4492 242.562 14.7764L236.951 20.3135L236.98 15.1572C237.132 14.6152 237.544 14.2295 238.218 14H233.919C234.119 14.0684 234.322 14.1782 234.527 14.3296C234.942 14.6274 235.164 14.979 235.193 15.3843V27.6157C235.164 28.021 234.942 28.3726 234.527 28.6704C234.322 28.8218 234.119 28.9316 233.919 29H238.218C238.018 28.9316 237.813 28.8218 237.603 28.6704C237.193 28.3726 236.971 28.021 236.937 27.6157V22.5474L237.881 21.6245L244.385 28.2676C244.581 28.5508 244.578 28.751 244.378 28.8682C244.275 28.9219 244.156 28.9487 244.019 28.9487H248.179C247.242 28.7144 246.246 27.9868 245.191 26.7661L239.017 20.5112ZM254.39 22.3936L256.258 17.3398L258.067 22.4082L254.39 22.3936ZM263.809 29C263.614 28.9561 263.396 28.8706 263.157 28.7437C262.679 28.4897 262.332 28.1528 262.117 27.7329C261.771 27.064 259.854 22.4863 256.368 14L251.226 27.623C251.163 27.8184 251.036 28.0234 250.845 28.2383C250.469 28.6631 249.964 28.917 249.329 29H253.724C253.533 28.9561 253.343 28.8853 253.152 28.7876C252.767 28.5825 252.574 28.3359 252.574 28.0479L254.156 23.3091H258.294L260.22 28.2822C259.683 28.4336 259.3 28.6729 259.07 29H263.809ZM267.977 21.5513C268.016 18.4116 268.035 16.4536 268.035 15.6772C268.035 15.145 268.145 14.8325 268.365 14.7397C268.453 14.7007 268.851 14.6812 269.559 14.6812C270.267 14.6812 270.906 14.9814 271.478 15.582C272.176 16.3193 272.525 17.335 272.525 18.6289C272.525 19.8154 272.186 20.6577 271.507 21.1558C271.165 21.4048 270.823 21.5366 270.481 21.5513H267.977ZM273.733 24.1807C273.084 23.2236 272.508 22.5132 272.005 22.0493C273.04 21.1265 273.729 20.1255 274.07 19.0464C274.246 18.5044 274.317 18.0576 274.283 17.7061C274.283 15.7725 273.23 14.5908 271.126 14.1611C270.076 13.9463 269.026 13.9243 267.977 14.0952H264.974C265.174 14.1636 265.376 14.2734 265.582 14.4248C265.992 14.7227 266.211 15.0718 266.241 15.4722V27.623C266.211 28.0283 265.992 28.3799 265.582 28.6777C265.376 28.8242 265.174 28.9316 264.974 29H269.244C269.043 28.9316 268.841 28.8242 268.636 28.6777C268.226 28.3799 268.006 28.0283 267.977 27.623V22.5986C269.261 22.5986 270.352 22.9453 271.25 23.6387C271.7 23.9805 272.02 24.3247 272.21 24.6714C272.64 25.394 273.155 26.1167 273.755 26.8394C274.957 28.2798 275.977 29 276.817 29C277.657 29 278.287 28.8926 278.707 28.6777C278.921 28.5703 279.051 28.4653 279.095 28.3628C278.147 28.5581 277.103 28.0991 275.96 26.9858C275.32 26.3608 274.578 25.4258 273.733 24.1807ZM284.229 22.3936L286.097 17.3398L287.906 22.4082L284.229 22.3936ZM293.648 29C293.453 28.9561 293.235 28.8706 292.996 28.7437C292.518 28.4897 292.171 28.1528 291.956 27.7329C291.609 27.064 289.693 22.4863 286.207 14L281.065 27.623C281.001 27.8184 280.875 28.0234 280.684 28.2383C280.308 28.6631 279.803 28.917 279.168 29H283.562C283.372 28.9561 283.182 28.8853 282.991 28.7876C282.605 28.5825 282.413 28.3359 282.413 28.0479L283.995 23.3091H288.133L290.059 28.2822C289.522 28.4336 289.139 28.6729 288.909 29H293.648ZM299.91 20.5112L304.327 16.1826C305.381 14.9668 306.377 14.2393 307.315 14H303.155C303.306 14 303.433 14.0317 303.536 14.0952C303.736 14.2222 303.709 14.4492 303.455 14.7764L297.845 20.3135L297.874 15.1572C298.025 14.6152 298.438 14.2295 299.112 14H294.812C295.013 14.0684 295.215 14.1782 295.42 14.3296C295.835 14.6274 296.058 14.979 296.087 15.3843V27.6157C296.058 28.021 295.835 28.3726 295.42 28.6704C295.215 28.8218 295.013 28.9316 294.812 29H299.112C298.912 28.9316 298.707 28.8218 298.497 28.6704C298.086 28.3726 297.864 28.021 297.83 27.6157V22.5474L298.775 21.6245L305.279 28.2676C305.474 28.5508 305.472 28.751 305.271 28.8682C305.169 28.9219 305.049 28.9487 304.913 28.9487H309.073C308.135 28.7144 307.139 27.9868 306.084 26.7661L299.91 20.5112ZM319.517 14.2637H308.941L308.377 14L308.941 16.7393C308.96 16.4658 309.039 16.1948 309.175 15.9263C309.458 15.3794 309.903 15.106 310.508 15.106H313.335L313.343 15.2817C313.348 18.1187 313.353 20.7065 313.357 23.0454V27.6157C313.323 28.021 313.101 28.3726 312.691 28.6704C312.481 28.8218 312.276 28.9316 312.076 29H316.375C316.175 28.9316 315.972 28.8218 315.767 28.6704C315.352 28.3726 315.13 28.021 315.101 27.6157V23.0454C315.105 20.7065 315.11 18.1187 315.115 15.2817V15.106H317.95C318.555 15.106 318.997 15.3794 319.275 15.9263C319.417 16.1948 319.498 16.4658 319.517 16.7393L320.081 14L319.517 14.2637Z" fill="#E8E8E8"/>
<path d="M323.963 22.834L325.706 18.1172L327.395 22.8477L323.963 22.834ZM332.754 29C332.572 28.959 332.369 28.8792 332.146 28.7607C331.699 28.5238 331.375 28.2093 331.175 27.8174C330.851 27.193 329.062 22.9206 325.809 15L321.01 27.7148C320.951 27.8971 320.832 28.0885 320.654 28.2891C320.303 28.6855 319.832 28.9225 319.239 29H323.341C323.163 28.959 322.985 28.8929 322.808 28.8018C322.448 28.6104 322.268 28.3802 322.268 28.1113L323.744 23.6885H327.606L329.404 28.3301C328.903 28.4714 328.545 28.6947 328.331 29H332.754Z" fill="#E8E8E8"/>
<path fill-rule="evenodd" clip-rule="evenodd" d="M323.223 15.3114C323.38 15.4599 323.568 15.5342 323.786 15.5342C324.005 15.5342 324.188 15.4599 324.337 15.3114C324.485 15.1629 324.559 14.9794 324.559 14.761C324.559 14.5426 324.485 14.3591 324.337 14.2106C324.188 14.0621 324.005 13.9878 323.786 13.9878C323.568 13.9878 323.38 14.0621 323.223 14.2106C323.074 14.3591 323 14.5426 323 14.761C323 14.9794 323.074 15.1629 323.223 15.3114ZM326.676 15.3114C326.834 15.4599 327.022 15.5342 327.24 15.5342C327.458 15.5342 327.637 15.4599 327.777 15.3114C327.926 15.1629 328 14.9794 328 14.761C328 14.5426 327.926 14.3591 327.777 14.2106C327.637 14.0621 327.458 13.9878 327.24 13.9878C327.022 13.9878 326.834 14.0621 326.676 14.2106C326.528 14.3591 326.454 14.5426 326.454 14.761C326.454 14.9794 326.528 15.1629 326.676 15.3114Z" fill="#E8E8E8"/>
<defs>
<filter id="filter0_d" x="0.936401" y="0" width="606.108" height="54.1703" filterUnits="userSpaceOnUse" color-interpolation-filters="sRGB">
<feFlood flood-opacity="0" result="BackgroundImageFix"/>
<feColorMatrix in="SourceAlpha" type="matrix" values="0 0 0 0 0 0 0 0 0 0 0 0 0 0 0 0 0 0 127 0"/>
<feOffset dy="4"/>
<feGaussianBlur stdDeviation="2"/>
<feColorMatrix type="matrix" values="0 0 0 0 0 0 0 0 0 0 0 0 0 0 0 0 0 0 0.25 0"/>
<feBlend mode="normal" in2="BackgroundImageFix" result="effect1_dropShadow"/>
<feBlend mode="normal" in="SourceGraphic" in2="effect1_dropShadow" result="shape"/>
</filter>
</defs>
</svg>
