<svg width="47" height="67" viewBox="0 0 47 67" fill="none" xmlns="http://www.w3.org/2000/svg">
<g filter="url(#filter0_df)">
<path d="M10.7016 10.8413L10.8213 10.6225C10.949 10.3891 11.1236 10.1846 11.334 10.0219C11.8068 9.65629 12.0727 9.09127 12.1233 8.49575C12.1611 8.0504 12.2306 7.624 12.3507 7.48885C13.0712 6.67849 13.9703 6.02383 15.0546 6.02383H15.175H15.8239H16.6697C17.0816 6.02383 17.4769 5.86192 17.7704 5.57305L18.6482 4.82175C18.8899 4.59636 19.442 4.14559 19.7168 4.14559H21.6633C22.503 4.14559 22.4648 4.14559 23.6861 3.76993C24.9075 3.39428 25.0983 3.13134 25.5181 2.5303C25.6218 2.38184 25.8397 2.27254 26.1128 2.1931C27.3993 1.81888 28.7665 2.18085 30.0599 2.5303C30.6833 2.65551 32.014 2.95102 32.3499 3.13134C32.7697 3.35673 33.4949 3.73237 34.1055 4.14559C34.7162 4.5588 36.4337 5.00958 36.9298 5.23497C37.426 5.46036 37.9603 5.76088 38.113 6.02383C38.1218 6.03904 38.1322 6.05735 38.1438 6.07837C38.6154 6.92809 38.7165 7.93263 38.4947 8.87876L38.0806 9.9558C38.0005 10.164 37.9375 10.3784 37.8921 10.5968L37.7253 11.3994C37.6548 11.7386 37.6945 12.0914 37.8386 12.4065C37.9191 12.5826 37.9675 12.7717 37.9815 12.9649L38.001 13.2336C38.0244 13.5561 37.9692 13.8795 37.8401 14.176L37.7025 14.492C37.5516 14.8387 37.8289 15.2898 37.6168 15.6029C37.5035 15.7702 37.5906 16.0092 37.5385 16.2044C37.5086 16.3165 37.4796 16.4213 37.4642 16.4669C37.426 16.5796 37.3878 16.8425 37.3878 17.0303C37.3878 17.2182 37.3878 17.1806 37.3115 17.2182C37.2352 17.2557 37.0443 17.4811 36.9298 17.7441C36.8382 17.9544 36.8917 18.1072 36.9298 18.1573L37.3878 18.7583C37.5532 18.9587 37.8993 19.3744 37.9603 19.4345C38.0367 19.5096 38.1893 19.8477 38.342 20.0731C38.4947 20.2985 38.4183 20.5239 38.342 20.7493C38.2657 20.9746 38.113 21.1625 38.0367 21.3127C37.9603 21.463 37.6168 21.7259 37.3878 21.9138C37.2392 22.0356 37.4085 22.2671 37.4382 22.457C37.4709 22.6651 37.5023 22.8712 37.5023 22.8905C37.5023 23.3377 37.9059 23.6839 38.1856 24.0328C38.2421 24.1033 38.2958 24.1745 38.342 24.2428C38.571 24.5809 38.4947 24.6184 38.4947 24.7687C38.4947 24.919 38.4183 25.1068 38.342 25.2946C38.2657 25.4824 38.2275 25.4824 38.113 25.6702C37.9985 25.8581 38.0748 25.7829 37.9603 26.0459C37.8458 26.3089 37.9603 26.3089 37.9603 26.4967C37.9603 26.6845 37.8077 26.7596 37.6168 26.9099C37.426 27.0602 37.3115 27.1353 37.0062 27.248C36.7008 27.3607 36.6245 27.3982 36.4337 27.4358C36.2409 27.4738 36.4632 27.7599 36.5194 27.9482L36.5282 27.9774C36.5913 28.1888 36.6079 28.4166 36.5235 28.6204C36.4968 28.6851 36.4664 28.7452 36.4337 28.7881C36.3421 28.9083 36.3955 29.1638 36.4337 29.2765C36.5076 29.4463 36.6394 29.5843 36.8055 29.6661L37.0825 29.8024C37.1588 29.84 37.3497 30.0278 37.426 30.1405C37.5023 30.2532 37.5787 30.5161 37.7313 30.6664C37.8686 30.8015 38.0644 30.8243 38.2561 30.842C38.2847 30.8447 38.3136 30.8486 38.342 30.8542C38.5328 30.8918 38.7618 31.1547 38.7618 31.305C38.7618 31.5722 38.9453 31.8356 38.8413 32.0817C38.8206 32.1308 38.7945 32.1744 38.7618 32.2065C38.7196 32.2481 38.7005 32.2879 38.6956 32.3237C38.6809 32.4334 38.7905 32.5189 38.846 32.6146C38.8914 32.6926 38.9494 32.7625 39.0178 32.8214L39.2198 32.9954L39.5472 33.2255C39.6834 33.3213 39.7961 33.4467 39.8768 33.5923C39.947 33.719 39.9943 33.8583 39.9989 34.0031C40.0019 34.0956 39.9993 34.1874 39.9831 34.235C39.945 34.3477 39.9068 34.4228 39.8305 34.5731L39.8305 34.5731C39.7541 34.7234 39.6778 34.7234 39.487 34.8736C39.2961 35.0239 39.4106 35.0239 39.4106 35.1742C39.4106 35.3732 39.4406 35.5719 39.5163 35.756C39.5685 35.8829 39.628 36.0104 39.6778 36.0757C39.7923 36.226 39.8305 36.4889 39.8305 36.5641C39.8305 36.6392 39.7923 36.8646 39.7541 36.9773C39.6612 37.2516 39.4008 37.4262 39.1269 37.5206C39.0239 37.5561 38.94 37.5908 38.9145 37.6159C38.8753 37.6544 38.7504 37.6538 38.6322 37.6418C38.5216 37.6306 38.4091 37.6625 38.3298 37.7405C38.2878 37.7819 38.2574 37.8336 38.2416 37.8905L38.1512 38.2169L37.884 39.0809C37.8458 39.3188 37.7619 39.8172 37.7313 39.9073C37.6932 40.02 37.655 40.2454 37.5787 40.3581C37.5023 40.4708 37.2352 40.5835 37.1207 40.6586C37.0062 40.7338 36.8917 40.8465 36.8153 40.9216L36.8131 40.9238C36.6827 41.0574 36.7408 41.2763 36.8153 41.4475C36.8535 41.5477 36.9451 41.763 37.0062 41.8231C37.0825 41.8983 37.1207 42.0485 37.1207 42.1237C37.1207 42.4079 37.2747 42.6559 37.2362 42.9376C37.2355 42.9424 37.2352 42.9466 37.2352 42.9501C37.2352 43.139 37.1207 43.313 37.1207 43.5019V43.6002C37.1207 43.6925 37.1299 43.7845 37.1483 43.8749L37.2352 44.3024C37.2861 44.4902 37.3878 44.8734 37.3878 44.9035V45.1907C37.3878 45.5414 37.359 45.9883 37.0443 46.1431C36.968 46.1807 36.8153 46.3685 36.7008 46.4812C36.5863 46.5939 36.3573 46.669 36.2047 46.7817C35.9456 46.973 36.0956 47.4315 35.9016 47.6886C35.8494 47.7579 35.8061 47.8126 35.7848 47.8335C35.7238 47.8936 35.3777 47.9086 35.2124 47.9086H35.1623C34.8546 47.9086 34.5452 48.0296 34.3727 48.2843C34.1831 48.5642 33.8935 48.8101 33.5574 48.8463C33.5488 48.8473 33.5407 48.8478 33.533 48.8478H33.5196C33.3285 48.8478 33.1516 48.9605 32.9605 48.9605C32.8842 48.9605 32.5789 49.2234 32.388 49.3361C32.1972 49.4488 32.1209 49.4864 32.0445 49.4864C31.9682 49.4864 31.5866 49.5239 31.4339 49.4864C31.2812 49.4488 31.3194 49.4112 31.2049 49.3361C31.0904 49.261 31.0141 49.0732 30.8614 48.9605C30.7087 48.8478 30.5942 48.8478 30.4034 48.8478C30.2126 48.8478 29.9836 48.6599 29.8309 48.6599C29.7611 48.6599 29.6631 48.7008 29.5752 48.7476C29.4687 48.8042 29.4111 48.9196 29.4111 49.0402C29.4111 49.0621 29.413 49.084 29.4169 49.1056L29.5256 49.7118L29.6504 50.5105C29.6685 50.6262 29.6497 50.7446 29.5967 50.849C29.5502 50.9405 29.4793 51.0174 29.3918 51.0712L29.3292 51.1098C29.257 51.1542 29.1784 51.1876 29.0956 51.2054C28.9896 51.2283 28.8633 51.2519 28.8004 51.2519C28.6859 51.2519 28.5714 51.1017 28.4569 50.989C28.3424 50.8763 28.2279 50.989 28.1898 50.8387C28.1516 50.6884 27.9608 50.7636 27.8081 50.6884C27.7951 50.682 27.7817 50.6773 27.7681 50.674C27.5574 50.6227 27.3338 50.7957 27.2356 50.989C27.1593 51.1392 27.0066 51.2144 27.0066 51.327C27.0066 51.4397 26.8539 51.4773 26.6631 51.4773C26.4723 51.4773 26.5104 51.5524 26.2814 51.5524C26.0524 51.5524 26.0143 51.4022 25.8616 51.4022H25.2891C25.0084 51.4022 24.9364 51.7763 24.8321 52.037C24.8191 52.0694 24.8059 52.0968 24.793 52.1159C24.7166 52.2286 24.793 52.4164 24.793 52.4916C24.793 52.5017 24.7893 52.5191 24.783 52.5417C24.6924 52.8664 24.4989 53.1566 24.2586 53.3931C24.1823 53.4682 23.9915 53.3931 23.877 53.3931H23.2663C23.0373 53.3931 22.961 53.5434 22.9228 53.5809C22.8846 53.6185 22.5793 53.8439 22.5793 53.9942C22.5793 54.1824 22.5846 54.3887 22.7213 54.5181C22.8087 54.6009 22.8992 54.6775 22.961 54.7079L22.9791 54.7168C23.168 54.8098 23.4216 54.9307 23.5716 54.783C23.7143 54.6426 23.9526 54.6115 24.0269 54.4257C24.0447 54.3813 24.0593 54.3365 24.0678 54.2947C24.074 54.2644 24.0854 54.2356 24.1004 54.2086C24.2024 54.0249 24.392 53.8979 24.4992 53.717L24.5588 53.6165C24.5874 53.5682 24.6248 53.5255 24.6689 53.4908C24.7493 53.4275 24.8486 53.3931 24.9508 53.3931H25.1746H25.2429C25.4722 53.3931 25.7577 53.3722 25.8616 53.1677C25.9654 52.9634 26.2832 53.0175 26.5123 53.0175H26.8539C27.1366 53.0175 27.3969 52.8641 27.5339 52.6169L27.5409 52.6043C27.6045 52.4415 27.747 52.0934 27.8081 52.0032C27.8383 51.9586 27.9258 51.8754 28.0235 51.789C28.1939 51.6383 28.4349 51.6019 28.6476 51.6824C28.7479 51.7204 28.837 51.7828 28.9069 51.8641L29.2202 52.2286C29.3602 52.3538 29.6477 52.6268 29.6782 52.7169C29.7164 52.8296 29.9836 52.6043 30.0519 52.4916C30.1202 52.3789 30.0599 52.2286 30.0981 52.1159C30.1362 52.0032 30.0217 51.6651 29.9836 51.4022C29.9454 51.1392 29.9836 51.2144 30.2126 50.989C30.4416 50.7636 30.3271 50.8387 30.4797 50.7636C30.6324 50.6884 30.7469 50.726 31.0141 50.7636C31.2812 50.8011 31.4339 50.8011 31.4339 50.8387C31.4339 51.103 31.7787 51.239 31.9074 51.4698C31.9513 51.5486 31.9987 51.62 32.0445 51.6651C32.1972 51.8154 32.0446 51.8905 32.1209 52.0032C32.1819 52.0934 32.3244 52.1159 32.388 52.1159H32.8079C32.9987 52.1159 33.1132 52.1159 33.3422 52.2286C33.5712 52.3413 33.4949 52.2286 33.6857 52.3789C33.8765 52.5291 33.9147 52.5291 34.1437 52.4916C34.3727 52.454 34.3345 52.4164 34.449 52.3789C34.5635 52.3413 34.7925 52.3037 35.0597 52.2286C35.258 52.1728 35.4115 52.3849 35.2777 52.5415C35.2534 52.5699 35.2311 52.5919 35.2124 52.6043C35.0979 52.6794 34.907 52.9048 34.6017 53.0175C34.2964 53.1302 34.2964 53.2804 34.1437 53.5434C33.991 53.8063 33.8765 53.7688 33.762 53.9942C33.6475 54.2195 33.4185 54.1444 33.3422 54.1444C33.2659 54.1444 32.7315 54.2947 32.617 54.2947H32.0445C31.8364 54.2947 31.7491 54.0028 31.8551 53.8237C31.8665 53.8045 31.8787 53.786 31.8919 53.7688C32.0064 53.6185 31.8919 53.2804 31.8919 53.1677C31.8919 53.055 31.5866 52.9048 31.4339 52.8296C31.3118 52.7695 31.0013 52.8547 30.8614 52.9048L30.8366 52.91C30.4978 52.9815 30.1772 53.1677 29.8309 53.1677H28.9912C28.6859 53.1677 28.4569 53.4682 28.3806 53.5434C28.3043 53.6185 28.1516 53.919 28.1134 53.9942C28.0753 54.0693 27.8844 54.182 27.8081 54.2947C27.7318 54.4074 27.5409 54.5952 27.4646 54.7079C27.3883 54.8206 27.1974 55.0084 27.0066 55.1587C26.8158 55.3089 26.8539 55.1587 26.6631 55.1587L26.6487 55.1584C26.4245 55.1494 26.1742 55.1515 26.0143 55.3089C25.9379 55.3841 25.7853 55.5719 25.7471 55.5719C25.7089 55.5719 25.1365 55.9475 25.0601 55.9475C25.0042 55.9475 24.6878 55.7374 24.4981 55.6059C24.4656 55.5833 24.4353 55.5579 24.4071 55.5302L24.2071 55.3334C24.0265 55.1556 23.7346 55.1625 23.5626 55.3487C23.5183 55.3967 23.485 55.4539 23.465 55.5161L23.3823 55.7739C23.3067 56.0095 23.1678 56.225 22.961 56.3607C22.7265 56.5146 22.4719 56.6504 22.3236 56.8884C22.2686 56.9766 22.2213 57.0682 22.1976 57.1496C22.1366 57.36 21.6633 57.3625 21.4343 57.3374H21.2123C20.9097 57.3374 20.6301 57.1496 20.3275 57.1496C20.0796 57.1496 19.8382 57.229 19.6388 57.3763L19.4878 57.4877C19.3352 57.6254 19.0069 57.9009 18.9153 57.9009C18.8625 57.9009 18.6886 57.8676 18.5094 57.8297C18.271 57.7794 18.0386 57.7047 17.8128 57.6132L17.5994 57.5267C17.5353 57.5007 17.4695 57.4794 17.4024 57.4629L17.3633 57.4533C17.0592 57.3784 16.7477 57.4877 16.4345 57.4877C16.2819 57.4877 16.1674 57.7506 16.0529 57.9009C15.9384 58.0512 15.8239 58.0136 15.7094 57.9009C15.5949 57.7882 15.4422 57.6755 15.2895 57.4877C15.233 57.4181 15.1525 57.3137 15.0722 57.2079C14.9143 56.9999 14.6983 56.8429 14.4502 56.7615L14.3638 56.7332C14.2944 56.7104 14.2219 56.6988 14.1489 56.6988C13.9301 56.6988 13.7245 56.5949 13.594 56.4194C13.5109 56.3077 13.4283 56.1971 13.3812 56.1353C13.2896 56.0151 13.0377 55.6094 12.9232 55.4216C12.7538 55.1596 12.4774 54.9857 12.1679 54.9464L11.7478 54.8931C11.5688 54.8703 11.4011 54.7934 11.2672 54.6725L11.1904 54.6033C11.0775 54.5013 10.9307 54.4449 10.7785 54.4449C10.7327 54.4449 10.687 54.4501 10.6424 54.4602L10.4504 54.5038C10.2948 54.5391 10.1329 54.536 9.97871 54.4946C9.85646 54.4618 9.74171 54.4056 9.6408 54.3292L9.63456 54.3245C9.4187 54.1611 9.27657 53.9186 9.23941 53.6504L9.18294 53.2429L9.08227 52.6236C9.04813 52.4136 9.06597 52.1983 9.13423 51.9968L9.16312 51.9115C9.24949 51.6565 9.23672 51.3783 9.12735 51.1322C9.06342 50.9884 8.96883 50.8604 8.84922 50.758C8.50784 50.466 8.02552 50.0625 7.92345 50.0123C7.8146 49.9587 7.63702 49.5629 7.53664 49.3091C7.51418 49.2523 7.48631 49.1979 7.45205 49.1473C7.33836 48.9794 7.28853 48.7709 7.35879 48.5807C7.39679 48.4778 7.44562 48.3789 7.50362 48.3219C7.65629 48.1716 7.69445 47.8711 7.69445 47.7584V47.3452V47.3209C7.69445 47.1134 7.73231 46.9077 7.80618 46.7139C7.88364 46.5105 7.99842 46.3231 8.15085 46.1678C8.27998 46.0363 8.42704 45.8928 8.53411 45.805C8.6178 45.7364 8.83217 45.4905 8.90211 45.4079L9.23905 45.01C9.27741 44.9647 9.30427 44.9108 9.31734 44.8529L9.4501 44.2649L9.53396 44.0356C9.68989 43.6093 10.0955 43.3257 10.5495 43.3257H10.6424C10.687 43.3257 10.7312 43.3192 10.7739 43.3063L11.1686 43.1867C11.3802 43.1227 11.4208 42.8408 11.236 42.7195C11.1144 42.6397 11.0817 42.4759 11.1632 42.3555L11.568 41.7579C11.6553 41.6291 11.7019 41.477 11.7019 41.3213C11.7019 41.0104 11.887 40.7292 12.1726 40.6062L12.8509 40.3141C12.8986 40.2936 12.9501 40.283 13.002 40.283C13.2837 40.283 13.4686 39.9887 13.3465 39.735L13.1178 39.2597C12.9989 39.0126 12.7489 38.8555 12.4746 38.8555H12.3923C12.1929 38.8555 12 38.785 11.8476 38.6564L11.1242 38.0462C11.0536 37.9866 10.9643 37.954 10.8719 37.954H10.8648C10.6526 37.954 10.4806 37.7819 10.4806 37.5697C10.4806 37.4783 10.5132 37.3898 10.5726 37.3203L11.7234 35.9718C11.9559 35.6994 12.0836 35.3531 12.0836 34.995C12.0836 34.6264 11.9483 34.2707 11.7034 33.9953L11.0149 33.2208L10.7382 32.9096C10.5744 32.7252 10.3395 32.6197 10.0928 32.6197C9.89898 32.6197 9.7108 32.5546 9.55853 32.4347L9.47569 32.3694C9.19444 32.148 9.03027 31.8098 9.03027 31.4518V31.2266C9.03027 31.1066 9.06822 30.9897 9.13867 30.8927L9.34526 30.608C9.53198 30.3507 9.34818 29.9902 9.03027 29.9902H8.98136C8.32436 29.9902 7.69009 29.7497 7.19829 29.314L6.2823 28.6379L6.08832 28.4742C5.87251 28.2922 5.74797 28.0242 5.74797 27.7418C5.74797 27.5428 5.80996 27.3486 5.92533 27.1864L5.94283 27.1618C6.15153 26.8684 6.18011 26.4833 6.01702 26.1623L5.90863 25.9489C5.81006 25.7549 5.61088 25.6327 5.39325 25.6327C5.32494 25.6327 5.25718 25.6206 5.19309 25.5969L4.66763 25.403C4.27438 25.2578 3.92296 25.018 3.64445 24.7047L3.29673 24.3136C3.10559 24.0986 3 23.8209 3 23.5332C3 23.3816 3.02935 23.2314 3.08643 23.091L3.40286 22.3124C3.43868 22.2242 3.50169 22.1498 3.58272 22.1C3.82986 21.948 3.86884 21.6044 3.66205 21.4009L3.60886 21.3485C3.51234 21.2535 3.458 21.1238 3.458 20.9884V20.6741V20.5033C3.458 19.9917 3.68096 19.5054 4.06866 19.1715L4.30128 18.9998C4.55267 18.8142 4.78482 18.6039 4.99425 18.372L5.05287 18.3071C5.21059 18.1325 5.38441 17.9731 5.57202 17.831L6.00632 17.5022C6.18778 17.3649 6.33451 17.1868 6.43474 16.9825C6.67005 16.5027 6.62371 15.9327 6.31402 15.4972L6.2823 15.4526L5.51898 14.5511L5.56922 14.5016C5.68357 14.389 5.74797 14.2353 5.74797 14.0748C5.74797 13.8585 5.86467 13.659 6.05323 13.5529L6.81663 13.1236L7.64678 12.7968C7.85482 12.7149 8.0764 12.6728 8.29998 12.6728C8.76798 12.6728 9.21722 12.4888 9.55076 12.1605L9.7936 11.9215L10.1523 11.5684C10.37 11.3542 10.5551 11.1092 10.7016 10.8413Z" fill="white"/>
<path d="M5.28998 14.7764L5.51898 14.5511M5.51898 14.5511L5.56922 14.5016C5.68357 14.389 5.74797 14.2353 5.74797 14.0748V14.0748C5.74797 13.8585 5.86467 13.659 6.05323 13.5529L6.81663 13.1236L7.64678 12.7968C7.85482 12.7149 8.0764 12.6728 8.29998 12.6728V12.6728C8.76798 12.6728 9.21722 12.4888 9.55076 12.1605L9.7936 11.9215L10.1523 11.5684C10.37 11.3542 10.5551 11.1092 10.7016 10.8413L10.8213 10.6225C10.949 10.3891 11.1236 10.1846 11.334 10.0219V10.0219C11.8068 9.65629 12.0727 9.09127 12.1233 8.49575C12.1611 8.0504 12.2306 7.624 12.3507 7.48885V7.48885C13.0712 6.67849 13.9703 6.02383 15.0546 6.02383C15.1 6.02383 15.1405 6.02383 15.175 6.02383C15.5414 6.02383 15.7603 6.02383 15.8239 6.02383H16.6697C17.0816 6.02383 17.4769 5.86192 17.7704 5.57305V5.57305L18.6482 4.82175C18.8899 4.59636 19.442 4.14559 19.7168 4.14559C20.0603 4.14559 20.8237 4.14559 21.6633 4.14559C22.503 4.14559 22.4648 4.14559 23.6861 3.76993C24.9075 3.39428 25.0983 3.13134 25.5181 2.5303C25.6218 2.38184 25.8397 2.27254 26.1128 2.1931C27.3993 1.81888 28.7665 2.18085 30.0599 2.5303V2.5303C30.6833 2.65551 32.014 2.95102 32.3499 3.13134C32.7697 3.35673 33.4949 3.73237 34.1055 4.14559C34.7162 4.5588 36.4337 5.00958 36.9298 5.23497C37.426 5.46036 37.9603 5.76088 38.113 6.02383C38.1218 6.03904 38.1322 6.05735 38.1438 6.07837C38.6154 6.92809 38.7165 7.93263 38.4947 8.87876V8.87876L38.0806 9.9558C38.0005 10.164 37.9375 10.3784 37.8921 10.5968L37.7253 11.3994C37.6548 11.7386 37.6945 12.0914 37.8386 12.4065V12.4065C37.9191 12.5826 37.9675 12.7717 37.9815 12.9649L38.001 13.2336C38.0244 13.5561 37.9692 13.8795 37.8401 14.176L37.7025 14.492C37.5516 14.8387 37.8289 15.2898 37.6168 15.6029V15.6029V15.6029C37.5035 15.7702 37.5906 16.0092 37.5385 16.2044C37.5086 16.3165 37.4796 16.4213 37.4642 16.4669C37.426 16.5796 37.3878 16.8425 37.3878 17.0303C37.3878 17.2182 37.3878 17.1806 37.3115 17.2182C37.2352 17.2557 37.0443 17.4811 36.9298 17.7441C36.8382 17.9544 36.8917 18.1072 36.9298 18.1573L37.3878 18.7583C37.5532 18.9587 37.8993 19.3744 37.9603 19.4345C38.0367 19.5096 38.1893 19.8477 38.342 20.0731C38.4947 20.2985 38.4183 20.5239 38.342 20.7493C38.2657 20.9746 38.113 21.1625 38.0367 21.3127C37.9603 21.463 37.6168 21.7259 37.3878 21.9138V21.9138C37.2392 22.0356 37.4085 22.2671 37.4382 22.457C37.4709 22.6651 37.5023 22.8712 37.5023 22.8905V22.8905C37.5023 23.3377 37.9059 23.6839 38.1856 24.0328C38.2421 24.1033 38.2958 24.1745 38.342 24.2428C38.571 24.5809 38.4947 24.6184 38.4947 24.7687C38.4947 24.919 38.4183 25.1068 38.342 25.2946C38.2657 25.4824 38.2275 25.4824 38.113 25.6703C37.9985 25.8581 38.0748 25.7829 37.9603 26.0459C37.8458 26.3089 37.9603 26.3089 37.9603 26.4967C37.9603 26.6845 37.8077 26.7596 37.6168 26.9099C37.426 27.0602 37.3115 27.1353 37.0062 27.248C36.7008 27.3607 36.6245 27.3982 36.4337 27.4358V27.4358C36.2409 27.4738 36.4632 27.7599 36.5194 27.9482L36.5282 27.9774C36.5913 28.1888 36.6079 28.4166 36.5235 28.6204C36.4968 28.6851 36.4664 28.7452 36.4337 28.7881C36.3421 28.9083 36.3955 29.1638 36.4337 29.2765V29.2765C36.5076 29.4463 36.6394 29.5843 36.8055 29.6661C36.9294 29.727 37.0478 29.7853 37.0825 29.8024C37.1588 29.84 37.3497 30.0278 37.426 30.1405C37.5023 30.2532 37.5787 30.5161 37.7313 30.6664V30.6664C37.8686 30.8015 38.0644 30.8243 38.2562 30.842C38.2847 30.8447 38.3136 30.8486 38.342 30.8542C38.5328 30.8918 38.7618 31.1547 38.7618 31.305V31.305C38.7618 31.5722 38.9453 31.8356 38.8413 32.0817C38.8206 32.1308 38.7945 32.1744 38.7618 32.2065C38.7196 32.2481 38.7005 32.2879 38.6956 32.3237C38.6809 32.4334 38.7905 32.5189 38.846 32.6146V32.6146C38.8914 32.6926 38.9494 32.7625 39.0178 32.8214L39.2198 32.9954L39.5472 33.2255C39.6834 33.3213 39.7961 33.4467 39.8768 33.5923V33.5923C39.947 33.719 39.9943 33.8583 39.9989 34.0031C40.0019 34.0956 39.9993 34.1874 39.9831 34.235C39.945 34.3477 39.9068 34.4229 39.8305 34.5731C39.7541 34.7234 39.6778 34.7234 39.487 34.8736C39.2961 35.0239 39.4106 35.0239 39.4106 35.1742V35.1742C39.4106 35.3732 39.4406 35.5719 39.5163 35.756C39.5685 35.8829 39.628 36.0104 39.6778 36.0757C39.7923 36.226 39.8305 36.4889 39.8305 36.5641C39.8305 36.6392 39.7923 36.8646 39.7541 36.9773V36.9773C39.6612 37.2516 39.4008 37.4262 39.127 37.5206C39.0239 37.5561 38.94 37.5908 38.9145 37.6159C38.8753 37.6544 38.7504 37.6538 38.6322 37.6418C38.5216 37.6306 38.4091 37.6625 38.3298 37.7405V37.7405C38.2878 37.7819 38.2574 37.8336 38.2416 37.8905L38.1512 38.2169L37.884 39.0809C37.8458 39.3188 37.7619 39.8172 37.7313 39.9073C37.6932 40.02 37.655 40.2454 37.5787 40.3581C37.5023 40.4708 37.2352 40.5835 37.1207 40.6586C37.0062 40.7338 36.8917 40.8465 36.8153 40.9216C36.8146 40.9223 36.8139 40.9231 36.8131 40.9238C36.6827 41.0574 36.7408 41.2763 36.8153 41.4475V41.4475C36.8535 41.5477 36.9451 41.763 37.0062 41.8231C37.0825 41.8983 37.1207 42.0485 37.1207 42.1237V42.1237C37.1207 42.4079 37.2747 42.6559 37.2362 42.9376C37.2355 42.9424 37.2352 42.9466 37.2352 42.9501V42.9501C37.2352 43.139 37.1207 43.313 37.1207 43.5019V43.6002C37.1207 43.6925 37.1299 43.7845 37.1483 43.8749L37.2352 44.3024C37.2861 44.4902 37.3878 44.8734 37.3878 44.9035C37.3878 44.9173 37.3878 45.0384 37.3878 45.1907C37.3878 45.5414 37.359 45.9883 37.0443 46.1431V46.1431C36.968 46.1807 36.8153 46.3685 36.7008 46.4812C36.5863 46.5939 36.3573 46.669 36.2047 46.7817V46.7817C35.9456 46.973 36.0956 47.4315 35.9016 47.6886C35.8494 47.7579 35.8061 47.8126 35.7848 47.8335C35.7238 47.8936 35.3777 47.9086 35.2124 47.9086H35.1623C34.8546 47.9086 34.5452 48.0296 34.3727 48.2843V48.2843V48.2843C34.1831 48.5642 33.8935 48.8101 33.5574 48.8463C33.5488 48.8473 33.5407 48.8478 33.533 48.8478C33.5286 48.8478 33.5241 48.8478 33.5196 48.8478C33.3285 48.8478 33.1516 48.9605 32.9605 48.9605V48.9605C32.8842 48.9605 32.5789 49.2234 32.388 49.3361C32.1972 49.4488 32.1209 49.4864 32.0446 49.4864C31.9682 49.4864 31.5866 49.5239 31.4339 49.4864C31.2812 49.4488 31.3194 49.4112 31.2049 49.3361C31.0904 49.261 31.0141 49.0732 30.8614 48.9605C30.7087 48.8478 30.5942 48.8478 30.4034 48.8478C30.2126 48.8478 29.9836 48.6599 29.8309 48.6599C29.7611 48.6599 29.6631 48.7008 29.5752 48.7476C29.4687 48.8042 29.4111 48.9196 29.4111 49.0402V49.0402C29.4111 49.0621 29.413 49.084 29.4169 49.1056L29.5256 49.7118L29.6504 50.5105C29.6685 50.6262 29.6497 50.7446 29.5967 50.849V50.849C29.5502 50.9405 29.4793 51.0174 29.3918 51.0712L29.3292 51.1098C29.257 51.1542 29.1784 51.1876 29.0956 51.2054C28.9896 51.2283 28.8633 51.2519 28.8004 51.2519C28.6859 51.2519 28.5714 51.1017 28.4569 50.989C28.3424 50.8763 28.2279 50.989 28.1898 50.8387C28.1516 50.6884 27.9608 50.7636 27.8081 50.6884C27.7951 50.682 27.7817 50.6773 27.7681 50.674C27.5574 50.6227 27.3338 50.7957 27.2356 50.989V50.989C27.1593 51.1392 27.0066 51.2144 27.0066 51.327C27.0066 51.4397 26.8539 51.4773 26.6631 51.4773C26.4723 51.4773 26.5104 51.5524 26.2814 51.5524C26.0524 51.5524 26.0143 51.4022 25.8616 51.4022C25.7089 51.4022 25.4799 51.4022 25.2891 51.4022V51.4022C25.0084 51.4022 24.9364 51.7763 24.8321 52.037C24.8191 52.0694 24.8059 52.0968 24.793 52.1159C24.7166 52.2286 24.793 52.4164 24.793 52.4916C24.793 52.5017 24.7893 52.5191 24.783 52.5417C24.6924 52.8664 24.4989 53.1566 24.2586 53.3931V53.3931C24.1823 53.4682 23.9915 53.3931 23.877 53.3931C23.7625 53.3931 23.4953 53.3931 23.2663 53.3931C23.0373 53.3931 22.961 53.5434 22.9228 53.5809C22.8846 53.6185 22.5793 53.8439 22.5793 53.9942V53.9942C22.5793 54.1824 22.5846 54.3887 22.7213 54.5181C22.8087 54.6009 22.8992 54.6775 22.961 54.7079C22.967 54.7108 22.973 54.7138 22.9791 54.7168C23.168 54.8098 23.4216 54.9307 23.5716 54.783V54.783V54.783C23.7143 54.6426 23.9526 54.6115 24.0269 54.4257C24.0447 54.3813 24.0593 54.3365 24.0678 54.2947C24.074 54.2644 24.0854 54.2356 24.1004 54.2086C24.2024 54.0249 24.392 53.8979 24.4992 53.717L24.5588 53.6165C24.5874 53.5682 24.6248 53.5255 24.6689 53.4908V53.4908C24.7493 53.4275 24.8486 53.3931 24.9508 53.3931H25.1746H25.2429C25.4722 53.3931 25.7577 53.3722 25.8616 53.1677V53.1677V53.1677C25.9654 52.9634 26.2832 53.0175 26.5123 53.0175H26.8539V53.0175C27.1366 53.0175 27.3969 52.8641 27.5339 52.6169L27.5409 52.6042C27.6045 52.4415 27.747 52.0934 27.8081 52.0032C27.8383 51.9586 27.9258 51.8754 28.0235 51.789C28.1939 51.6383 28.4349 51.6019 28.6476 51.6824V51.6824C28.7479 51.7204 28.837 51.7828 28.9069 51.8641L29.2202 52.2286C29.3602 52.3538 29.6477 52.6268 29.6782 52.7169C29.7164 52.8296 29.9836 52.6043 30.0519 52.4916C30.1202 52.3789 30.0599 52.2286 30.0981 52.1159C30.1362 52.0032 30.0217 51.6651 29.9836 51.4022C29.9454 51.1392 29.9836 51.2144 30.2126 50.989C30.4416 50.7636 30.3271 50.8387 30.4797 50.7636C30.6324 50.6884 30.7469 50.726 31.0141 50.7636C31.2812 50.8011 31.4339 50.8011 31.4339 50.8387V50.8387C31.4339 51.103 31.7787 51.239 31.9074 51.4698C31.9513 51.5486 31.9987 51.62 32.0446 51.6651C32.1972 51.8154 32.0446 51.8905 32.1209 52.0032C32.1819 52.0934 32.3244 52.1159 32.388 52.1159C32.4644 52.1159 32.6552 52.1159 32.8079 52.1159C32.9987 52.1159 33.1132 52.1159 33.3422 52.2286C33.5712 52.3413 33.4949 52.2286 33.6857 52.3789C33.8765 52.5291 33.9147 52.5291 34.1437 52.4916C34.3727 52.454 34.3345 52.4164 34.449 52.3789C34.5635 52.3413 34.7925 52.3037 35.0597 52.2286V52.2286C35.258 52.1728 35.4115 52.3849 35.2777 52.5415C35.2534 52.5699 35.2311 52.5919 35.2124 52.6042C35.0979 52.6794 34.907 52.9048 34.6017 53.0175C34.2964 53.1302 34.2964 53.2804 34.1437 53.5434C33.991 53.8063 33.8765 53.7688 33.762 53.9942C33.6475 54.2195 33.4185 54.1444 33.3422 54.1444C33.2659 54.1444 32.7315 54.2947 32.617 54.2947C32.5025 54.2947 32.1209 54.2947 32.0446 54.2947V54.2947C31.8364 54.2947 31.7491 54.0028 31.8551 53.8237C31.8665 53.8045 31.8787 53.786 31.8919 53.7688C32.0064 53.6185 31.8919 53.2804 31.8919 53.1677C31.8919 53.055 31.5866 52.9048 31.4339 52.8296C31.3118 52.7695 31.0013 52.8547 30.8614 52.9048L30.8366 52.91C30.4978 52.9815 30.1772 53.1677 29.8309 53.1677V53.1677C29.6782 53.1677 29.2966 53.1677 28.9912 53.1677C28.6859 53.1677 28.4569 53.4682 28.3806 53.5434C28.3043 53.6185 28.1516 53.919 28.1134 53.9942C28.0753 54.0693 27.8844 54.182 27.8081 54.2947C27.7318 54.4074 27.5409 54.5952 27.4646 54.7079C27.3883 54.8206 27.1974 55.0084 27.0066 55.1587C26.8158 55.3089 26.8539 55.1587 26.6631 55.1587C26.6583 55.1587 26.6535 55.1586 26.6487 55.1584C26.4245 55.1494 26.1742 55.1515 26.0143 55.3089V55.3089C25.9379 55.3841 25.7853 55.5719 25.7471 55.5719C25.7089 55.5719 25.1365 55.9475 25.0601 55.9475C25.0042 55.9475 24.6878 55.7374 24.4981 55.6059C24.4656 55.5833 24.4353 55.5579 24.4071 55.5302L24.2071 55.3334C24.0265 55.1556 23.7346 55.1625 23.5626 55.3487V55.3487C23.5183 55.3967 23.485 55.4539 23.465 55.5161L23.3823 55.7739C23.3067 56.0095 23.1678 56.225 22.961 56.3607V56.3607V56.3607C22.7265 56.5146 22.4719 56.6504 22.3236 56.8884C22.2686 56.9766 22.2213 57.0682 22.1976 57.1496C22.1366 57.36 21.6633 57.3625 21.4343 57.3374H21.2123C20.9097 57.3374 20.6301 57.1496 20.3275 57.1496V57.1496V57.1496C20.0796 57.1496 19.8382 57.229 19.6388 57.3763L19.4878 57.4877C19.3352 57.6254 19.0069 57.9009 18.9153 57.9009C18.8625 57.9009 18.6886 57.8676 18.5094 57.8297C18.271 57.7794 18.0386 57.7047 17.8128 57.6132L17.5994 57.5267C17.5353 57.5007 17.4695 57.4794 17.4024 57.4629L17.3633 57.4533C17.0592 57.3784 16.7477 57.4877 16.4345 57.4877V57.4877C16.2819 57.4877 16.1674 57.7506 16.0529 57.9009C15.9384 58.0512 15.8239 58.0136 15.7094 57.9009C15.5949 57.7882 15.4422 57.6755 15.2895 57.4877C15.233 57.4181 15.1525 57.3137 15.0722 57.2079C14.9143 56.9999 14.6983 56.8429 14.4502 56.7615L14.3638 56.7332C14.2944 56.7104 14.2219 56.6988 14.1489 56.6988V56.6988C13.9301 56.6988 13.7245 56.5949 13.594 56.4194C13.5109 56.3077 13.4283 56.1971 13.3812 56.1354C13.2896 56.0151 13.0377 55.6094 12.9232 55.4216V55.4216C12.7538 55.1596 12.4774 54.9857 12.1679 54.9464L11.7478 54.8931C11.5688 54.8703 11.4011 54.7934 11.2672 54.6725L11.1904 54.6033C11.0775 54.5013 10.9307 54.4449 10.7785 54.4449V54.4449C10.7327 54.4449 10.687 54.4501 10.6424 54.4602L10.4504 54.5038C10.2948 54.5391 10.1329 54.536 9.97871 54.4946V54.4946C9.85646 54.4618 9.74171 54.4056 9.6408 54.3292L9.63456 54.3245C9.4187 54.1611 9.27657 53.9186 9.23941 53.6504L9.18294 53.2429L9.08227 52.6236C9.04813 52.4136 9.06597 52.1983 9.13423 51.9968L9.16312 51.9115C9.24949 51.6565 9.23672 51.3783 9.12735 51.1322V51.1322C9.06342 50.9884 8.96883 50.8604 8.84922 50.758C8.50785 50.466 8.02552 50.0625 7.92345 50.0123C7.8146 49.9587 7.63702 49.5629 7.53664 49.3091C7.51418 49.2523 7.48631 49.1979 7.45205 49.1473V49.1473C7.33836 48.9794 7.28853 48.7709 7.35879 48.5807C7.39679 48.4778 7.44562 48.3789 7.50362 48.3219C7.65629 48.1716 7.69445 47.8711 7.69445 47.7584C7.69445 47.6682 7.69445 47.4453 7.69445 47.3452V47.3209C7.69445 47.1134 7.73231 46.9077 7.80618 46.7139V46.7139C7.88364 46.5105 7.99842 46.3231 8.15085 46.1678C8.27998 46.0363 8.42704 45.8928 8.53411 45.805V45.805C8.6178 45.7364 8.83217 45.4905 8.90211 45.4079L9.23905 45.01C9.27741 44.9647 9.30427 44.9108 9.31734 44.8529L9.4501 44.2649L9.53396 44.0356C9.68989 43.6093 10.0955 43.3257 10.5495 43.3257H10.6424C10.687 43.3257 10.7312 43.3192 10.7739 43.3063L11.1686 43.1867C11.3802 43.1227 11.4208 42.8408 11.236 42.7195V42.7195C11.1144 42.6397 11.0817 42.4759 11.1632 42.3555L11.568 41.7579C11.6553 41.6291 11.7019 41.477 11.7019 41.3213V41.3213C11.7019 41.0104 11.887 40.7292 12.1726 40.6062L12.8509 40.3141C12.8986 40.2936 12.9501 40.283 13.002 40.283V40.283C13.2837 40.283 13.4686 39.9887 13.3465 39.735L13.1178 39.2597C12.9989 39.0126 12.7489 38.8555 12.4746 38.8555H12.3923C12.1929 38.8555 12 38.785 11.8476 38.6564L11.1242 38.0462C11.0536 37.9866 10.9643 37.954 10.8719 37.954H10.8648C10.6526 37.954 10.4806 37.7819 10.4806 37.5697V37.5697C10.4806 37.4783 10.5132 37.3898 10.5726 37.3203L11.7234 35.9718C11.9559 35.6994 12.0836 35.3531 12.0836 34.995V34.995C12.0836 34.6264 11.9483 34.2707 11.7034 33.9953L11.0149 33.2208L10.7382 32.9096C10.5744 32.7252 10.3395 32.6197 10.0928 32.6197V32.6197C9.89898 32.6197 9.7108 32.5546 9.55853 32.4347L9.47569 32.3694C9.19444 32.148 9.03027 31.8098 9.03027 31.4518V31.2266C9.03027 31.1066 9.06822 30.9897 9.13867 30.8927L9.34526 30.608C9.53198 30.3507 9.34818 29.9902 9.03027 29.9902V29.9902H8.98136C8.32436 29.9902 7.69009 29.7497 7.19829 29.314V29.314L6.2823 28.6379L6.08832 28.4742C5.87251 28.2922 5.74797 28.0242 5.74797 27.7418V27.7418C5.74797 27.5428 5.80996 27.3486 5.92533 27.1864L5.94283 27.1618C6.15153 26.8684 6.18011 26.4833 6.01702 26.1623L5.90863 25.9489C5.81006 25.7549 5.61088 25.6327 5.39325 25.6327V25.6327C5.32494 25.6327 5.25718 25.6206 5.19309 25.5969L4.66763 25.403C4.27438 25.2578 3.92296 25.018 3.64445 24.7047L3.29674 24.3136C3.10559 24.0986 3 23.8209 3 23.5332V23.5332C3 23.3816 3.02935 23.2314 3.08643 23.091L3.40286 22.3124C3.43868 22.2242 3.50169 22.1498 3.58272 22.1V22.1C3.82986 21.948 3.86884 21.6044 3.66205 21.4009L3.60886 21.3485C3.51234 21.2535 3.458 21.1238 3.458 20.9884V20.6741V20.5033C3.458 19.9917 3.68096 19.5054 4.06866 19.1715V19.1715L4.30128 18.9998C4.55267 18.8142 4.78482 18.6039 4.99425 18.372L5.05287 18.3071C5.21059 18.1325 5.38441 17.9731 5.57202 17.831L6.00632 17.5022C6.18778 17.3649 6.33451 17.1868 6.43474 16.9825V16.9825C6.67005 16.5027 6.62371 15.9327 6.31402 15.4972L6.2823 15.4526L5.51898 14.5511Z" stroke="white" stroke-width="2" stroke-linecap="square"/>
</g>
<defs>
<filter id="filter0_df" x="0" y="0.0361328" width="47" height="66.9643" filterUnits="userSpaceOnUse" color-interpolation-filters="sRGB">
<feFlood flood-opacity="0" result="BackgroundImageFix"/>
<feColorMatrix in="SourceAlpha" type="matrix" values="0 0 0 0 0 0 0 0 0 0 0 0 0 0 0 0 0 0 127 0"/>
<feOffset dx="2" dy="4"/>
<feGaussianBlur stdDeviation="2"/>
<feColorMatrix type="matrix" values="0 0 0 0 0 0 0 0 0 0 0 0 0 0 0 0 0 0 0.45 0"/>
<feBlend mode="normal" in2="BackgroundImageFix" result="effect1_dropShadow"/>
<feBlend mode="normal" in="SourceGraphic" in2="effect1_dropShadow" result="shape"/>
<feGaussianBlur stdDeviation="0.5" result="effect2_foregroundBlur"/>
</filter>
</defs>
</svg>
