<svg width="353" height="55" viewBox="0 0 353 55" fill="none" xmlns="http://www.w3.org/2000/svg">
<g filter="url(#filter0_d)">
<path d="M4.5636 1.37845C4.29462 0.720594 4.7785 0 5.48922 0H347.501C348.214 0 348.698 0.725413 348.424 1.38402L339.558 22.7011C339.456 22.947 339.456 23.2234 339.558 23.4692L348.424 44.7863C348.698 45.4449 348.214 46.1703 347.501 46.1703H5.48924C4.77851 46.1703 4.29462 45.4497 4.5636 44.7919L13.2839 23.4636C13.3831 23.2211 13.3831 22.9493 13.2839 22.7067L4.5636 1.37845Z" fill="#3A5358"/>
<path d="M14.6724 22.139L6.23383 1.5H346.752L338.173 22.1251C337.918 22.7396 337.918 23.4307 338.173 24.0452L346.752 44.6703H6.23383L14.6724 24.0313C14.9203 23.4249 14.9203 22.7454 14.6724 22.139Z" stroke="#D8A85C" stroke-width="3" stroke-linejoin="bevel"/>
</g>
<path d="M142.92 15.8975C144.048 16.2441 144.971 16.8472 145.689 17.7065C146.704 18.9224 147.212 20.5703 147.212 22.6504C147.212 24.7256 146.704 26.3223 145.689 27.4404C144.971 28.2314 144.048 28.7466 142.92 28.9858V15.8975ZM135.962 22.3501C135.962 20.3335 136.46 18.7441 137.456 17.582C138.164 16.7617 139.08 16.1904 140.203 15.8682V28.8687C139.08 28.5415 138.164 27.9629 137.456 27.1328C136.46 25.9609 135.962 24.3667 135.962 22.3501ZM141.88 15.6704C142.075 15.6948 142.273 15.729 142.473 15.7729V29.0664C142.263 29.0908 142.066 29.1055 141.88 29.1104V15.6704ZM141.14 29.0737C140.984 29.0493 140.82 29.02 140.65 28.9858V15.7583C140.811 15.7241 140.974 15.6973 141.14 15.6777V29.0737ZM141.829 14.8574C140.54 14.7793 139.251 15.0454 137.962 15.6558C135.379 16.8716 134.087 19.186 134.087 22.5991C134.087 25.0405 135.007 26.9277 136.848 28.2607C138.313 29.3203 139.973 29.8501 141.829 29.8501C143.538 29.8501 145.117 29.2422 146.568 28.0264C148.242 26.6201 149.08 24.8281 149.08 22.6504C149.08 20.4238 148.267 18.5317 146.641 16.9741C145.161 15.563 143.557 14.8574 141.829 14.8574ZM157.378 29.5498L162.359 20.5557L164.08 27.9971V28.4805C164.05 28.8809 163.831 29.23 163.421 29.5278C163.215 29.6743 163.015 29.7817 162.82 29.8501H167.068C166.873 29.7817 166.673 29.6743 166.467 29.5278C166.057 29.23 165.838 28.8809 165.808 28.4805L163.574 15.0259L157.356 27.0449L151.321 14.8501L149.6 28.3047C149.57 28.71 149.351 29.0591 148.941 29.3521C148.74 29.5034 148.54 29.6133 148.34 29.6816H152.595C152.395 29.6133 152.193 29.5034 151.987 29.3521C151.582 29.0591 151.362 28.71 151.328 28.3047V27.8286L152.361 20.2114L157.305 29.5059L157.356 29.5571H157.363V29.5645L157.378 29.5498ZM182.171 23.6318C182.205 23.5195 182.168 23.3901 182.061 23.2437C181.846 22.9458 181.377 22.7065 180.654 22.5259H185.452C184.729 22.7065 184.26 22.9458 184.046 23.2437C183.933 23.3901 183.897 23.5195 183.936 23.6318V28.8101C183.721 28.981 183.369 29.1543 182.881 29.3301C181.9 29.6768 180.725 29.8501 179.358 29.8501C176.892 29.8501 174.927 29.2568 173.462 28.0703C171.792 26.7178 170.957 24.7109 170.957 22.0498C170.899 20.8486 171.184 19.6499 171.814 18.4536C173.079 16.0513 175.435 14.8501 178.882 14.8501C181.66 15.0601 183.399 15.27 184.097 15.48L183.591 18.7979C183.489 18.251 183.223 17.7041 182.793 17.1572C181.939 16.0586 180.689 15.5093 179.043 15.5093C177.056 15.5093 175.488 16.0879 174.341 17.2451C173.179 18.417 172.598 20.0283 172.598 22.0791C172.598 24.042 173.394 25.707 174.985 27.0742C176.455 28.334 178.081 28.9639 179.863 28.9639C180.85 29.0078 181.619 28.7759 182.171 28.2681V23.6318ZM195.347 15.8975C196.475 16.2441 197.398 16.8472 198.115 17.7065C199.131 18.9224 199.639 20.5703 199.639 22.6504C199.639 24.7256 199.131 26.3223 198.115 27.4404C197.398 28.2314 196.475 28.7466 195.347 28.9858V15.8975ZM188.389 22.3501C188.389 20.3335 188.887 18.7441 189.883 17.582C190.591 16.7617 191.506 16.1904 192.63 15.8682V28.8687C191.506 28.5415 190.591 27.9629 189.883 27.1328C188.887 25.9609 188.389 24.3667 188.389 22.3501ZM194.307 15.6704C194.502 15.6948 194.7 15.729 194.9 15.7729V29.0664C194.69 29.0908 194.492 29.1055 194.307 29.1104V15.6704ZM193.567 29.0737C193.411 29.0493 193.247 29.02 193.076 28.9858V15.7583C193.237 15.7241 193.401 15.6973 193.567 15.6777V29.0737ZM194.256 14.8574C192.966 14.7793 191.677 15.0454 190.388 15.6558C187.805 16.8716 186.514 19.186 186.514 22.5991C186.514 25.0405 187.434 26.9277 189.275 28.2607C190.74 29.3203 192.4 29.8501 194.256 29.8501C195.965 29.8501 197.544 29.2422 198.994 28.0264C200.669 26.6201 201.506 24.8281 201.506 22.6504C201.506 20.4238 200.694 18.5317 199.068 16.9741C197.588 15.563 195.984 14.8574 194.256 14.8574ZM213.679 23.6318C213.714 23.5195 213.677 23.3901 213.569 23.2437C213.355 22.9458 212.886 22.7065 212.163 22.5259H216.961C216.238 22.7065 215.769 22.9458 215.554 23.2437C215.442 23.3901 215.405 23.5195 215.444 23.6318V28.8101C215.23 28.981 214.878 29.1543 214.39 29.3301C213.408 29.6768 212.234 29.8501 210.867 29.8501C208.401 29.8501 206.436 29.2568 204.971 28.0703C203.301 26.7178 202.466 24.7109 202.466 22.0498C202.407 20.8486 202.693 19.6499 203.323 18.4536C204.588 16.0513 206.944 14.8501 210.391 14.8501C213.169 15.0601 214.907 15.27 215.606 15.48L215.1 18.7979C214.998 18.251 214.732 17.7041 214.302 17.1572C213.447 16.0586 212.197 15.5093 210.552 15.5093C208.565 15.5093 206.997 16.0879 205.85 17.2451C204.688 18.417 204.107 20.0283 204.107 22.0791C204.107 24.042 204.902 25.707 206.494 27.0742C207.964 28.334 209.59 28.9639 211.372 28.9639C212.359 29.0078 213.128 28.7759 213.679 28.2681V23.6318Z" fill="#E8E8E8"/>
<defs>
<filter id="filter0_d" x="0.488281" y="0" width="352.014" height="54.1703" filterUnits="userSpaceOnUse" color-interpolation-filters="sRGB">
<feFlood flood-opacity="0" result="BackgroundImageFix"/>
<feColorMatrix in="SourceAlpha" type="matrix" values="0 0 0 0 0 0 0 0 0 0 0 0 0 0 0 0 0 0 127 0"/>
<feOffset dy="4"/>
<feGaussianBlur stdDeviation="2"/>
<feColorMatrix type="matrix" values="0 0 0 0 0 0 0 0 0 0 0 0 0 0 0 0 0 0 0.25 0"/>
<feBlend mode="normal" in2="BackgroundImageFix" result="effect1_dropShadow"/>
<feBlend mode="normal" in="SourceGraphic" in2="effect1_dropShadow" result="shape"/>
</filter>
</defs>
</svg>
