<svg width="608" height="55" viewBox="0 0 608 55" fill="none" xmlns="http://www.w3.org/2000/svg">
<g filter="url(#filter0_d)">
<path d="M5.12313 1.5795C4.65235 0.917421 5.12571 0 5.9381 0H602.042C602.859 0 603.331 0.924829 602.853 1.58608L587.726 22.4991C587.473 22.8489 587.473 23.3215 587.726 23.6712L602.853 44.5843C603.331 45.2455 602.859 46.1703 602.042 46.1703H5.93813C5.12573 46.1703 4.65235 45.2529 5.12313 44.5908L20.003 23.6647C20.2497 23.3177 20.2497 22.8526 20.003 22.5057L5.12313 1.5795Z" fill="#3A5358"/>
<path d="M21.2255 21.6364L6.90715 1.5H601.064L586.51 21.62C585.878 22.4944 585.878 23.676 586.51 24.5504L601.064 44.6703H6.90715L21.2255 24.5339C21.8422 23.6665 21.8422 22.5038 21.2255 21.6364Z" stroke="#D8A85C" stroke-width="3" stroke-linejoin="bevel"/>
</g>
<path d="M269.701 15.8975C270.829 16.2441 271.752 16.8472 272.47 17.7065C273.486 18.9224 273.993 20.5703 273.993 22.6504C273.993 24.7256 273.486 26.3223 272.47 27.4404C271.752 28.2314 270.829 28.7466 269.701 28.9858V15.8975ZM262.743 22.3501C262.743 20.3335 263.241 18.7441 264.238 17.582C264.946 16.7617 265.861 16.1904 266.984 15.8682V28.8687C265.861 28.5415 264.946 27.9629 264.238 27.1328C263.241 25.9609 262.743 24.3667 262.743 22.3501ZM268.661 15.6704C268.857 15.6948 269.054 15.729 269.255 15.7729V29.0664C269.045 29.0908 268.847 29.1055 268.661 29.1104V15.6704ZM267.922 29.0737C267.765 29.0493 267.602 29.02 267.431 28.9858V15.7583C267.592 15.7241 267.756 15.6973 267.922 15.6777V29.0737ZM268.61 14.8574C267.321 14.7793 266.032 15.0454 264.743 15.6558C262.16 16.8716 260.868 19.186 260.868 22.5991C260.868 25.0405 261.789 26.9277 263.63 28.2607C265.094 29.3203 266.755 29.8501 268.61 29.8501C270.319 29.8501 271.899 29.2422 273.349 28.0264C275.024 26.6201 275.861 24.8281 275.861 22.6504C275.861 20.4238 275.048 18.5317 273.422 16.9741C271.943 15.563 270.339 14.8574 268.61 14.8574ZM284.159 29.5498L289.14 20.5557L290.861 27.9971V28.4805C290.832 28.8809 290.612 29.23 290.202 29.5278C289.997 29.6743 289.797 29.7817 289.601 29.8501H293.849C293.654 29.7817 293.454 29.6743 293.249 29.5278C292.839 29.23 292.619 28.8809 292.59 28.4805L290.356 15.0259L284.137 27.0449L278.102 14.8501L276.381 28.3047C276.352 28.71 276.132 29.0591 275.722 29.3521C275.522 29.5034 275.322 29.6133 275.121 29.6816H279.377C279.177 29.6133 278.974 29.5034 278.769 29.3521C278.364 29.0591 278.144 28.71 278.11 28.3047V27.8286L279.142 20.2114L284.086 29.5059L284.137 29.5571H284.145V29.5645L284.159 29.5498ZM308.952 23.6318C308.986 23.5195 308.949 23.3901 308.842 23.2437C308.627 22.9458 308.158 22.7065 307.436 22.5259H312.233C311.51 22.7065 311.042 22.9458 310.827 23.2437C310.715 23.3901 310.678 23.5195 310.717 23.6318V28.8101C310.502 28.981 310.151 29.1543 309.662 29.3301C308.681 29.6768 307.507 29.8501 306.139 29.8501C303.674 29.8501 301.708 29.2568 300.243 28.0703C298.573 26.7178 297.739 24.7109 297.739 22.0498C297.68 20.8486 297.966 19.6499 298.595 18.4536C299.86 16.0513 302.216 14.8501 305.663 14.8501C308.442 15.0601 310.18 15.27 310.878 15.48L310.373 18.7979C310.27 18.251 310.004 17.7041 309.574 17.1572C308.72 16.0586 307.47 15.5093 305.824 15.5093C303.837 15.5093 302.27 16.0879 301.122 17.2451C299.96 18.417 299.379 20.0283 299.379 22.0791C299.379 24.042 300.175 25.707 301.767 27.0742C303.237 28.334 304.863 28.9639 306.645 28.9639C307.631 29.0078 308.4 28.7759 308.952 28.2681V23.6318ZM322.128 15.8975C323.256 16.2441 324.179 16.8472 324.897 17.7065C325.912 18.9224 326.42 20.5703 326.42 22.6504C326.42 24.7256 325.912 26.3223 324.897 27.4404C324.179 28.2314 323.256 28.7466 322.128 28.9858V15.8975ZM315.17 22.3501C315.17 20.3335 315.668 18.7441 316.664 17.582C317.372 16.7617 318.288 16.1904 319.411 15.8682V28.8687C318.288 28.5415 317.372 27.9629 316.664 27.1328C315.668 25.9609 315.17 24.3667 315.17 22.3501ZM321.088 15.6704C321.283 15.6948 321.481 15.729 321.681 15.7729V29.0664C321.471 29.0908 321.274 29.1055 321.088 29.1104V15.6704ZM320.348 29.0737C320.192 29.0493 320.029 29.02 319.858 28.9858V15.7583C320.019 15.7241 320.182 15.6973 320.348 15.6777V29.0737ZM321.037 14.8574C319.748 14.7793 318.459 15.0454 317.17 15.6558C314.587 16.8716 313.295 19.186 313.295 22.5991C313.295 25.0405 314.216 26.9277 316.056 28.2607C317.521 29.3203 319.181 29.8501 321.037 29.8501C322.746 29.8501 324.325 29.2422 325.776 28.0264C327.45 26.6201 328.288 24.8281 328.288 22.6504C328.288 20.4238 327.475 18.5317 325.849 16.9741C324.369 15.563 322.765 14.8574 321.037 14.8574ZM340.461 23.6318C340.495 23.5195 340.458 23.3901 340.351 23.2437C340.136 22.9458 339.667 22.7065 338.945 22.5259H343.742C343.019 22.7065 342.551 22.9458 342.336 23.2437C342.223 23.3901 342.187 23.5195 342.226 23.6318V28.8101C342.011 28.981 341.659 29.1543 341.171 29.3301C340.19 29.6768 339.015 29.8501 337.648 29.8501C335.182 29.8501 333.217 29.2568 331.752 28.0703C330.082 26.7178 329.247 24.7109 329.247 22.0498C329.189 20.8486 329.474 19.6499 330.104 18.4536C331.369 16.0513 333.725 14.8501 337.172 14.8501C339.95 15.0601 341.689 15.27 342.387 15.48L341.882 18.7979C341.779 18.251 341.513 17.7041 341.083 17.1572C340.229 16.0586 338.979 15.5093 337.333 15.5093C335.346 15.5093 333.779 16.0879 332.631 17.2451C331.469 18.417 330.888 20.0283 330.888 22.0791C330.888 24.042 331.684 25.707 333.276 27.0742C334.745 28.334 336.371 28.9639 338.154 28.9639C339.14 29.0078 339.909 28.7759 340.461 28.2681V23.6318Z" fill="#E8E8E8"/>
<defs>
<filter id="filter0_d" x="0.936279" y="0" width="606.108" height="54.1703" filterUnits="userSpaceOnUse" color-interpolation-filters="sRGB">
<feFlood flood-opacity="0" result="BackgroundImageFix"/>
<feColorMatrix in="SourceAlpha" type="matrix" values="0 0 0 0 0 0 0 0 0 0 0 0 0 0 0 0 0 0 127 0"/>
<feOffset dy="4"/>
<feGaussianBlur stdDeviation="2"/>
<feColorMatrix type="matrix" values="0 0 0 0 0 0 0 0 0 0 0 0 0 0 0 0 0 0 0.25 0"/>
<feBlend mode="normal" in2="BackgroundImageFix" result="effect1_dropShadow"/>
<feBlend mode="normal" in="SourceGraphic" in2="effect1_dropShadow" result="shape"/>
</filter>
</defs>
</svg>
