<svg width="607" height="55" viewBox="0 0 607 55" fill="none" xmlns="http://www.w3.org/2000/svg">
<g filter="url(#filter0_d)">
<path d="M5.03231 1.5795C4.56153 0.917422 5.03489 0 5.84728 0H601.952C602.768 0 603.24 0.924828 602.762 1.58608L587.635 22.4991C587.382 22.8489 587.382 23.3215 587.635 23.6712L602.762 44.5843C603.24 45.2455 602.768 46.1703 601.952 46.1703H5.84731C5.03491 46.1703 4.56153 45.2529 5.03231 44.5908L19.9122 23.6647C20.1589 23.3177 20.1589 22.8526 19.9122 22.5057L5.03231 1.5795Z" fill="#3A5358"/>
<path d="M21.1347 21.6364L6.81633 1.5H600.973L586.42 21.62C585.787 22.4944 585.787 23.676 586.42 24.5504L600.973 44.6703H6.81633L21.1347 24.5339C21.7514 23.6665 21.7514 22.5038 21.1347 21.6364Z" stroke="#D8A85C" stroke-width="3" stroke-linejoin="bevel"/>
</g>
<path d="M238.878 23.7817C238.912 23.6694 238.876 23.54 238.768 23.3936C238.554 23.0957 238.085 22.8564 237.362 22.6758H242.159C241.437 22.8564 240.968 23.0957 240.753 23.3936C240.641 23.54 240.604 23.6694 240.643 23.7817V28.96C240.429 29.1309 240.077 29.3042 239.589 29.48C238.607 29.8267 237.433 30 236.066 30C233.6 30 231.635 29.4067 230.17 28.2202C228.5 26.8677 227.665 24.8608 227.665 22.1997C227.606 20.9985 227.892 19.7998 228.522 18.6035C229.786 16.2012 232.142 15 235.59 15C238.368 15.21 240.106 15.4199 240.804 15.6299L240.299 18.9478C240.197 18.4009 239.93 17.854 239.501 17.3071C238.646 16.2085 237.396 15.6592 235.751 15.6592C233.763 15.6592 232.196 16.2378 231.049 17.395C229.887 18.5669 229.305 20.1782 229.305 22.229C229.305 24.1919 230.101 25.8569 231.693 27.2241C233.163 28.4839 234.789 29.1138 236.571 29.1138C237.557 29.1577 238.326 28.9258 238.878 28.418V23.7817ZM245.045 23.3936L246.913 18.3398L248.722 23.4082L245.045 23.3936ZM254.464 30C254.269 29.9561 254.052 29.8706 253.812 29.7437C253.334 29.4897 252.987 29.1528 252.772 28.7329C252.426 28.064 250.509 23.4863 247.023 15L241.881 28.623C241.818 28.8184 241.691 29.0234 241.5 29.2383C241.124 29.6631 240.619 29.917 239.984 30H244.379C244.188 29.9561 243.998 29.8853 243.807 29.7876C243.422 29.5825 243.229 29.3359 243.229 29.0479L244.811 24.3091H248.949L250.875 29.2822C250.338 29.4336 249.955 29.6729 249.725 30H254.464ZM264.198 29.6997L269.179 20.7056L270.9 28.147V28.6304C270.87 29.0308 270.651 29.3799 270.241 29.6777C270.035 29.8242 269.835 29.9316 269.64 30H273.888C273.693 29.9316 273.492 29.8242 273.287 29.6777C272.877 29.3799 272.658 29.0308 272.628 28.6304L270.394 15.1758L264.176 27.1948L258.141 15L256.42 28.4546C256.39 28.8599 256.171 29.209 255.761 29.502C255.56 29.6533 255.36 29.7632 255.16 29.8315H259.415C259.215 29.7632 259.012 29.6533 258.807 29.502C258.402 29.209 258.182 28.8599 258.148 28.4546V27.9785L259.181 20.3613L264.125 29.6558L264.176 29.707H264.183V29.7144L264.198 29.6997ZM282.428 15.2637L282.992 15L282.428 17.7393C282.408 17.4658 282.328 17.1948 282.186 16.9263C281.908 16.3794 281.466 16.106 280.861 16.106H278.012V21.7163H281.146C281.752 21.7017 282.25 21.5356 282.64 21.2183L282.274 24.1553C282.264 23.8867 282.179 23.6206 282.018 23.3569C281.696 22.8296 281.158 22.5659 280.407 22.5659H278.012V28.1323C278.173 28.3423 278.402 28.5522 278.7 28.7622C279.301 29.1821 279.948 29.3921 280.641 29.3921C281.339 29.3921 281.991 29.0625 282.596 28.4033C282.899 28.0713 283.131 27.7417 283.292 27.4146L282.992 30H274.994C275.204 29.9268 275.416 29.812 275.631 29.6558C276.061 29.3335 276.276 28.9551 276.276 28.5205C276.276 27.8271 276.268 23.7476 276.254 16.2817C276.034 15.8325 275.526 15.4932 274.73 15.2637H282.428ZM295.927 16.0474C297.054 16.394 297.977 16.9971 298.695 17.8564C299.711 19.0723 300.219 20.7202 300.219 22.8003C300.219 24.8755 299.711 26.4722 298.695 27.5903C297.977 28.3813 297.054 28.8965 295.927 29.1357V16.0474ZM288.969 22.5C288.969 20.4834 289.467 18.894 290.463 17.7319C291.171 16.9116 292.086 16.3403 293.209 16.0181V29.0186C292.086 28.6914 291.171 28.1128 290.463 27.2827C289.467 26.1108 288.969 24.5166 288.969 22.5ZM294.887 15.8203C295.082 15.8447 295.28 15.8789 295.48 15.9229V29.2163C295.27 29.2407 295.072 29.2554 294.887 29.2603V15.8203ZM294.147 29.2236C293.991 29.1992 293.827 29.1699 293.656 29.1357V15.9082C293.817 15.874 293.981 15.8472 294.147 15.8276V29.2236ZM294.835 15.0073C293.546 14.9292 292.257 15.1953 290.968 15.8057C288.385 17.0215 287.094 19.3359 287.094 22.749C287.094 25.1904 288.014 27.0776 289.855 28.4106C291.32 29.4702 292.98 30 294.835 30C296.544 30 298.124 29.3921 299.574 28.1763C301.249 26.77 302.086 24.978 302.086 22.8003C302.086 20.5737 301.273 18.6816 299.647 17.124C298.168 15.7129 296.564 15.0073 294.835 15.0073ZM304.847 21.7163V16.106H307.697C308.302 16.106 308.744 16.3794 309.022 16.9263C309.164 17.1948 309.244 17.4658 309.264 17.7393L309.828 15L309.264 15.2637H301.566C302.362 15.4932 302.87 15.8325 303.09 16.2817C303.095 19.1187 303.099 21.7065 303.104 24.0454H303.097V28.6157C303.063 29.021 302.841 29.3726 302.43 29.6704C302.225 29.8218 302.023 29.9316 301.823 30H306.115C305.914 29.9316 305.712 29.8218 305.507 29.6704C305.092 29.3726 304.869 29.021 304.84 28.6157V28.374L304.847 28.1323V22.5659H307.242C307.994 22.5659 308.532 22.8296 308.854 23.3569C309.015 23.6206 309.1 23.8867 309.11 24.1553L309.476 21.2183C309.086 21.5356 308.588 21.7017 307.982 21.7163H304.847ZM324.923 23.7817C324.957 23.6694 324.921 23.54 324.813 23.3936C324.598 23.0957 324.13 22.8564 323.407 22.6758H328.204C327.482 22.8564 327.013 23.0957 326.798 23.3936C326.686 23.54 326.649 23.6694 326.688 23.7817V28.96C326.473 29.1309 326.122 29.3042 325.634 29.48C324.652 29.8267 323.478 30 322.111 30C319.645 30 317.679 29.4067 316.215 28.2202C314.545 26.8677 313.71 24.8608 313.71 22.1997C313.651 20.9985 313.937 19.7998 314.567 18.6035C315.831 16.2012 318.187 15 321.635 15C324.413 15.21 326.151 15.4199 326.849 15.6299L326.344 18.9478C326.242 18.4009 325.975 17.854 325.546 17.3071C324.691 16.2085 323.441 15.6592 321.796 15.6592C319.808 15.6592 318.241 16.2378 317.094 17.395C315.931 18.5669 315.35 20.1782 315.35 22.229C315.35 24.1919 316.146 25.8569 317.738 27.2241C319.208 28.4839 320.834 29.1138 322.616 29.1138C323.602 29.1577 324.371 28.9258 324.923 28.418V23.7817ZM330.951 16.04C330.961 16.0303 330.971 16.0156 330.98 15.9961L330.929 28.4985C330.929 27.7905 330.936 23.6377 330.951 16.04ZM333.661 29.3774C332.948 29.3774 332.289 29.165 331.683 28.7402C331.376 28.5254 331.141 28.3105 330.98 28.0957V15.9961C331.259 15.5469 331.766 15.2148 332.504 15H327.64C328.451 15.2344 328.966 15.5811 329.186 16.04C329.2 23.6377 329.208 27.7905 329.208 28.4985C329.208 28.938 328.991 29.3213 328.556 29.6484C328.341 29.8096 328.124 29.9268 327.904 30H336.049L336.356 27.3706C336.19 27.7026 335.953 28.0371 335.646 28.374C335.031 29.043 334.369 29.3774 333.661 29.3774ZM344.742 15.2637L345.306 15L344.742 17.7393C344.723 17.4658 344.642 17.1948 344.501 16.9263C344.222 16.3794 343.781 16.106 343.175 16.106H340.326V21.7163H343.461C344.066 21.7017 344.564 21.5356 344.955 21.2183L344.589 24.1553C344.579 23.8867 344.493 23.6206 344.332 23.3569C344.01 22.8296 343.473 22.5659 342.721 22.5659H340.326V28.1323C340.487 28.3423 340.717 28.5522 341.014 28.7622C341.615 29.1821 342.262 29.3921 342.955 29.3921C343.654 29.3921 344.305 29.0625 344.911 28.4033C345.214 28.0713 345.446 27.7417 345.607 27.4146L345.306 30H337.308C337.518 29.9268 337.731 29.812 337.946 29.6558C338.375 29.3335 338.59 28.9551 338.59 28.5205C338.59 27.8271 338.583 23.7476 338.568 16.2817C338.348 15.8325 337.841 15.4932 337.045 15.2637H344.742ZM357.377 15C357.577 15.0684 357.78 15.1782 357.985 15.3296C358.4 15.6274 358.622 15.979 358.651 16.3843V26.4551L347.738 15V28.6157C347.709 29.021 347.487 29.3726 347.072 29.6704C346.867 29.8218 346.664 29.9316 346.464 30H350.763C350.563 29.9316 350.36 29.8218 350.155 29.6704C349.74 29.3726 349.518 29.021 349.489 28.6157V18.6841L360.394 30V29.9854L360.402 30V16.3843C360.431 15.979 360.653 15.6274 361.068 15.3296C361.273 15.1782 361.476 15.0684 361.676 15H357.377ZM372.553 15C372.753 15.0684 372.955 15.1782 373.16 15.3296C373.575 15.6274 373.798 15.979 373.827 16.3843V26.4551L362.914 15V28.6157C362.885 29.021 362.662 29.3726 362.247 29.6704C362.042 29.8218 361.84 29.9316 361.639 30H365.939C365.739 29.9316 365.536 29.8218 365.331 29.6704C364.916 29.3726 364.694 29.021 364.664 28.6157V18.6841L375.57 30V29.9854L375.577 30V16.3843C375.607 15.979 375.829 15.6274 376.244 15.3296C376.449 15.1782 376.652 15.0684 376.852 15H372.553Z" fill="#E8E8E8"/>
<defs>
<filter id="filter0_d" x="0.845459" y="0" width="606.108" height="54.1703" filterUnits="userSpaceOnUse" color-interpolation-filters="sRGB">
<feFlood flood-opacity="0" result="BackgroundImageFix"/>
<feColorMatrix in="SourceAlpha" type="matrix" values="0 0 0 0 0 0 0 0 0 0 0 0 0 0 0 0 0 0 127 0"/>
<feOffset dy="4"/>
<feGaussianBlur stdDeviation="2"/>
<feColorMatrix type="matrix" values="0 0 0 0 0 0 0 0 0 0 0 0 0 0 0 0 0 0 0.25 0"/>
<feBlend mode="normal" in2="BackgroundImageFix" result="effect1_dropShadow"/>
<feBlend mode="normal" in="SourceGraphic" in2="effect1_dropShadow" result="shape"/>
</filter>
</defs>
</svg>
