<svg width="808" height="55" viewBox="0 0 808 55" fill="none" xmlns="http://www.w3.org/2000/svg">
<g filter="url(#filter0_d)">
<path d="M4.51517 2.24131C3.90962 1.60444 4.36107 0.552246 5.23988 0.552246H802.855C803.738 0.552246 804.188 1.61286 803.574 2.24747L783.558 22.9422C783.183 23.3298 783.183 23.945 783.558 24.3326L803.574 45.0274C804.188 45.662 803.738 46.7226 802.855 46.7226H5.23988C4.36108 46.7226 3.90962 45.6704 4.51517 45.0335L24.2038 24.3265C24.5709 23.9404 24.5709 23.3344 24.2038 22.9484L4.51517 2.24131Z" fill="#3A5358"/>
<path d="M25.2909 21.9148L6.40522 2.05225H801.676L782.479 21.8994C781.542 22.8685 781.542 24.4063 782.479 25.3755L801.676 45.2226H6.40522L25.2909 25.3601C26.2086 24.3949 26.2086 22.8799 25.2909 21.9148ZM802.496 1.20461L802.493 1.20744L802.496 1.20461ZM802.496 46.0702C802.495 46.0693 802.494 46.0684 802.493 46.0675L802.496 46.0702ZM5.60223 46.0671L5.60276 46.0666C5.60258 46.0667 5.6024 46.0669 5.60222 46.0671L5.23988 45.7226L5.60223 46.0671Z" stroke="#D8A85C" stroke-width="3" stroke-linejoin="bevel"/>
</g>
<path d="M290.044 15.8374C290.079 15.3511 290.343 14.9292 290.835 14.5718C291.087 14.3901 291.333 14.2583 291.573 14.1763H286.414C286.654 14.2583 286.897 14.3901 287.144 14.5718C287.642 14.9292 287.908 15.3511 287.943 15.8374V30.5151C287.908 31.0015 287.642 31.4233 287.144 31.7808C286.897 31.9624 286.654 32.0942 286.414 32.1763H291.573C291.333 32.0942 291.087 31.9624 290.835 31.7808C290.343 31.4233 290.079 31.0015 290.044 30.5151V15.8374ZM306.102 14.1763C306.342 14.2583 306.585 14.3901 306.831 14.5718C307.329 14.9292 307.596 15.3511 307.631 15.8374V27.9224L294.535 14.1763V30.5151C294.5 31.0015 294.233 31.4233 293.735 31.7808C293.489 31.9624 293.246 32.0942 293.006 32.1763H298.165C297.925 32.0942 297.682 31.9624 297.436 31.7808C296.938 31.4233 296.671 31.0015 296.636 30.5151V18.5972L309.723 32.1763V32.1587L309.731 32.1763V15.8374C309.767 15.3511 310.033 14.9292 310.531 14.5718C310.777 14.3901 311.021 14.2583 311.261 14.1763H306.102ZM316.279 22.2358V15.5034H319.698C320.425 15.5034 320.955 15.8315 321.289 16.4878C321.459 16.8101 321.556 17.1353 321.579 17.4634L322.256 14.1763L321.579 14.4927H312.342C313.297 14.7681 313.906 15.1753 314.17 15.7144C314.176 19.1187 314.182 22.2241 314.188 25.0308H314.179V30.5151C314.138 31.0015 313.871 31.4233 313.379 31.7808C313.133 31.9624 312.89 32.0942 312.649 32.1763H317.8C317.56 32.0942 317.316 31.9624 317.07 31.7808C316.572 31.4233 316.306 31.0015 316.271 30.5151V30.2251L316.279 29.9351V23.2554H319.153C320.056 23.2554 320.7 23.5718 321.087 24.2046C321.28 24.521 321.383 24.8403 321.395 25.1626L321.834 21.6382C321.365 22.019 320.768 22.2183 320.041 22.2358H316.279ZM333.682 15.4331C335.035 15.8491 336.143 16.5728 337.004 17.604C338.223 19.063 338.832 21.0405 338.832 23.5366C338.832 26.0269 338.223 27.9429 337.004 29.2847C336.143 30.2339 335.035 30.8521 333.682 31.1392V15.4331ZM325.332 23.1763C325.332 20.7563 325.93 18.8491 327.125 17.4546C327.975 16.4702 329.073 15.7847 330.421 15.3979V30.9985C329.073 30.606 327.975 29.9116 327.125 28.9155C325.93 27.5093 325.332 25.5962 325.332 23.1763ZM332.434 15.1606C332.668 15.1899 332.905 15.231 333.146 15.2837V31.2358C332.894 31.2651 332.656 31.2827 332.434 31.2886V15.1606ZM331.546 31.2446C331.358 31.2153 331.162 31.1802 330.957 31.1392V15.2661C331.15 15.2251 331.347 15.1929 331.546 15.1694V31.2446ZM332.372 14.1851C330.825 14.0913 329.278 14.4106 327.731 15.1431C324.632 16.6021 323.082 19.3794 323.082 23.4751C323.082 26.4048 324.187 28.6694 326.396 30.269C328.153 31.5405 330.146 32.1763 332.372 32.1763C334.423 32.1763 336.318 31.4468 338.059 29.9878C340.068 28.3003 341.073 26.1499 341.073 23.5366C341.073 20.8647 340.098 18.5942 338.146 16.7251C336.371 15.0317 334.446 14.1851 332.372 14.1851ZM351.708 24.2485L353.949 18.1841L356.12 24.2661L351.708 24.2485ZM363.011 32.1763C362.776 32.1235 362.516 32.021 362.229 31.8687C361.654 31.564 361.238 31.1597 360.98 30.6558C360.564 29.853 358.265 24.3599 354.081 14.1763L347.911 30.5239C347.835 30.7583 347.683 31.0044 347.454 31.2622C347.003 31.772 346.396 32.0767 345.635 32.1763H350.908C350.68 32.1235 350.451 32.0386 350.223 31.9214C349.76 31.6753 349.528 31.3794 349.528 31.0337L351.427 25.3472H356.393L358.704 31.3149C358.06 31.4966 357.6 31.7837 357.324 32.1763H363.011ZM370.174 31.3589C369.277 31.3589 368.765 31.3354 368.636 31.2886C368.302 31.1655 368.135 30.7905 368.135 30.1636C368.135 29.2319 368.111 26.8823 368.064 23.1147H371.281C371.686 23.1323 372.093 23.2905 372.503 23.5894C373.323 24.187 373.733 25.1978 373.733 26.6216C373.733 28.1743 373.314 29.3931 372.477 30.2778C371.791 30.9985 371.023 31.3589 370.174 31.3589ZM368.135 16.189C368.135 15.562 368.302 15.187 368.636 15.064C368.765 15.0171 369.277 14.9937 370.174 14.9937C371.041 14.9937 371.738 15.2485 372.266 15.7583C372.969 16.4438 373.32 17.5571 373.32 19.0981C373.32 19.9419 372.98 20.645 372.301 21.2075C371.961 21.4888 371.621 21.688 371.281 21.8052H368.064C368.111 18.9927 368.135 17.1206 368.135 16.189ZM372.644 22.5171C372.632 22.4995 372.608 22.479 372.573 22.4556C372.608 22.438 372.632 22.4204 372.644 22.4028C373.786 21.5298 374.486 20.0591 374.744 17.9907C374.744 16.3618 373.962 15.2573 372.397 14.6772C371.554 14.3667 370.291 14.1997 368.609 14.1763H364.408C364.484 14.1997 364.575 14.2378 364.681 14.2905L364.408 14.1763C364.648 14.2759 364.892 14.4253 365.138 14.6245C365.63 15.0229 365.894 15.4624 365.929 15.9429V30.4097C365.894 30.8901 365.63 31.3296 365.138 31.728C364.892 31.9272 364.648 32.0767 364.408 32.1763L364.681 32.062C364.575 32.1147 364.484 32.1528 364.408 32.1763H369.312C370.877 32.1997 372.163 31.9595 373.171 31.4556C374.636 30.7173 375.368 29.4751 375.368 27.729C375.409 27.3071 375.327 26.771 375.122 26.1206C374.706 24.8257 373.88 23.6245 372.644 22.5171ZM386.855 15.4331C388.209 15.8491 389.316 16.5728 390.178 17.604C391.396 19.063 392.006 21.0405 392.006 23.5366C392.006 26.0269 391.396 27.9429 390.178 29.2847C389.316 30.2339 388.209 30.8521 386.855 31.1392V15.4331ZM378.506 23.1763C378.506 20.7563 379.104 18.8491 380.299 17.4546C381.148 16.4702 382.247 15.7847 383.595 15.3979V30.9985C382.247 30.606 381.148 29.9116 380.299 28.9155C379.104 27.5093 378.506 25.5962 378.506 23.1763ZM385.607 15.1606C385.842 15.1899 386.079 15.231 386.319 15.2837V31.2358C386.067 31.2651 385.83 31.2827 385.607 31.2886V15.1606ZM384.72 31.2446C384.532 31.2153 384.336 31.1802 384.131 31.1392V15.2661C384.324 15.2251 384.521 15.1929 384.72 15.1694V31.2446ZM385.546 14.1851C383.999 14.0913 382.452 14.4106 380.905 15.1431C377.806 16.6021 376.256 19.3794 376.256 23.4751C376.256 26.4048 377.36 28.6694 379.569 30.269C381.327 31.5405 383.319 32.1763 385.546 32.1763C387.597 32.1763 389.492 31.4468 391.232 29.9878C393.242 28.3003 394.247 26.1499 394.247 23.5366C394.247 20.8647 393.271 18.5942 391.32 16.7251C389.545 15.0317 387.62 14.1851 385.546 14.1851ZM407 14.1763C407.234 14.229 407.469 14.3491 407.703 14.5366C408.166 14.9233 408.397 15.4595 408.397 16.145V23.7651C408.397 26.2671 408.014 28.1333 407.246 29.3638C406.643 30.3247 405.77 30.9253 404.627 31.1655L404.108 31.2534C403.921 31.2827 403.689 31.3032 403.414 31.3149L402.553 31.2622C402.365 31.2388 402.172 31.2065 401.973 31.1655L401.463 31.0337C398.984 30.3071 397.745 27.7671 397.745 23.4136L397.754 21.2427L397.771 15.8198C397.812 15.3394 398.076 14.9204 398.562 14.563C398.809 14.3872 399.052 14.2583 399.292 14.1763H394.186C394.379 14.2173 394.581 14.314 394.792 14.4663C395.208 14.771 395.46 15.1899 395.548 15.7231V23.7036C395.548 26.5981 396.418 28.8042 398.158 30.3218C399.582 31.5581 401.316 32.1763 403.361 32.1763C405.248 32.1763 406.886 31.4644 408.274 30.0405C409.821 28.4585 410.595 26.3667 410.595 23.7651V15.7935C410.636 15.3188 410.899 14.9058 411.386 14.5542C411.632 14.3843 411.869 14.2583 412.098 14.1763H407ZM426.872 14.4927H414.181L413.504 14.1763L414.181 17.4634C414.204 17.1353 414.298 16.8101 414.462 16.4878C414.802 15.8315 415.335 15.5034 416.062 15.5034H419.454L419.463 15.7144C419.469 19.1187 419.475 22.2241 419.48 25.0308V30.5151C419.439 31.0015 419.173 31.4233 418.681 31.7808C418.429 31.9624 418.183 32.0942 417.942 32.1763H423.102C422.861 32.0942 422.618 31.9624 422.372 31.7808C421.874 31.4233 421.607 31.0015 421.572 30.5151V25.0308C421.578 22.2241 421.584 19.1187 421.59 15.7144V15.5034H424.991C425.718 15.5034 426.248 15.8315 426.582 16.4878C426.752 16.8101 426.849 17.1353 426.872 17.4634L427.549 14.1763L426.872 14.4927ZM449.961 27.9927L455.234 15.8374C455.193 15.3511 454.924 14.9292 454.426 14.5718C454.174 14.3901 453.928 14.2583 453.688 14.1763H458.891C458.697 14.2231 458.495 14.3228 458.284 14.4751C457.856 14.7798 457.599 15.2017 457.511 15.7407L450.031 32.1763V32.0181L449.961 32.1763L445.496 22.5347L441.031 32.1763L440.961 32.0181V32.1763L433.481 15.7407C433.394 15.2017 433.136 14.7798 432.708 14.4751C432.497 14.3228 432.295 14.2231 432.102 14.1763H437.313C437.067 14.2583 436.821 14.3901 436.575 14.5718C436.071 14.9292 435.802 15.3511 435.767 15.8374L441.031 27.9927L444.415 20.1968L445.496 17.481L446.586 20.1968L449.961 27.9927ZM467.275 15.4331C468.629 15.8491 469.736 16.5728 470.598 17.604C471.816 19.063 472.426 21.0405 472.426 23.5366C472.426 26.0269 471.816 27.9429 470.598 29.2847C469.736 30.2339 468.629 30.8521 467.275 31.1392V15.4331ZM458.926 23.1763C458.926 20.7563 459.523 18.8491 460.719 17.4546C461.568 16.4702 462.667 15.7847 464.015 15.3979V30.9985C462.667 30.606 461.568 29.9116 460.719 28.9155C459.523 27.5093 458.926 25.5962 458.926 23.1763ZM466.027 15.1606C466.262 15.1899 466.499 15.231 466.739 15.2837V31.2358C466.487 31.2651 466.25 31.2827 466.027 31.2886V15.1606ZM465.14 31.2446C464.952 31.2153 464.756 31.1802 464.551 31.1392V15.2661C464.744 15.2251 464.94 15.1929 465.14 15.1694V31.2446ZM465.966 14.1851C464.419 14.0913 462.872 14.4106 461.325 15.1431C458.226 16.6021 456.676 19.3794 456.676 23.4751C456.676 26.4048 457.78 28.6694 459.989 30.269C461.747 31.5405 463.739 32.1763 465.966 32.1763C468.017 32.1763 469.912 31.4468 471.652 29.9878C473.662 28.3003 474.667 26.1499 474.667 23.5366C474.667 20.8647 473.691 18.5942 471.74 16.7251C469.965 15.0317 468.04 14.1851 465.966 14.1851ZM477.928 23.2378C477.975 19.4702 477.998 17.1206 477.998 16.189C477.998 15.5503 478.13 15.1753 478.394 15.064C478.499 15.0171 478.977 14.9937 479.826 14.9937C480.676 14.9937 481.443 15.354 482.129 16.0747C482.967 16.9595 483.386 18.1782 483.386 19.731C483.386 21.1548 482.979 22.1655 482.164 22.7632C481.754 23.062 481.344 23.2202 480.934 23.2378H477.928ZM484.836 26.3931C484.057 25.2446 483.365 24.3921 482.762 23.8354C484.004 22.728 484.83 21.5269 485.24 20.2319C485.451 19.5815 485.536 19.0454 485.495 18.6235C485.495 16.3032 484.232 14.8853 481.707 14.3696C480.447 14.1118 479.188 14.0854 477.928 14.2905H474.324C474.564 14.3726 474.808 14.5044 475.054 14.686C475.546 15.0435 475.81 15.4624 475.845 15.9429V30.5239C475.81 31.0103 475.546 31.4321 475.054 31.7896C474.808 31.9653 474.564 32.0942 474.324 32.1763H479.448C479.208 32.0942 478.965 31.9653 478.719 31.7896C478.227 31.4321 477.963 31.0103 477.928 30.5239V24.4946C479.469 24.4946 480.778 24.9106 481.856 25.7427C482.396 26.1528 482.779 26.5659 483.008 26.9819C483.523 27.8491 484.142 28.7163 484.862 29.5835C486.304 31.312 487.528 32.1763 488.536 32.1763C489.544 32.1763 490.3 32.0474 490.804 31.7896C491.062 31.6606 491.217 31.5347 491.27 31.4116C490.133 31.646 488.879 31.0952 487.508 29.7593C486.74 29.0093 485.85 27.8872 484.836 26.3931ZM495.33 15.4243C495.342 15.4126 495.354 15.395 495.365 15.3716L495.304 30.3745C495.304 29.5249 495.312 24.5415 495.33 15.4243ZM498.582 31.4292C497.727 31.4292 496.936 31.1743 496.209 30.6646C495.84 30.4067 495.559 30.1489 495.365 29.8911V15.3716C495.699 14.8325 496.309 14.4341 497.193 14.1763H491.357C492.33 14.4575 492.948 14.8735 493.212 15.4243C493.229 24.5415 493.238 29.5249 493.238 30.3745C493.238 30.9019 492.978 31.3618 492.456 31.7544C492.198 31.9478 491.938 32.0884 491.674 32.1763H501.447L501.816 29.021C501.617 29.4194 501.333 29.8208 500.964 30.2251C500.226 31.0278 499.432 31.4292 498.582 31.4292ZM509.48 31.1392C508.32 31.186 507.418 30.9136 506.773 30.3218V16.2593C507.734 15.4741 508.959 15.0815 510.447 15.0815C512.779 15.0815 514.616 15.7612 515.958 17.1206C517.323 18.4917 518.006 20.3813 518.006 22.7896C518.006 25.104 517.071 27.1021 515.202 28.7837C513.462 30.354 511.555 31.1392 509.48 31.1392ZM502.924 14.1763C503.773 14.3931 504.324 14.6743 504.576 15.02C504.705 15.1899 504.746 15.3423 504.699 15.4771V31.0601C504.641 31.3647 504.348 31.6372 503.82 31.8774L502.924 32.1763H510.078C512.938 32.1763 515.243 31.4351 516.995 29.9526C518.952 28.2886 519.931 25.8892 519.931 22.7544C520.001 21.3247 519.667 19.895 518.929 18.4653C517.446 15.606 514.684 14.1763 510.641 14.1763H502.924Z" fill="#E8E8E8"/>
<defs>
<filter id="filter0_d" x="0.237793" y="0.552246" width="807.619" height="54.1703" filterUnits="userSpaceOnUse" color-interpolation-filters="sRGB">
<feFlood flood-opacity="0" result="BackgroundImageFix"/>
<feColorMatrix in="SourceAlpha" type="matrix" values="0 0 0 0 0 0 0 0 0 0 0 0 0 0 0 0 0 0 127 0"/>
<feOffset dy="4"/>
<feGaussianBlur stdDeviation="2"/>
<feColorMatrix type="matrix" values="0 0 0 0 0 0 0 0 0 0 0 0 0 0 0 0 0 0 0.25 0"/>
<feBlend mode="normal" in2="BackgroundImageFix" result="effect1_dropShadow"/>
<feBlend mode="normal" in="SourceGraphic" in2="effect1_dropShadow" result="shape"/>
</filter>
</defs>
</svg>
