<svg width="138" height="196" viewBox="0 0 138 196" fill="none" xmlns="http://www.w3.org/2000/svg">
<g filter="url(#filter0_d)">
<path d="M4.67949 187.739C4.35199 187.865 4 187.623 4 187.272L4 12.5C4 12.2239 4.22386 12 4.5 12H69H133.5C133.776 12 134 12.2239 134 12.5L134 187.272C134 187.623 133.648 187.865 133.321 187.739L69.1795 163.069C69.064 163.025 68.936 163.025 68.8205 163.069L4.67949 187.739Z" fill="url(#paint0_linear)"/>
<path d="M68.4615 162.136L5 186.544L5 13H69H133L133 186.544L69.5385 162.136C69.1919 162.002 68.8081 162.002 68.4615 162.136Z" stroke="#ECAE59" stroke-width="2" stroke-linejoin="round"/>
</g>
<rect x="4" width="130" height="11" fill="#2B4045"/>
<defs>
<filter id="filter0_d" x="0" y="12" width="138" height="183.772" filterUnits="userSpaceOnUse" color-interpolation-filters="sRGB">
<feFlood flood-opacity="0" result="BackgroundImageFix"/>
<feColorMatrix in="SourceAlpha" type="matrix" values="0 0 0 0 0 0 0 0 0 0 0 0 0 0 0 0 0 0 127 0"/>
<feOffset dy="4"/>
<feGaussianBlur stdDeviation="2"/>
<feColorMatrix type="matrix" values="0 0 0 0 0 0 0 0 0 0 0 0 0 0 0 0 0 0 0.25 0"/>
<feBlend mode="normal" in2="BackgroundImageFix" result="effect1_dropShadow"/>
<feBlend mode="normal" in="SourceGraphic" in2="effect1_dropShadow" result="shape"/>
</filter>
<linearGradient id="paint0_linear" x1="69.4422" y1="12" x2="69.4422" y2="143" gradientUnits="userSpaceOnUse">
<stop stop-color="#41595E"/>
<stop offset="1" stop-color="#3C555A"/>
</linearGradient>
</defs>
</svg>
