<svg width="72" height="146" viewBox="0 0 72 146" fill="none" xmlns="http://www.w3.org/2000/svg">
<g filter="url(#filter0_d)">
<path d="M4.74564 137.498C4.41233 137.686 4 137.446 4 137.063L4 0.500043C4 0.223901 4.22386 4.1008e-05 4.5 4.1008e-05H36H67.5C67.7761 4.1008e-05 68 0.223899 68 0.500041V137.063C68 137.446 67.5877 137.686 67.2544 137.498L36.2456 120.009C36.0932 119.923 35.9068 119.923 35.7544 120.009L4.74564 137.498Z" fill="#3A5358"/>
<path d="M35.2631 119.138L5 136.207L5 1.00005H36H67V136.207L36.7369 119.138C36.2795 118.88 35.7205 118.88 35.2631 119.138Z" stroke="#D8A85C" stroke-width="2" stroke-linejoin="round"/>
</g>
<path d="M41.5218 33.229C41.5719 33.0643 41.5182 32.8745 41.3606 32.6597C41.0455 32.2228 40.358 31.8719 39.2981 31.6069H46.3343C45.2744 31.8719 44.5869 32.2228 44.2718 32.6597C44.1071 32.8745 44.0533 33.0643 44.1106 33.229V40.8237C43.7955 41.0744 43.2799 41.3286 42.5638 41.5864C41.1243 42.0949 39.402 42.3491 37.3968 42.3491C33.7802 42.3491 30.8977 41.479 28.7493 39.7388C26.3001 37.755 25.0755 34.8117 25.0755 30.9087C24.9895 29.147 25.4085 27.3888 26.3323 25.6343C28.1871 22.1108 31.6425 20.3491 36.6985 20.3491C40.7734 20.6571 43.3229 20.965 44.347 21.2729L43.6058 26.1392C43.4554 25.3371 43.0651 24.535 42.4349 23.7329C41.1816 22.1216 39.3483 21.3159 36.9349 21.3159C34.0201 21.3159 31.7213 22.1646 30.0384 23.8618C28.3339 25.5806 27.4817 27.9438 27.4817 30.9517C27.4817 33.8306 28.649 36.2726 30.9837 38.2778C33.1393 40.1255 35.524 41.0493 38.138 41.0493C39.5846 41.1138 40.7125 40.7736 41.5218 40.0288V33.229ZM37.9446 47.8853C39.5989 48.3937 40.9524 49.2782 42.0052 50.5386C43.4947 52.3218 44.2395 54.7388 44.2395 57.7896C44.2395 60.8332 43.4947 63.175 42.0052 64.8149C40.9524 65.9751 39.5989 66.7306 37.9446 67.0815V47.8853ZM27.7395 57.3491C27.7395 54.3914 28.47 52.0604 29.9309 50.356C30.9694 49.1528 32.3121 48.3149 33.9593 47.8423V66.9097C32.3121 66.4299 30.9694 65.5812 29.9309 64.3638C28.47 62.645 27.7395 60.3068 27.7395 57.3491ZM36.4192 47.5522C36.7057 47.5881 36.9957 47.6382 37.2893 47.7026V67.1997C36.9814 67.2355 36.6914 67.257 36.4192 67.2642V47.5522ZM35.3343 67.2104C35.1051 67.1746 34.8652 67.1317 34.6145 67.0815V47.6812C34.8509 47.631 35.0908 47.5916 35.3343 47.563V67.2104ZM36.344 46.3599C34.4534 46.2453 32.5628 46.6356 30.6722 47.5308C26.8837 49.314 24.9895 52.7085 24.9895 57.7144C24.9895 61.2951 26.3395 64.063 29.0393 66.0181C31.1878 67.5721 33.6227 68.3491 36.344 68.3491C38.8505 68.3491 41.1673 67.4575 43.2942 65.6743C45.7506 63.6118 46.9788 60.9836 46.9788 57.7896C46.9788 54.5239 45.7864 51.7489 43.4017 49.4644C41.2317 47.3947 38.8792 46.3599 36.344 46.3599ZM42.1556 85.229C42.2057 85.0643 42.152 84.8745 41.9944 84.6597C41.6793 84.2228 40.9918 83.8719 39.9319 83.6069H46.9681C45.9082 83.8719 45.2207 84.2228 44.9056 84.6597C44.7408 84.8745 44.6871 85.0643 44.7444 85.229V92.8237C44.4293 93.0744 43.9137 93.3286 43.1975 93.5864C41.7581 94.0949 40.0358 94.3491 38.0306 94.3491C34.414 94.3491 31.5315 93.479 29.3831 91.7388C26.9339 89.755 25.7093 86.8117 25.7093 82.9087C25.6233 81.147 26.0423 79.3888 26.9661 77.6343C28.8209 74.1108 32.2763 72.3491 37.3323 72.3491C41.4072 72.6571 43.9567 72.965 44.9808 73.2729L44.2395 78.1392C44.0892 77.3371 43.6989 76.535 43.0686 75.7329C41.8154 74.1216 39.9821 73.3159 37.5686 73.3159C34.6539 73.3159 32.3551 74.1646 30.6722 75.8618C28.9677 77.5806 28.1155 79.9438 28.1155 82.9517C28.1155 85.8306 29.2828 88.2726 31.6175 90.2778C33.7731 92.1255 36.1578 93.0493 38.7718 93.0493C40.2184 93.1138 41.3463 92.7736 42.1556 92.0288V85.229Z" fill="#E8E8E8"/>
<defs>
<filter id="filter0_d" x="0" y="0" width="72" height="145.564" filterUnits="userSpaceOnUse" color-interpolation-filters="sRGB">
<feFlood flood-opacity="0" result="BackgroundImageFix"/>
<feColorMatrix in="SourceAlpha" type="matrix" values="0 0 0 0 0 0 0 0 0 0 0 0 0 0 0 0 0 0 127 0"/>
<feOffset dy="4"/>
<feGaussianBlur stdDeviation="2"/>
<feColorMatrix type="matrix" values="0 0 0 0 0 0 0 0 0 0 0 0 0 0 0 0 0 0 0.25 0"/>
<feBlend mode="normal" in2="BackgroundImageFix" result="effect1_dropShadow"/>
<feBlend mode="normal" in="SourceGraphic" in2="effect1_dropShadow" result="shape"/>
</filter>
</defs>
</svg>
